<?xml version="1.0" encoding="UTF-8" standalone="no"?>
<!DOCTYPE svg PUBLIC "-//W3C//DTD SVG 1.1//EN"
 "http://www.w3.org/Graphics/SVG/1.1/DTD/svg11.dtd">
<!-- Generated by graphviz version 2.42.3 (0)
 -->
<!-- Title: %275 Pages: 1 -->
<svg width="1271pt" height="527pt"
 viewBox="0.00 0.00 1271.00 526.90" xmlns="http://www.w3.org/2000/svg" xmlns:xlink="http://www.w3.org/1999/xlink">
<g id="page0,1_graph0" class="graph" transform="scale(1 1) rotate(0) translate(4 522.9)">
<title>%275</title>
<polygon fill="white" stroke="transparent" points="-4,4 -4,-522.9 1267,-522.9 1267,4 -4,4"/>
<g id="clust1" class="cluster">
<title>cluster__packet</title>
<polygon fill="none" stroke="black" stroke-dasharray="1,5" points="8,-64.9 8,-510.9 1061,-510.9 1061,-64.9 8,-64.9"/>
<text text-anchor="middle" x="534.5" y="-495.7" font-family="Times,serif" font-size="14.00">Packet</text>
</g>
<g id="clust3" class="cluster">
<title>cluster__write_req</title>
<polygon fill="none" stroke="black" stroke-dasharray="1,5" points="576,-211.9 576,-360.9 826,-360.9 826,-211.9 576,-211.9"/>
<text text-anchor="middle" x="701" y="-345.7" font-family="Times,serif" font-size="14.00">Packet::WriteReq</text>
</g>
<g id="clust4" class="cluster">
<title>cluster__response</title>
<polygon fill="none" stroke="black" stroke-dasharray="1,5" points="570,-72.9 570,-203.9 1053,-203.9 1053,-72.9 570,-72.9"/>
<text text-anchor="middle" x="811.5" y="-188.7" font-family="Times,serif" font-size="14.00">Packet::Response</text>
</g>
<g id="clust2" class="cluster">
<title>cluster__read_req</title>
<polygon fill="none" stroke="black" stroke-dasharray="1,5" points="600,-368.9 600,-479.9 802,-479.9 802,-368.9 600,-368.9"/>
<text text-anchor="middle" x="701" y="-464.7" font-family="Times,serif" font-size="14.00">Packet::ReadReq</text>
</g>
<!-- packet__seq -->
<g id="node1" class="node">
<title>packet__seq</title>
<polygon fill="#e0ffe0" stroke="transparent" points="24,-329.9 24,-350.9 55,-350.9 55,-329.9 24,-329.9"/>
<polygon fill="none" stroke="black" points="24,-329.9 24,-350.9 55,-350.9 55,-329.9 24,-329.9"/>
<text text-anchor="start" x="27" y="-336.7" font-family="Times,serif" font-size="14.00">pos</text>
<polygon fill="#e0ffe0" stroke="transparent" points="55,-329.9 55,-350.9 89,-350.9 89,-329.9 55,-329.9"/>
<polygon fill="none" stroke="black" points="55,-329.9 55,-350.9 89,-350.9 89,-329.9 55,-329.9"/>
<text text-anchor="start" x="58" y="-336.7" font-family="Times,serif" font-size="14.00">size</text>
<polygon fill="#e0ffe0" stroke="transparent" points="89,-329.9 89,-350.9 187,-350.9 187,-329.9 89,-329.9"/>
<polygon fill="none" stroke="black" points="89,-329.9 89,-350.9 187,-350.9 187,-329.9 89,-329.9"/>
<text text-anchor="start" x="122" y="-336.7" font-family="Times,serif" font-size="14.00">type</text>
<polygon fill="#e0ffe0" stroke="transparent" points="187,-329.9 187,-350.9 278,-350.9 278,-329.9 187,-329.9"/>
<polygon fill="none" stroke="black" points="187,-329.9 187,-350.9 278,-350.9 278,-329.9 187,-329.9"/>
<text text-anchor="start" x="225.5" y="-336.7" font-family="Times,serif" font-size="14.00">id</text>
<polygon fill="none" stroke="black" points="24,-308.9 24,-329.9 55,-329.9 55,-308.9 24,-308.9"/>
<text text-anchor="start" x="34.5" y="-315.7" font-family="Times,serif" font-size="14.00">0</text>
<polygon fill="none" stroke="black" points="55,-308.9 55,-329.9 89,-329.9 89,-308.9 55,-308.9"/>
<text text-anchor="start" x="67" y="-315.7" font-family="Times,serif" font-size="14.00">1</text>
<polygon fill="none" stroke="black" points="89,-308.9 89,-329.9 187,-329.9 187,-308.9 89,-308.9"/>
<text text-anchor="start" x="126.5" y="-315.7" font-family="Times,serif" font-size="14.00">DD</text>
<polygon fill="none" stroke="black" points="187,-308.9 187,-329.9 278,-329.9 278,-308.9 187,-308.9"/>
<text text-anchor="start" x="190" y="-315.7" font-family="Times,serif" font-size="14.00">magic_start</text>
<polygon fill="none" stroke="black" points="24,-287.9 24,-308.9 55,-308.9 55,-287.9 24,-287.9"/>
<text text-anchor="start" x="34.5" y="-294.7" font-family="Times,serif" font-size="14.00">1</text>
<polygon fill="none" stroke="black" points="55,-287.9 55,-308.9 89,-308.9 89,-287.9 55,-287.9"/>
<text text-anchor="start" x="67" y="-294.7" font-family="Times,serif" font-size="14.00">1</text>
<polygon fill="none" stroke="black" points="89,-287.9 89,-308.9 187,-308.9 187,-287.9 89,-287.9"/>
<text text-anchor="start" x="128.5" y="-294.7" font-family="Times,serif" font-size="14.00">u1</text>
<polygon fill="none" stroke="black" points="187,-287.9 187,-308.9 278,-308.9 278,-287.9 187,-287.9"/>
<text text-anchor="start" x="217" y="-294.7" font-family="Times,serif" font-size="14.00">cmd</text>
<polygon fill="none" stroke="black" points="24,-266.9 24,-287.9 55,-287.9 55,-266.9 24,-266.9"/>
<text text-anchor="start" x="34.5" y="-273.7" font-family="Times,serif" font-size="14.00">2</text>
<polygon fill="none" stroke="black" points="55,-266.9 55,-287.9 89,-287.9 89,-266.9 55,-266.9"/>
<text text-anchor="start" x="65" y="-273.7" font-family="Times,serif" font-size="14.00">...</text>
<polygon fill="none" stroke="black" points="89,-266.9 89,-287.9 187,-287.9 187,-266.9 89,-266.9"/>
<text text-anchor="start" x="92" y="-273.7" font-family="Times,serif" font-size="14.00">switch (cmd)</text>
<polygon fill="none" stroke="black" points="187,-266.9 187,-287.9 278,-287.9 278,-266.9 187,-266.9"/>
<text text-anchor="start" x="215" y="-273.7" font-family="Times,serif" font-size="14.00">body</text>
<polygon fill="none" stroke="black" points="24,-245.9 24,-266.9 55,-266.9 55,-245.9 24,-245.9"/>
<text text-anchor="start" x="32.5" y="-252.7" font-family="Times,serif" font-size="14.00">...</text>
<polygon fill="none" stroke="black" points="55,-245.9 55,-266.9 89,-266.9 89,-245.9 55,-245.9"/>
<text text-anchor="start" x="67" y="-252.7" font-family="Times,serif" font-size="14.00">2</text>
<polygon fill="none" stroke="black" points="89,-245.9 89,-266.9 187,-266.9 187,-245.9 89,-245.9"/>
<polygon fill="none" stroke="black" points="187,-245.9 187,-266.9 278,-266.9 278,-245.9 187,-245.9"/>
<text text-anchor="start" x="197" y="-252.7" font-family="Times,serif" font-size="14.00">checksum</text>
<polygon fill="none" stroke="black" points="24,-224.9 24,-245.9 55,-245.9 55,-224.9 24,-224.9"/>
<text text-anchor="start" x="32.5" y="-231.7" font-family="Times,serif" font-size="14.00">...</text>
<polygon fill="none" stroke="black" points="55,-224.9 55,-245.9 89,-245.9 89,-224.9 55,-224.9"/>
<text text-anchor="start" x="67" y="-231.7" font-family="Times,serif" font-size="14.00">1</text>
<polygon fill="none" stroke="black" points="89,-224.9 89,-245.9 187,-245.9 187,-224.9 89,-224.9"/>
<text text-anchor="start" x="128.5" y="-231.7" font-family="Times,serif" font-size="14.00">77</text>
<polygon fill="none" stroke="black" points="187,-224.9 187,-245.9 278,-245.9 278,-224.9 187,-224.9"/>
<text text-anchor="start" x="194.5" y="-231.7" font-family="Times,serif" font-size="14.00">magic_end</text>
</g>
<!-- packet__seq&#45;&gt;packet__seq -->
<g id="edge5" class="edge">
<title>packet__seq:cmd_type&#45;&gt;packet__seq:body_type</title>
<path fill="none" stroke="#404040" d="M212.22,-308.92C163.87,-336.84 170.79,-372.9 233,-372.9 291.06,-372.9 300.96,-326.35 262.7,-294.3"/>
<polygon fill="#404040" stroke="#404040" points="264.52,-291.28 254.41,-288.1 260.33,-296.89 264.52,-291.28"/>
</g>
<!-- packet__seq_body_switch -->
<g id="node2" class="node">
<title>packet__seq_body_switch</title>
<polygon fill="#f0f2e4" stroke="transparent" points="376,-297.9 376,-318.9 414,-318.9 414,-297.9 376,-297.9"/>
<polygon fill="none" stroke="black" points="376,-297.9 376,-318.9 414,-318.9 414,-297.9 376,-297.9"/>
<text text-anchor="start" x="379" y="-304.7" font-family="Times,serif" font-size="14.00">case</text>
<polygon fill="#f0f2e4" stroke="transparent" points="414,-297.9 414,-318.9 489,-318.9 489,-297.9 414,-297.9"/>
<polygon fill="none" stroke="black" points="414,-297.9 414,-318.9 489,-318.9 489,-297.9 414,-297.9"/>
<text text-anchor="start" x="435.5" y="-304.7" font-family="Times,serif" font-size="14.00">type</text>
<polygon fill="none" stroke="black" points="376,-276.9 376,-297.9 414,-297.9 414,-276.9 376,-276.9"/>
<text text-anchor="start" x="381" y="-283.7" font-family="Times,serif" font-size="14.00">165</text>
<polygon fill="none" stroke="black" points="414,-276.9 414,-297.9 489,-297.9 489,-276.9 414,-276.9"/>
<text text-anchor="start" x="419.5" y="-283.7" font-family="Times,serif" font-size="14.00">ReadReq</text>
<polygon fill="none" stroke="black" points="376,-255.9 376,-276.9 414,-276.9 414,-255.9 376,-255.9"/>
<text text-anchor="start" x="385.5" y="-262.7" font-family="Times,serif" font-size="14.00">90</text>
<polygon fill="none" stroke="black" points="414,-255.9 414,-276.9 489,-276.9 489,-255.9 414,-255.9"/>
<text text-anchor="start" x="418" y="-262.7" font-family="Times,serif" font-size="14.00">WriteReq</text>
<polygon fill="none" stroke="black" points="376,-234.9 376,-255.9 414,-255.9 414,-234.9 376,-234.9"/>
<text text-anchor="start" x="391.5" y="-241.7" font-family="Times,serif" font-size="14.00">_</text>
<polygon fill="none" stroke="black" points="414,-234.9 414,-255.9 489,-255.9 489,-234.9 414,-234.9"/>
<text text-anchor="start" x="417" y="-241.7" font-family="Times,serif" font-size="14.00">Response</text>
</g>
<!-- packet__seq&#45;&gt;packet__seq_body_switch -->
<g id="edge1" class="edge">
<title>packet__seq:body_type&#45;&gt;packet__seq_body_switch</title>
<path fill="none" stroke="black" stroke-width="2" d="M279,-276.9C304.51,-276.9 332.43,-276.9 357.31,-276.9"/>
<polygon fill="black" stroke="black" stroke-width="2" points="357.4,-280.4 367.4,-276.9 357.4,-273.4 357.4,-280.4"/>
</g>
<!-- read_req__seq -->
<g id="node3" class="node">
<title>read_req__seq</title>
<polygon fill="#e0ffe0" stroke="transparent" points="616,-422.9 616,-443.9 647,-443.9 647,-422.9 616,-422.9"/>
<polygon fill="none" stroke="black" points="616,-422.9 616,-443.9 647,-443.9 647,-422.9 616,-422.9"/>
<text text-anchor="start" x="619" y="-429.7" font-family="Times,serif" font-size="14.00">pos</text>
<polygon fill="#e0ffe0" stroke="transparent" points="647,-422.9 647,-443.9 681,-443.9 681,-422.9 647,-422.9"/>
<polygon fill="none" stroke="black" points="647,-422.9 647,-443.9 681,-443.9 681,-422.9 647,-422.9"/>
<text text-anchor="start" x="650" y="-429.7" font-family="Times,serif" font-size="14.00">size</text>
<polygon fill="#e0ffe0" stroke="transparent" points="681,-422.9 681,-443.9 719,-443.9 719,-422.9 681,-422.9"/>
<polygon fill="none" stroke="black" points="681,-422.9 681,-443.9 719,-443.9 719,-422.9 681,-422.9"/>
<text text-anchor="start" x="684" y="-429.7" font-family="Times,serif" font-size="14.00">type</text>
<polygon fill="#e0ffe0" stroke="transparent" points="719,-422.9 719,-443.9 786,-443.9 786,-422.9 719,-422.9"/>
<polygon fill="none" stroke="black" points="719,-422.9 719,-443.9 786,-443.9 786,-422.9 719,-422.9"/>
<text text-anchor="start" x="745.5" y="-429.7" font-family="Times,serif" font-size="14.00">id</text>
<polygon fill="none" stroke="black" points="616,-401.9 616,-422.9 647,-422.9 647,-401.9 616,-401.9"/>
<text text-anchor="start" x="626.5" y="-408.7" font-family="Times,serif" font-size="14.00">0</text>
<polygon fill="none" stroke="black" points="647,-401.9 647,-422.9 681,-422.9 681,-401.9 647,-401.9"/>
<text text-anchor="start" x="659" y="-408.7" font-family="Times,serif" font-size="14.00">1</text>
<polygon fill="none" stroke="black" points="681,-401.9 681,-422.9 719,-422.9 719,-401.9 681,-401.9"/>
<text text-anchor="start" x="690.5" y="-408.7" font-family="Times,serif" font-size="14.00">u1</text>
<polygon fill="none" stroke="black" points="719,-401.9 719,-422.9 786,-422.9 786,-401.9 719,-401.9"/>
<text text-anchor="start" x="722" y="-408.7" font-family="Times,serif" font-size="14.00">req_cmd</text>
<polygon fill="none" stroke="black" points="616,-380.9 616,-401.9 647,-401.9 647,-380.9 616,-380.9"/>
<text text-anchor="start" x="626.5" y="-387.7" font-family="Times,serif" font-size="14.00">1</text>
<polygon fill="none" stroke="black" points="647,-380.9 647,-401.9 681,-401.9 681,-380.9 647,-380.9"/>
<text text-anchor="start" x="659" y="-387.7" font-family="Times,serif" font-size="14.00">1</text>
<polygon fill="none" stroke="black" points="681,-380.9 681,-401.9 719,-401.9 719,-380.9 681,-380.9"/>
<text text-anchor="start" x="690.5" y="-387.7" font-family="Times,serif" font-size="14.00">00</text>
<polygon fill="none" stroke="black" points="719,-380.9 719,-401.9 786,-401.9 786,-380.9 719,-380.9"/>
<text text-anchor="start" x="722" y="-387.7" font-family="Times,serif" font-size="14.00">data_len</text>
</g>
<!-- packet__seq_body_switch&#45;&gt;read_req__seq -->
<g id="edge2" class="edge">
<title>packet__seq_body_switch:case0&#45;&gt;read_req__seq</title>
<path fill="none" stroke="black" stroke-width="2" d="M490,-287.9C539.35,-287.9 528.19,-338.69 570,-364.9 578.97,-370.53 588.71,-375.64 598.67,-380.25"/>
<polygon fill="black" stroke="black" stroke-width="2" points="597.31,-383.47 607.87,-384.33 600.15,-377.07 597.31,-383.47"/>
</g>
<!-- write_req__seq -->
<g id="node4" class="node">
<title>write_req__seq</title>
<polygon fill="#e0ffe0" stroke="transparent" points="592,-286.9 592,-307.9 623,-307.9 623,-286.9 592,-286.9"/>
<polygon fill="none" stroke="black" points="592,-286.9 592,-307.9 623,-307.9 623,-286.9 592,-286.9"/>
<text text-anchor="start" x="595" y="-293.7" font-family="Times,serif" font-size="14.00">pos</text>
<polygon fill="#e0ffe0" stroke="transparent" points="623,-286.9 623,-307.9 690,-307.9 690,-286.9 623,-286.9"/>
<polygon fill="none" stroke="black" points="623,-286.9 623,-307.9 690,-307.9 690,-286.9 623,-286.9"/>
<text text-anchor="start" x="642.5" y="-293.7" font-family="Times,serif" font-size="14.00">size</text>
<polygon fill="#e0ffe0" stroke="transparent" points="690,-286.9 690,-307.9 728,-307.9 728,-286.9 690,-286.9"/>
<polygon fill="none" stroke="black" points="690,-286.9 690,-307.9 728,-307.9 728,-286.9 690,-286.9"/>
<text text-anchor="start" x="693" y="-293.7" font-family="Times,serif" font-size="14.00">type</text>
<polygon fill="#e0ffe0" stroke="transparent" points="728,-286.9 728,-307.9 810,-307.9 810,-286.9 728,-286.9"/>
<polygon fill="none" stroke="black" points="728,-286.9 728,-307.9 810,-307.9 810,-286.9 728,-286.9"/>
<text text-anchor="start" x="762" y="-293.7" font-family="Times,serif" font-size="14.00">id</text>
<polygon fill="none" stroke="black" points="592,-265.9 592,-286.9 623,-286.9 623,-265.9 592,-265.9"/>
<text text-anchor="start" x="602.5" y="-272.7" font-family="Times,serif" font-size="14.00">0</text>
<polygon fill="none" stroke="black" points="623,-265.9 623,-286.9 690,-286.9 690,-265.9 623,-265.9"/>
<text text-anchor="start" x="651.5" y="-272.7" font-family="Times,serif" font-size="14.00">1</text>
<polygon fill="none" stroke="black" points="690,-265.9 690,-286.9 728,-286.9 728,-265.9 690,-265.9"/>
<text text-anchor="start" x="699.5" y="-272.7" font-family="Times,serif" font-size="14.00">u1</text>
<polygon fill="none" stroke="black" points="728,-265.9 728,-286.9 810,-286.9 810,-265.9 728,-265.9"/>
<text text-anchor="start" x="738.5" y="-272.7" font-family="Times,serif" font-size="14.00">req_cmd</text>
<polygon fill="none" stroke="black" points="592,-244.9 592,-265.9 623,-265.9 623,-244.9 592,-244.9"/>
<text text-anchor="start" x="602.5" y="-251.7" font-family="Times,serif" font-size="14.00">1</text>
<polygon fill="none" stroke="black" points="623,-244.9 623,-265.9 690,-265.9 690,-244.9 623,-244.9"/>
<text text-anchor="start" x="651.5" y="-251.7" font-family="Times,serif" font-size="14.00">1</text>
<polygon fill="none" stroke="black" points="690,-244.9 690,-265.9 728,-265.9 728,-244.9 690,-244.9"/>
<text text-anchor="start" x="699.5" y="-251.7" font-family="Times,serif" font-size="14.00">u1</text>
<polygon fill="none" stroke="black" points="728,-244.9 728,-265.9 810,-265.9 810,-244.9 728,-244.9"/>
<text text-anchor="start" x="738.5" y="-251.7" font-family="Times,serif" font-size="14.00">data_len</text>
<polygon fill="none" stroke="black" points="592,-223.9 592,-244.9 623,-244.9 623,-223.9 592,-223.9"/>
<text text-anchor="start" x="602.5" y="-230.7" font-family="Times,serif" font-size="14.00">2</text>
<polygon fill="none" stroke="black" points="623,-223.9 623,-244.9 690,-244.9 690,-223.9 623,-223.9"/>
<text text-anchor="start" x="626" y="-230.7" font-family="Times,serif" font-size="14.00">data_len</text>
<polygon fill="none" stroke="black" points="690,-223.9 690,-244.9 728,-244.9 728,-223.9 690,-223.9"/>
<polygon fill="none" stroke="black" points="728,-223.9 728,-244.9 810,-244.9 810,-223.9 728,-223.9"/>
<text text-anchor="start" x="731" y="-230.7" font-family="Times,serif" font-size="14.00">write_data</text>
</g>
<!-- packet__seq_body_switch&#45;&gt;write_req__seq -->
<g id="edge3" class="edge">
<title>packet__seq_body_switch:case1&#45;&gt;write_req__seq</title>
<path fill="none" stroke="black" stroke-width="2" d="M490,-265.9C517.11,-265.9 546.2,-265.9 573.81,-265.9"/>
<polygon fill="black" stroke="black" stroke-width="2" points="573.92,-269.4 583.92,-265.9 573.92,-262.4 573.92,-269.4"/>
</g>
<!-- response__seq -->
<g id="node5" class="node">
<title>response__seq</title>
<polygon fill="#e0ffe0" stroke="transparent" points="586,-147.9 586,-168.9 617,-168.9 617,-147.9 586,-147.9"/>
<polygon fill="none" stroke="black" points="586,-147.9 586,-168.9 617,-168.9 617,-147.9 586,-147.9"/>
<text text-anchor="start" x="589" y="-154.7" font-family="Times,serif" font-size="14.00">pos</text>
<polygon fill="#e0ffe0" stroke="transparent" points="617,-147.9 617,-168.9 651,-168.9 651,-147.9 617,-147.9"/>
<polygon fill="none" stroke="black" points="617,-147.9 617,-168.9 651,-168.9 651,-147.9 617,-147.9"/>
<text text-anchor="start" x="620" y="-154.7" font-family="Times,serif" font-size="14.00">size</text>
<polygon fill="#e0ffe0" stroke="transparent" points="651,-147.9 651,-168.9 749,-168.9 749,-147.9 651,-147.9"/>
<polygon fill="none" stroke="black" points="651,-147.9 651,-168.9 749,-168.9 749,-147.9 651,-147.9"/>
<text text-anchor="start" x="684" y="-154.7" font-family="Times,serif" font-size="14.00">type</text>
<polygon fill="#e0ffe0" stroke="transparent" points="749,-147.9 749,-168.9 816,-168.9 816,-147.9 749,-147.9"/>
<polygon fill="none" stroke="black" points="749,-147.9 749,-168.9 816,-168.9 816,-147.9 749,-147.9"/>
<text text-anchor="start" x="775.5" y="-154.7" font-family="Times,serif" font-size="14.00">id</text>
<polygon fill="none" stroke="black" points="586,-126.9 586,-147.9 617,-147.9 617,-126.9 586,-126.9"/>
<text text-anchor="start" x="596.5" y="-133.7" font-family="Times,serif" font-size="14.00">0</text>
<polygon fill="none" stroke="black" points="617,-126.9 617,-147.9 651,-147.9 651,-126.9 617,-126.9"/>
<text text-anchor="start" x="629" y="-133.7" font-family="Times,serif" font-size="14.00">1</text>
<polygon fill="none" stroke="black" points="651,-126.9 651,-147.9 749,-147.9 749,-126.9 651,-126.9"/>
<text text-anchor="start" x="661.5" y="-133.7" font-family="Times,serif" font-size="14.00">u1→Status</text>
<polygon fill="none" stroke="black" points="749,-126.9 749,-147.9 816,-147.9 816,-126.9 749,-126.9"/>
<text text-anchor="start" x="760" y="-133.7" font-family="Times,serif" font-size="14.00">status</text>
<polygon fill="none" stroke="black" points="586,-105.9 586,-126.9 617,-126.9 617,-105.9 586,-105.9"/>
<text text-anchor="start" x="596.5" y="-112.7" font-family="Times,serif" font-size="14.00">1</text>
<polygon fill="none" stroke="black" points="617,-105.9 617,-126.9 651,-126.9 651,-105.9 617,-105.9"/>
<text text-anchor="start" x="629" y="-112.7" font-family="Times,serif" font-size="14.00">1</text>
<polygon fill="none" stroke="black" points="651,-105.9 651,-126.9 749,-126.9 749,-105.9 651,-105.9"/>
<text text-anchor="start" x="690.5" y="-112.7" font-family="Times,serif" font-size="14.00">u1</text>
<polygon fill="none" stroke="black" points="749,-105.9 749,-126.9 816,-126.9 816,-105.9 749,-105.9"/>
<text text-anchor="start" x="752" y="-112.7" font-family="Times,serif" font-size="14.00">data_len</text>
<polygon fill="none" stroke="black" points="586,-84.9 586,-105.9 617,-105.9 617,-84.9 586,-84.9"/>
<text text-anchor="start" x="596.5" y="-91.7" font-family="Times,serif" font-size="14.00">2</text>
<polygon fill="none" stroke="black" points="617,-84.9 617,-105.9 651,-105.9 651,-84.9 617,-84.9"/>
<text text-anchor="start" x="627" y="-91.7" font-family="Times,serif" font-size="14.00">...</text>
<polygon fill="none" stroke="black" points="651,-84.9 651,-105.9 749,-105.9 749,-84.9 651,-84.9"/>
<text text-anchor="start" x="654" y="-91.7" font-family="Times,serif" font-size="14.00">switch (cmd)</text>
<polygon fill="none" stroke="black" points="749,-84.9 749,-105.9 816,-105.9 816,-84.9 749,-84.9"/>
<text text-anchor="start" x="766.5" y="-91.7" font-family="Times,serif" font-size="14.00">data</text>
</g>
<!-- packet__seq_body_switch&#45;&gt;response__seq -->
<g id="edge4" class="edge">
<title>packet__seq_body_switch:case2&#45;&gt;response__seq</title>
<path fill="none" stroke="black" stroke-width="2" d="M490,-244.9C504.53,-244.9 565.2,-210.11 617.62,-178.31"/>
<polygon fill="black" stroke="black" stroke-width="2" points="619.57,-181.22 626.29,-173.03 615.93,-175.24 619.57,-181.22"/>
</g>
<!-- write_req__seq&#45;&gt;write_req__seq -->
<g id="edge6" class="edge">
<title>write_req__seq:data_len_type&#45;&gt;write_req__seq:write_data_size</title>
<path fill="none" stroke="#404040" d="M793.68,-265.92C833.42,-290.63 818.15,-329.9 712.5,-329.9 612.93,-329.9 593.64,-281.37 625.01,-251.38"/>
<polygon fill="#404040" stroke="#404040" points="627.41,-253.94 632.98,-244.93 623.01,-248.5 627.41,-253.94"/>
</g>
<!-- response__seq_data_switch -->
<g id="node6" class="node">
<title>response__seq_data_switch</title>
<polygon fill="#f0f2e4" stroke="transparent" points="904.5,-147.9 904.5,-168.9 942.5,-168.9 942.5,-147.9 904.5,-147.9"/>
<polygon fill="none" stroke="black" points="904.5,-147.9 904.5,-168.9 942.5,-168.9 942.5,-147.9 904.5,-147.9"/>
<text text-anchor="start" x="907.5" y="-154.7" font-family="Times,serif" font-size="14.00">case</text>
<polygon fill="#f0f2e4" stroke="transparent" points="942.5,-147.9 942.5,-168.9 1037.5,-168.9 1037.5,-147.9 942.5,-147.9"/>
<polygon fill="none" stroke="black" points="942.5,-147.9 942.5,-168.9 1037.5,-168.9 1037.5,-147.9 942.5,-147.9"/>
<text text-anchor="start" x="974" y="-154.7" font-family="Times,serif" font-size="14.00">type</text>
<polygon fill="none" stroke="black" points="904.5,-126.9 904.5,-147.9 942.5,-147.9 942.5,-126.9 904.5,-126.9"/>
<text text-anchor="start" x="918.5" y="-133.7" font-family="Times,serif" font-size="14.00">3</text>
<polygon fill="none" stroke="black" points="942.5,-126.9 942.5,-147.9 1037.5,-147.9 1037.5,-126.9 942.5,-126.9"/>
<text text-anchor="start" x="956.5" y="-133.7" font-family="Times,serif" font-size="14.00">BasicInfo</text>
<polygon fill="none" stroke="black" points="904.5,-105.9 904.5,-126.9 942.5,-126.9 942.5,-105.9 904.5,-105.9"/>
<text text-anchor="start" x="918.5" y="-112.7" font-family="Times,serif" font-size="14.00">4</text>
<polygon fill="none" stroke="black" points="942.5,-105.9 942.5,-126.9 1037.5,-126.9 1037.5,-105.9 942.5,-105.9"/>
<text text-anchor="start" x="945.5" y="-112.7" font-family="Times,serif" font-size="14.00">CellVoltages</text>
<polygon fill="none" stroke="black" points="904.5,-84.9 904.5,-105.9 942.5,-105.9 942.5,-84.9 904.5,-84.9"/>
<text text-anchor="start" x="918.5" y="-91.7" font-family="Times,serif" font-size="14.00">5</text>
<polygon fill="none" stroke="black" points="942.5,-84.9 942.5,-105.9 1037.5,-105.9 1037.5,-84.9 942.5,-84.9"/>
<text text-anchor="start" x="954" y="-91.7" font-family="Times,serif" font-size="14.00">Hardware</text>
</g>
<!-- response__seq&#45;&gt;response__seq_data_switch -->
<g id="edge7" class="edge">
<title>response__seq:data_type&#45;&gt;response__seq_data_switch</title>
<path fill="none" stroke="black" stroke-width="2" d="M817,-94.9C839.52,-94.9 863.52,-98.29 885.66,-102.85"/>
<polygon fill="black" stroke="black" stroke-width="2" points="885.17,-106.33 895.69,-105.03 886.65,-99.49 885.17,-106.33"/>
</g>
<!-- basic_info__seq -->
<g id="node7" class="node">
<title>basic_info__seq</title>
<text text-anchor="middle" x="1190" y="-166.2" font-family="Times,serif" font-size="14.00">basic_info__seq</text>
</g>
<!-- response__seq_data_switch&#45;&gt;basic_info__seq -->
<g id="edge8" class="edge">
<title>response__seq_data_switch:case0&#45;&gt;basic_info__seq</title>
<path fill="none" stroke="black" stroke-width="2" d="M1038.5,-137.9C1066.09,-137.9 1095.92,-143.11 1121.68,-149.33"/>
<polygon fill="black" stroke="black" stroke-width="2" points="1121.16,-152.81 1131.72,-151.85 1122.87,-146.02 1121.16,-152.81"/>
</g>
<!-- cell_voltages__seq -->
<g id="node8" class="node">
<title>cell_voltages__seq</title>
<text text-anchor="middle" x="1190" y="-112.2" font-family="Times,serif" font-size="14.00">cell_voltages__seq</text>
</g>
<!-- response__seq_data_switch&#45;&gt;cell_voltages__seq -->
<g id="edge9" class="edge">
<title>response__seq_data_switch:case1&#45;&gt;cell_voltages__seq</title>
<path fill="none" stroke="black" stroke-width="2" d="M1038.5,-115.9C1060.59,-115.9 1084.51,-115.9 1106.63,-115.9"/>
<polygon fill="black" stroke="black" stroke-width="2" points="1106.66,-119.4 1116.66,-115.9 1106.66,-112.4 1106.66,-119.4"/>
</g>
<!-- hardware__seq -->
<g id="node9" class="node">
<title>hardware__seq</title>
<text text-anchor="middle" x="1190" y="-58.2" font-family="Times,serif" font-size="14.00">hardware__seq</text>
</g>
<!-- response__seq_data_switch&#45;&gt;hardware__seq -->
<g id="edge10" class="edge">
<title>response__seq_data_switch:case2&#45;&gt;hardware__seq</title>
<path fill="none" stroke="black" stroke-width="2" d="M1038.5,-94.9C1066.96,-94.9 1097.77,-89.2 1124.05,-82.54"/>
<polygon fill="black" stroke="black" stroke-width="2" points="1125.1,-85.88 1133.88,-79.95 1123.32,-79.11 1125.1,-85.88"/>
</g>
<!-- response__params -->
<g id="node10" class="node">
<title>response__params</title>
<text text-anchor="middle" x="432" y="-35.2" font-family="Times,serif" font-size="14.00">response__params</text>
</g>
<!-- response__params&#45;&gt;response__seq -->
<g id="edge11" class="edge">
<title>response__params:cmd_type&#45;&gt;response__seq:data_type</title>
<path fill="none" stroke="#404040" d="M500.48,-20.83C599.01,2.02 771.78,27.2 782.48,-73.74"/>
<polygon fill="#404040" stroke="#404040" points="778.99,-74.1 783,-83.9 785.98,-73.74 778.99,-74.1"/>
</g>
</g>
</svg>
