<?xml version="1.0" encoding="UTF-8" standalone="no"?>
<!DOCTYPE svg PUBLIC "-//W3C//DTD SVG 1.1//EN"
 "http://www.w3.org/Graphics/SVG/1.1/DTD/svg11.dtd">
<!-- Generated by graphviz version 2.42.3 (0)
 -->
<!-- Title: %3 Pages: 1 -->
<svg width="1166pt" height="1030pt"
 viewBox="0.00 0.00 1166.00 1030.00" xmlns="http://www.w3.org/2000/svg" xmlns:xlink="http://www.w3.org/1999/xlink">
<g id="graph0" class="graph" transform="scale(1 1) rotate(0) translate(4 1026)">
<title>%3</title>
<polygon fill="white" stroke="transparent" points="-4,4 -4,-1026 1162,-1026 1162,4 -4,4"/>
<g id="clust1" class="cluster">
<title>cluster__basic_info</title>
<polygon fill="none" stroke="black" stroke-dasharray="1,5" points="175,-8 175,-1014 1150,-1014 1150,-8 175,-8"/>
<text text-anchor="middle" x="662.5" y="-998.8" font-family="Times,serif" font-size="14.00">BasicInfo</text>
</g>
<g id="clust2" class="cluster">
<title>cluster__fet_bits</title>
<polygon fill="none" stroke="black" stroke-dasharray="1,5" points="583,-113 583,-224 837,-224 837,-113 583,-113"/>
<text text-anchor="middle" x="710" y="-208.8" font-family="Times,serif" font-size="14.00">BasicInfo::FetBits</text>
</g>
<g id="clust3" class="cluster">
<title>cluster__prot_list</title>
<polygon fill="none" stroke="black" stroke-dasharray="1,5" points="568,-232 568,-573 852,-573 852,-232 568,-232"/>
<text text-anchor="middle" x="710" y="-557.8" font-family="Times,serif" font-size="14.00">BasicInfo::ProtList</text>
</g>
<g id="clust4" class="cluster">
<title>cluster__temp</title>
<polygon fill="none" stroke="black" stroke-dasharray="1,5" points="623.5,-16 623.5,-105 1142,-105 1142,-16 623.5,-16"/>
<text text-anchor="middle" x="882.75" y="-89.8" font-family="Times,serif" font-size="14.00">BasicInfo::Temp</text>
</g>
<g id="clust5" class="cluster">
<title>cluster__current</title>
<polygon fill="none" stroke="black" stroke-dasharray="1,5" points="623.5,-797 623.5,-886 1105,-886 1105,-797 623.5,-797"/>
<text text-anchor="middle" x="864.25" y="-870.8" font-family="Times,serif" font-size="14.00">BasicInfo::Current</text>
</g>
<g id="clust6" class="cluster">
<title>cluster__voltage</title>
<polygon fill="none" stroke="black" stroke-dasharray="1,5" points="623.5,-894 623.5,-983 1103.5,-983 1103.5,-894 623.5,-894"/>
<text text-anchor="middle" x="863.5" y="-967.8" font-family="Times,serif" font-size="14.00">BasicInfo::Voltage</text>
</g>
<g id="clust7" class="cluster">
<title>cluster__balance_list</title>
<polygon fill="none" stroke="black" stroke-dasharray="1,5" points="605.5,-581 605.5,-692 814.5,-692 814.5,-581 605.5,-581"/>
<text text-anchor="middle" x="710" y="-676.8" font-family="Times,serif" font-size="14.00">BasicInfo::BalanceList</text>
</g>
<g id="clust8" class="cluster">
<title>cluster__capacity</title>
<polygon fill="none" stroke="black" stroke-dasharray="1,5" points="623.5,-700 623.5,-789 1125,-789 1125,-700 623.5,-700"/>
<text text-anchor="middle" x="874.25" y="-773.8" font-family="Times,serif" font-size="14.00">BasicInfo::Capacity</text>
</g>
<!-- basic_info__seq -->
<g id="node1" class="node">
<title>basic_info__seq</title>
<polygon fill="#e0ffe0" stroke="transparent" points="191.5,-773 191.5,-794 222.5,-794 222.5,-773 191.5,-773"/>
<polygon fill="none" stroke="black" points="191.5,-773 191.5,-794 222.5,-794 222.5,-773 191.5,-773"/>
<text text-anchor="start" x="194.5" y="-779.8" font-family="Times,serif" font-size="14.00">pos</text>
<polygon fill="#e0ffe0" stroke="transparent" points="222.5,-773 222.5,-794 256.5,-794 256.5,-773 222.5,-773"/>
<polygon fill="none" stroke="black" points="222.5,-773 222.5,-794 256.5,-794 256.5,-773 222.5,-773"/>
<text text-anchor="start" x="225.5" y="-779.8" font-family="Times,serif" font-size="14.00">size</text>
<polygon fill="#e0ffe0" stroke="transparent" points="256.5,-773 256.5,-794 346.5,-794 346.5,-773 256.5,-773"/>
<polygon fill="none" stroke="black" points="256.5,-773 256.5,-794 346.5,-794 346.5,-773 256.5,-773"/>
<text text-anchor="start" x="285.5" y="-779.8" font-family="Times,serif" font-size="14.00">type</text>
<polygon fill="#e0ffe0" stroke="transparent" points="346.5,-773 346.5,-794 496.5,-794 496.5,-773 346.5,-773"/>
<polygon fill="none" stroke="black" points="346.5,-773 346.5,-794 496.5,-794 496.5,-773 346.5,-773"/>
<text text-anchor="start" x="414.5" y="-779.8" font-family="Times,serif" font-size="14.00">id</text>
<polygon fill="none" stroke="black" points="191.5,-752 191.5,-773 222.5,-773 222.5,-752 191.5,-752"/>
<text text-anchor="start" x="202" y="-758.8" font-family="Times,serif" font-size="14.00">0</text>
<polygon fill="none" stroke="black" points="222.5,-752 222.5,-773 256.5,-773 256.5,-752 222.5,-752"/>
<text text-anchor="start" x="234.5" y="-758.8" font-family="Times,serif" font-size="14.00">2</text>
<polygon fill="none" stroke="black" points="256.5,-752 256.5,-773 346.5,-773 346.5,-752 256.5,-752"/>
<text text-anchor="start" x="274.5" y="-758.8" font-family="Times,serif" font-size="14.00">Voltage</text>
<polygon fill="none" stroke="black" points="346.5,-752 346.5,-773 496.5,-773 496.5,-752 346.5,-752"/>
<text text-anchor="start" x="404.5" y="-758.8" font-family="Times,serif" font-size="14.00">total</text>
<polygon fill="none" stroke="black" points="191.5,-731 191.5,-752 222.5,-752 222.5,-731 191.5,-731"/>
<text text-anchor="start" x="202" y="-737.8" font-family="Times,serif" font-size="14.00">2</text>
<polygon fill="none" stroke="black" points="222.5,-731 222.5,-752 256.5,-752 256.5,-731 222.5,-731"/>
<text text-anchor="start" x="234.5" y="-737.8" font-family="Times,serif" font-size="14.00">2</text>
<polygon fill="none" stroke="black" points="256.5,-731 256.5,-752 346.5,-752 346.5,-731 256.5,-731"/>
<text text-anchor="start" x="273" y="-737.8" font-family="Times,serif" font-size="14.00">Current</text>
<polygon fill="none" stroke="black" points="346.5,-731 346.5,-752 496.5,-752 496.5,-731 346.5,-731"/>
<text text-anchor="start" x="394.5" y="-737.8" font-family="Times,serif" font-size="14.00">current</text>
<polygon fill="none" stroke="black" points="191.5,-710 191.5,-731 222.5,-731 222.5,-710 191.5,-710"/>
<text text-anchor="start" x="202" y="-716.8" font-family="Times,serif" font-size="14.00">4</text>
<polygon fill="none" stroke="black" points="222.5,-710 222.5,-731 256.5,-731 256.5,-710 222.5,-710"/>
<text text-anchor="start" x="234.5" y="-716.8" font-family="Times,serif" font-size="14.00">2</text>
<polygon fill="none" stroke="black" points="256.5,-710 256.5,-731 346.5,-731 346.5,-710 256.5,-710"/>
<text text-anchor="start" x="270" y="-716.8" font-family="Times,serif" font-size="14.00">Capacity</text>
<polygon fill="none" stroke="black" points="346.5,-710 346.5,-731 496.5,-731 496.5,-710 346.5,-710"/>
<text text-anchor="start" x="380.5" y="-716.8" font-family="Times,serif" font-size="14.00">remain_cap</text>
<polygon fill="none" stroke="black" points="191.5,-689 191.5,-710 222.5,-710 222.5,-689 191.5,-689"/>
<text text-anchor="start" x="202" y="-695.8" font-family="Times,serif" font-size="14.00">6</text>
<polygon fill="none" stroke="black" points="222.5,-689 222.5,-710 256.5,-710 256.5,-689 222.5,-689"/>
<text text-anchor="start" x="234.5" y="-695.8" font-family="Times,serif" font-size="14.00">2</text>
<polygon fill="none" stroke="black" points="256.5,-689 256.5,-710 346.5,-710 346.5,-689 256.5,-689"/>
<text text-anchor="start" x="270" y="-695.8" font-family="Times,serif" font-size="14.00">Capacity</text>
<polygon fill="none" stroke="black" points="346.5,-689 346.5,-710 496.5,-710 496.5,-689 346.5,-689"/>
<text text-anchor="start" x="394" y="-695.8" font-family="Times,serif" font-size="14.00">typ_cap</text>
<polygon fill="none" stroke="black" points="191.5,-668 191.5,-689 222.5,-689 222.5,-668 191.5,-668"/>
<text text-anchor="start" x="202" y="-674.8" font-family="Times,serif" font-size="14.00">8</text>
<polygon fill="none" stroke="black" points="222.5,-668 222.5,-689 256.5,-689 256.5,-668 222.5,-668"/>
<text text-anchor="start" x="234.5" y="-674.8" font-family="Times,serif" font-size="14.00">2</text>
<polygon fill="none" stroke="black" points="256.5,-668 256.5,-689 346.5,-689 346.5,-668 256.5,-668"/>
<text text-anchor="start" x="283.5" y="-674.8" font-family="Times,serif" font-size="14.00">u2be</text>
<polygon fill="none" stroke="black" points="346.5,-668 346.5,-689 496.5,-689 496.5,-668 346.5,-668"/>
<text text-anchor="start" x="399.5" y="-674.8" font-family="Times,serif" font-size="14.00">cycles</text>
<polygon fill="none" stroke="black" points="191.5,-647 191.5,-668 222.5,-668 222.5,-647 191.5,-647"/>
<text text-anchor="start" x="197.5" y="-653.8" font-family="Times,serif" font-size="14.00">10</text>
<polygon fill="none" stroke="black" points="222.5,-647 222.5,-668 256.5,-668 256.5,-647 222.5,-647"/>
<text text-anchor="start" x="234.5" y="-653.8" font-family="Times,serif" font-size="14.00">2</text>
<polygon fill="none" stroke="black" points="256.5,-647 256.5,-668 346.5,-668 346.5,-647 256.5,-647"/>
<text text-anchor="start" x="283.5" y="-653.8" font-family="Times,serif" font-size="14.00">u2be</text>
<polygon fill="none" stroke="black" points="346.5,-647 346.5,-668 496.5,-668 496.5,-647 346.5,-647"/>
<text text-anchor="start" x="385.5" y="-653.8" font-family="Times,serif" font-size="14.00">prod_date</text>
<polygon fill="none" stroke="black" points="191.5,-626 191.5,-647 222.5,-647 222.5,-626 191.5,-626"/>
<text text-anchor="start" x="197.5" y="-632.8" font-family="Times,serif" font-size="14.00">12</text>
<polygon fill="none" stroke="black" points="222.5,-626 222.5,-647 256.5,-647 256.5,-626 222.5,-626"/>
<text text-anchor="start" x="234.5" y="-632.8" font-family="Times,serif" font-size="14.00">4</text>
<polygon fill="none" stroke="black" points="256.5,-626 256.5,-647 346.5,-647 346.5,-626 256.5,-626"/>
<text text-anchor="start" x="259.5" y="-632.8" font-family="Times,serif" font-size="14.00">BalanceList</text>
<polygon fill="none" stroke="black" points="346.5,-626 346.5,-647 496.5,-647 496.5,-626 346.5,-626"/>
<text text-anchor="start" x="368.5" y="-632.8" font-family="Times,serif" font-size="14.00">balance_status</text>
<polygon fill="none" stroke="black" points="191.5,-605 191.5,-626 222.5,-626 222.5,-605 191.5,-605"/>
<text text-anchor="start" x="197.5" y="-611.8" font-family="Times,serif" font-size="14.00">16</text>
<polygon fill="none" stroke="black" points="222.5,-605 222.5,-626 256.5,-626 256.5,-605 222.5,-605"/>
<text text-anchor="start" x="234.5" y="-611.8" font-family="Times,serif" font-size="14.00">2</text>
<polygon fill="none" stroke="black" points="256.5,-605 256.5,-626 346.5,-626 346.5,-605 256.5,-605"/>
<text text-anchor="start" x="272.5" y="-611.8" font-family="Times,serif" font-size="14.00">ProtList</text>
<polygon fill="none" stroke="black" points="346.5,-605 346.5,-626 496.5,-626 496.5,-605 346.5,-605"/>
<text text-anchor="start" x="380.5" y="-611.8" font-family="Times,serif" font-size="14.00">prot_status</text>
<polygon fill="none" stroke="black" points="191.5,-584 191.5,-605 222.5,-605 222.5,-584 191.5,-584"/>
<text text-anchor="start" x="197.5" y="-590.8" font-family="Times,serif" font-size="14.00">18</text>
<polygon fill="none" stroke="black" points="222.5,-584 222.5,-605 256.5,-605 256.5,-584 222.5,-584"/>
<text text-anchor="start" x="234.5" y="-590.8" font-family="Times,serif" font-size="14.00">1</text>
<polygon fill="none" stroke="black" points="256.5,-584 256.5,-605 346.5,-605 346.5,-584 256.5,-584"/>
<text text-anchor="start" x="292" y="-590.8" font-family="Times,serif" font-size="14.00">u1</text>
<polygon fill="none" stroke="black" points="346.5,-584 346.5,-605 496.5,-605 496.5,-584 346.5,-584"/>
<text text-anchor="start" x="360.5" y="-590.8" font-family="Times,serif" font-size="14.00">software_version</text>
<polygon fill="none" stroke="black" points="191.5,-563 191.5,-584 222.5,-584 222.5,-563 191.5,-563"/>
<text text-anchor="start" x="197.5" y="-569.8" font-family="Times,serif" font-size="14.00">19</text>
<polygon fill="none" stroke="black" points="222.5,-563 222.5,-584 256.5,-584 256.5,-563 222.5,-563"/>
<text text-anchor="start" x="234.5" y="-569.8" font-family="Times,serif" font-size="14.00">1</text>
<polygon fill="none" stroke="black" points="256.5,-563 256.5,-584 346.5,-584 346.5,-563 256.5,-563"/>
<text text-anchor="start" x="292" y="-569.8" font-family="Times,serif" font-size="14.00">u1</text>
<polygon fill="none" stroke="black" points="346.5,-563 346.5,-584 496.5,-584 496.5,-563 346.5,-563"/>
<text text-anchor="start" x="349.5" y="-569.8" font-family="Times,serif" font-size="14.00">remain_cap_percent</text>
<polygon fill="none" stroke="black" points="191.5,-542 191.5,-563 222.5,-563 222.5,-542 191.5,-542"/>
<text text-anchor="start" x="197.5" y="-548.8" font-family="Times,serif" font-size="14.00">20</text>
<polygon fill="none" stroke="black" points="222.5,-542 222.5,-563 256.5,-563 256.5,-542 222.5,-542"/>
<text text-anchor="start" x="234.5" y="-548.8" font-family="Times,serif" font-size="14.00">1</text>
<polygon fill="none" stroke="black" points="256.5,-542 256.5,-563 346.5,-563 346.5,-542 256.5,-542"/>
<text text-anchor="start" x="275.5" y="-548.8" font-family="Times,serif" font-size="14.00">FetBits</text>
<polygon fill="none" stroke="black" points="346.5,-542 346.5,-563 496.5,-563 496.5,-542 346.5,-542"/>
<text text-anchor="start" x="386" y="-548.8" font-family="Times,serif" font-size="14.00">fet_status</text>
<polygon fill="none" stroke="black" points="191.5,-521 191.5,-542 222.5,-542 222.5,-521 191.5,-521"/>
<text text-anchor="start" x="197.5" y="-527.8" font-family="Times,serif" font-size="14.00">21</text>
<polygon fill="none" stroke="black" points="222.5,-521 222.5,-542 256.5,-542 256.5,-521 222.5,-521"/>
<text text-anchor="start" x="234.5" y="-527.8" font-family="Times,serif" font-size="14.00">1</text>
<polygon fill="none" stroke="black" points="256.5,-521 256.5,-542 346.5,-542 346.5,-521 256.5,-521"/>
<text text-anchor="start" x="292" y="-527.8" font-family="Times,serif" font-size="14.00">u1</text>
<polygon fill="none" stroke="black" points="346.5,-521 346.5,-542 496.5,-542 496.5,-521 346.5,-521"/>
<text text-anchor="start" x="385.5" y="-527.8" font-family="Times,serif" font-size="14.00">cell_count</text>
<polygon fill="none" stroke="black" points="191.5,-500 191.5,-521 222.5,-521 222.5,-500 191.5,-500"/>
<text text-anchor="start" x="197.5" y="-506.8" font-family="Times,serif" font-size="14.00">22</text>
<polygon fill="none" stroke="black" points="222.5,-500 222.5,-521 256.5,-521 256.5,-500 222.5,-500"/>
<text text-anchor="start" x="234.5" y="-506.8" font-family="Times,serif" font-size="14.00">1</text>
<polygon fill="none" stroke="black" points="256.5,-500 256.5,-521 346.5,-521 346.5,-500 256.5,-500"/>
<text text-anchor="start" x="292" y="-506.8" font-family="Times,serif" font-size="14.00">u1</text>
<polygon fill="none" stroke="black" points="346.5,-500 346.5,-521 496.5,-521 496.5,-500 346.5,-500"/>
<text text-anchor="start" x="386.5" y="-506.8" font-family="Times,serif" font-size="14.00">ntc_count</text>
<polygon fill="none" stroke="black" points="191.5,-479 191.5,-500 222.5,-500 222.5,-479 191.5,-479"/>
<text text-anchor="start" x="197.5" y="-485.8" font-family="Times,serif" font-size="14.00">23</text>
<polygon fill="none" stroke="black" points="222.5,-479 222.5,-500 256.5,-500 256.5,-479 222.5,-479"/>
<text text-anchor="start" x="234.5" y="-485.8" font-family="Times,serif" font-size="14.00">2</text>
<polygon fill="none" stroke="black" points="256.5,-479 256.5,-500 346.5,-500 346.5,-479 256.5,-479"/>
<text text-anchor="start" x="281.5" y="-485.8" font-family="Times,serif" font-size="14.00">Temp</text>
<polygon fill="none" stroke="black" points="346.5,-479 346.5,-500 496.5,-500 496.5,-479 346.5,-479"/>
<text text-anchor="start" x="399" y="-485.8" font-family="Times,serif" font-size="14.00">temps</text>
<polygon fill="none" stroke="black" points="191.5,-458 191.5,-479 496.5,-479 496.5,-458 191.5,-458"/>
<text text-anchor="start" x="261.5" y="-464.8" font-family="Times,serif" font-size="14.00">repeat ntc_count times</text>
</g>
<!-- basic_info__seq&#45;&gt;basic_info__seq -->
<g id="edge9" class="edge">
<title>basic_info__seq:ntc_count_type&#45;&gt;basic_info__seq:temps__repeat</title>
<path fill="none" stroke="#404040" d="M346.48,-513.78C209.05,-518.08 0,-513.76 0,-489 0,-470.51 87.34,-463.42 181.17,-462.8"/>
<polygon fill="#404040" stroke="#404040" points="181.46,-466.3 191.44,-462.76 181.43,-459.3 181.46,-466.3"/>
</g>
<!-- fet_bits__seq -->
<g id="node2" class="node">
<title>fet_bits__seq</title>
<polygon fill="#e0ffe0" stroke="transparent" points="599,-167 599,-188 630,-188 630,-167 599,-167"/>
<polygon fill="none" stroke="black" points="599,-167 599,-188 630,-188 630,-167 599,-167"/>
<text text-anchor="start" x="602" y="-173.8" font-family="Times,serif" font-size="14.00">pos</text>
<polygon fill="#e0ffe0" stroke="transparent" points="630,-167 630,-188 664,-188 664,-167 630,-167"/>
<polygon fill="none" stroke="black" points="630,-167 630,-188 664,-188 664,-167 630,-167"/>
<text text-anchor="start" x="633" y="-173.8" font-family="Times,serif" font-size="14.00">size</text>
<polygon fill="#e0ffe0" stroke="transparent" points="664,-167 664,-188 745,-188 745,-167 664,-167"/>
<polygon fill="none" stroke="black" points="664,-167 664,-188 745,-188 745,-167 664,-167"/>
<text text-anchor="start" x="688.5" y="-173.8" font-family="Times,serif" font-size="14.00">type</text>
<polygon fill="#e0ffe0" stroke="transparent" points="745,-167 745,-188 821,-188 821,-167 745,-167"/>
<polygon fill="none" stroke="black" points="745,-167 745,-188 821,-188 821,-167 745,-167"/>
<text text-anchor="start" x="776" y="-173.8" font-family="Times,serif" font-size="14.00">id</text>
<polygon fill="none" stroke="black" points="599,-146 599,-167 630,-167 630,-146 599,-146"/>
<text text-anchor="start" x="609.5" y="-152.8" font-family="Times,serif" font-size="14.00">0</text>
<polygon fill="none" stroke="black" points="630,-146 630,-167 664,-167 664,-146 630,-146"/>
<text text-anchor="start" x="637.5" y="-152.8" font-family="Times,serif" font-size="14.00">1b</text>
<polygon fill="none" stroke="black" points="664,-146 664,-167 745,-167 745,-146 664,-146"/>
<text text-anchor="start" x="667" y="-152.8" font-family="Times,serif" font-size="14.00">b1→FetBit</text>
<polygon fill="none" stroke="black" points="745,-146 745,-167 821,-167 821,-146 745,-146"/>
<text text-anchor="start" x="758.5" y="-152.8" font-family="Times,serif" font-size="14.00">charge</text>
<polygon fill="none" stroke="black" points="599,-125 599,-146 630,-146 630,-125 599,-125"/>
<text text-anchor="start" x="603" y="-131.8" font-family="Times,serif" font-size="14.00">0:1</text>
<polygon fill="none" stroke="black" points="630,-125 630,-146 664,-146 664,-125 630,-125"/>
<text text-anchor="start" x="637.5" y="-131.8" font-family="Times,serif" font-size="14.00">1b</text>
<polygon fill="none" stroke="black" points="664,-125 664,-146 745,-146 745,-125 664,-125"/>
<text text-anchor="start" x="667" y="-131.8" font-family="Times,serif" font-size="14.00">b1→FetBit</text>
<polygon fill="none" stroke="black" points="745,-125 745,-146 821,-146 821,-125 745,-125"/>
<text text-anchor="start" x="748" y="-131.8" font-family="Times,serif" font-size="14.00">discharge</text>
</g>
<!-- basic_info__seq&#45;&gt;fet_bits__seq -->
<g id="edge7" class="edge">
<title>basic_info__seq:fet_status_type&#45;&gt;fet_bits__seq</title>
<path fill="none" stroke="black" stroke-width="2" d="M497.5,-552C644.87,-552 477.73,-344.49 568,-228 577,-216.38 588.42,-206.52 600.85,-198.18"/>
<polygon fill="black" stroke="black" stroke-width="2" points="603.01,-200.95 609.59,-192.65 599.27,-195.03 603.01,-200.95"/>
</g>
<!-- prot_list__seq -->
<g id="node3" class="node">
<title>prot_list__seq</title>
<polygon fill="#e0ffe0" stroke="transparent" points="584,-517 584,-538 615,-538 615,-517 584,-517"/>
<polygon fill="none" stroke="black" points="584,-517 584,-538 615,-538 615,-517 584,-517"/>
<text text-anchor="start" x="587" y="-523.8" font-family="Times,serif" font-size="14.00">pos</text>
<polygon fill="#e0ffe0" stroke="transparent" points="615,-517 615,-538 649,-538 649,-517 615,-517"/>
<polygon fill="none" stroke="black" points="615,-517 615,-538 649,-538 649,-517 615,-517"/>
<text text-anchor="start" x="618" y="-523.8" font-family="Times,serif" font-size="14.00">size</text>
<polygon fill="#e0ffe0" stroke="transparent" points="649,-517 649,-538 728,-538 728,-517 649,-517"/>
<polygon fill="none" stroke="black" points="649,-517 649,-538 728,-538 728,-517 649,-517"/>
<text text-anchor="start" x="672.5" y="-523.8" font-family="Times,serif" font-size="14.00">type</text>
<polygon fill="#e0ffe0" stroke="transparent" points="728,-517 728,-538 836,-538 836,-517 728,-517"/>
<polygon fill="none" stroke="black" points="728,-517 728,-538 836,-538 836,-517 728,-517"/>
<text text-anchor="start" x="775" y="-523.8" font-family="Times,serif" font-size="14.00">id</text>
<polygon fill="none" stroke="black" points="584,-496 584,-517 615,-517 615,-496 584,-496"/>
<text text-anchor="start" x="594.5" y="-502.8" font-family="Times,serif" font-size="14.00">0</text>
<polygon fill="none" stroke="black" points="615,-496 615,-517 649,-517 649,-496 615,-496"/>
<text text-anchor="start" x="622.5" y="-502.8" font-family="Times,serif" font-size="14.00">1b</text>
<polygon fill="none" stroke="black" points="649,-496 649,-517 728,-517 728,-496 649,-496"/>
<text text-anchor="start" x="652" y="-502.8" font-family="Times,serif" font-size="14.00">BitsType1</text>
<polygon fill="none" stroke="black" points="728,-496 728,-517 836,-517 836,-496 728,-496"/>
<text text-anchor="start" x="753" y="-502.8" font-family="Times,serif" font-size="14.00">ovp_cell</text>
<polygon fill="none" stroke="black" points="584,-475 584,-496 615,-496 615,-475 584,-475"/>
<text text-anchor="start" x="588" y="-481.8" font-family="Times,serif" font-size="14.00">0:1</text>
<polygon fill="none" stroke="black" points="615,-475 615,-496 649,-496 649,-475 615,-475"/>
<text text-anchor="start" x="622.5" y="-481.8" font-family="Times,serif" font-size="14.00">1b</text>
<polygon fill="none" stroke="black" points="649,-475 649,-496 728,-496 728,-475 649,-475"/>
<text text-anchor="start" x="652" y="-481.8" font-family="Times,serif" font-size="14.00">BitsType1</text>
<polygon fill="none" stroke="black" points="728,-475 728,-496 836,-496 836,-475 728,-475"/>
<text text-anchor="start" x="753" y="-481.8" font-family="Times,serif" font-size="14.00">uvp_cell</text>
<polygon fill="none" stroke="black" points="584,-454 584,-475 615,-475 615,-454 584,-454"/>
<text text-anchor="start" x="588" y="-460.8" font-family="Times,serif" font-size="14.00">0:2</text>
<polygon fill="none" stroke="black" points="615,-454 615,-475 649,-475 649,-454 615,-454"/>
<text text-anchor="start" x="622.5" y="-460.8" font-family="Times,serif" font-size="14.00">1b</text>
<polygon fill="none" stroke="black" points="649,-454 649,-475 728,-475 728,-454 649,-454"/>
<text text-anchor="start" x="652" y="-460.8" font-family="Times,serif" font-size="14.00">BitsType1</text>
<polygon fill="none" stroke="black" points="728,-454 728,-475 836,-475 836,-454 728,-454"/>
<text text-anchor="start" x="749" y="-460.8" font-family="Times,serif" font-size="14.00">ovp_pack</text>
<polygon fill="none" stroke="black" points="584,-433 584,-454 615,-454 615,-433 584,-433"/>
<text text-anchor="start" x="588" y="-439.8" font-family="Times,serif" font-size="14.00">0:3</text>
<polygon fill="none" stroke="black" points="615,-433 615,-454 649,-454 649,-433 615,-433"/>
<text text-anchor="start" x="622.5" y="-439.8" font-family="Times,serif" font-size="14.00">1b</text>
<polygon fill="none" stroke="black" points="649,-433 649,-454 728,-454 728,-433 649,-433"/>
<text text-anchor="start" x="652" y="-439.8" font-family="Times,serif" font-size="14.00">BitsType1</text>
<polygon fill="none" stroke="black" points="728,-433 728,-454 836,-454 836,-433 728,-433"/>
<text text-anchor="start" x="748.5" y="-439.8" font-family="Times,serif" font-size="14.00">uvp_pack</text>
<polygon fill="none" stroke="black" points="584,-412 584,-433 615,-433 615,-412 584,-412"/>
<text text-anchor="start" x="588" y="-418.8" font-family="Times,serif" font-size="14.00">0:4</text>
<polygon fill="none" stroke="black" points="615,-412 615,-433 649,-433 649,-412 615,-412"/>
<text text-anchor="start" x="622.5" y="-418.8" font-family="Times,serif" font-size="14.00">1b</text>
<polygon fill="none" stroke="black" points="649,-412 649,-433 728,-433 728,-412 649,-412"/>
<text text-anchor="start" x="652" y="-418.8" font-family="Times,serif" font-size="14.00">BitsType1</text>
<polygon fill="none" stroke="black" points="728,-412 728,-433 836,-433 836,-412 728,-412"/>
<text text-anchor="start" x="742.5" y="-418.8" font-family="Times,serif" font-size="14.00">otp_charge</text>
<polygon fill="none" stroke="black" points="584,-391 584,-412 615,-412 615,-391 584,-391"/>
<text text-anchor="start" x="588" y="-397.8" font-family="Times,serif" font-size="14.00">0:5</text>
<polygon fill="none" stroke="black" points="615,-391 615,-412 649,-412 649,-391 615,-391"/>
<text text-anchor="start" x="622.5" y="-397.8" font-family="Times,serif" font-size="14.00">1b</text>
<polygon fill="none" stroke="black" points="649,-391 649,-412 728,-412 728,-391 649,-391"/>
<text text-anchor="start" x="652" y="-397.8" font-family="Times,serif" font-size="14.00">BitsType1</text>
<polygon fill="none" stroke="black" points="728,-391 728,-412 836,-412 836,-391 728,-391"/>
<text text-anchor="start" x="742" y="-397.8" font-family="Times,serif" font-size="14.00">utp_charge</text>
<polygon fill="none" stroke="black" points="584,-370 584,-391 615,-391 615,-370 584,-370"/>
<text text-anchor="start" x="588" y="-376.8" font-family="Times,serif" font-size="14.00">0:6</text>
<polygon fill="none" stroke="black" points="615,-370 615,-391 649,-391 649,-370 615,-370"/>
<text text-anchor="start" x="622.5" y="-376.8" font-family="Times,serif" font-size="14.00">1b</text>
<polygon fill="none" stroke="black" points="649,-370 649,-391 728,-391 728,-370 649,-370"/>
<text text-anchor="start" x="652" y="-376.8" font-family="Times,serif" font-size="14.00">BitsType1</text>
<polygon fill="none" stroke="black" points="728,-370 728,-391 836,-391 836,-370 728,-370"/>
<text text-anchor="start" x="732" y="-376.8" font-family="Times,serif" font-size="14.00">otp_discharge</text>
<polygon fill="none" stroke="black" points="584,-349 584,-370 615,-370 615,-349 584,-349"/>
<text text-anchor="start" x="588" y="-355.8" font-family="Times,serif" font-size="14.00">0:7</text>
<polygon fill="none" stroke="black" points="615,-349 615,-370 649,-370 649,-349 615,-349"/>
<text text-anchor="start" x="622.5" y="-355.8" font-family="Times,serif" font-size="14.00">1b</text>
<polygon fill="none" stroke="black" points="649,-349 649,-370 728,-370 728,-349 649,-349"/>
<text text-anchor="start" x="652" y="-355.8" font-family="Times,serif" font-size="14.00">BitsType1</text>
<polygon fill="none" stroke="black" points="728,-349 728,-370 836,-370 836,-349 728,-349"/>
<text text-anchor="start" x="731.5" y="-355.8" font-family="Times,serif" font-size="14.00">utp_discharge</text>
<polygon fill="none" stroke="black" points="584,-328 584,-349 615,-349 615,-328 584,-328"/>
<text text-anchor="start" x="594.5" y="-334.8" font-family="Times,serif" font-size="14.00">1</text>
<polygon fill="none" stroke="black" points="615,-328 615,-349 649,-349 649,-328 615,-328"/>
<text text-anchor="start" x="622.5" y="-334.8" font-family="Times,serif" font-size="14.00">1b</text>
<polygon fill="none" stroke="black" points="649,-328 649,-349 728,-349 728,-328 649,-328"/>
<text text-anchor="start" x="652" y="-334.8" font-family="Times,serif" font-size="14.00">BitsType1</text>
<polygon fill="none" stroke="black" points="728,-328 728,-349 836,-349 836,-328 728,-328"/>
<text text-anchor="start" x="741.5" y="-334.8" font-family="Times,serif" font-size="14.00">ocp_charge</text>
<polygon fill="none" stroke="black" points="584,-307 584,-328 615,-328 615,-307 584,-307"/>
<text text-anchor="start" x="588" y="-313.8" font-family="Times,serif" font-size="14.00">1:1</text>
<polygon fill="none" stroke="black" points="615,-307 615,-328 649,-328 649,-307 615,-307"/>
<text text-anchor="start" x="622.5" y="-313.8" font-family="Times,serif" font-size="14.00">1b</text>
<polygon fill="none" stroke="black" points="649,-307 649,-328 728,-328 728,-307 649,-307"/>
<text text-anchor="start" x="652" y="-313.8" font-family="Times,serif" font-size="14.00">BitsType1</text>
<polygon fill="none" stroke="black" points="728,-307 728,-328 836,-328 836,-307 728,-307"/>
<text text-anchor="start" x="731" y="-313.8" font-family="Times,serif" font-size="14.00">ocp_discharge</text>
<polygon fill="none" stroke="black" points="584,-286 584,-307 615,-307 615,-286 584,-286"/>
<text text-anchor="start" x="588" y="-292.8" font-family="Times,serif" font-size="14.00">1:2</text>
<polygon fill="none" stroke="black" points="615,-286 615,-307 649,-307 649,-286 615,-286"/>
<text text-anchor="start" x="622.5" y="-292.8" font-family="Times,serif" font-size="14.00">1b</text>
<polygon fill="none" stroke="black" points="649,-286 649,-307 728,-307 728,-286 649,-286"/>
<text text-anchor="start" x="652" y="-292.8" font-family="Times,serif" font-size="14.00">BitsType1</text>
<polygon fill="none" stroke="black" points="728,-286 728,-307 836,-307 836,-286 728,-286"/>
<text text-anchor="start" x="747" y="-292.8" font-family="Times,serif" font-size="14.00">ocp_short</text>
<polygon fill="none" stroke="black" points="584,-265 584,-286 615,-286 615,-265 584,-265"/>
<text text-anchor="start" x="588" y="-271.8" font-family="Times,serif" font-size="14.00">1:3</text>
<polygon fill="none" stroke="black" points="615,-265 615,-286 649,-286 649,-265 615,-265"/>
<text text-anchor="start" x="622.5" y="-271.8" font-family="Times,serif" font-size="14.00">1b</text>
<polygon fill="none" stroke="black" points="649,-265 649,-286 728,-286 728,-265 649,-265"/>
<text text-anchor="start" x="652" y="-271.8" font-family="Times,serif" font-size="14.00">BitsType1</text>
<polygon fill="none" stroke="black" points="728,-265 728,-286 836,-286 836,-265 728,-265"/>
<text text-anchor="start" x="754" y="-271.8" font-family="Times,serif" font-size="14.00">ic_error</text>
<polygon fill="none" stroke="black" points="584,-244 584,-265 615,-265 615,-244 584,-244"/>
<text text-anchor="start" x="588" y="-250.8" font-family="Times,serif" font-size="14.00">1:4</text>
<polygon fill="none" stroke="black" points="615,-244 615,-265 649,-265 649,-244 615,-244"/>
<text text-anchor="start" x="622.5" y="-250.8" font-family="Times,serif" font-size="14.00">1b</text>
<polygon fill="none" stroke="black" points="649,-244 649,-265 728,-265 728,-244 649,-244"/>
<text text-anchor="start" x="652" y="-250.8" font-family="Times,serif" font-size="14.00">BitsType1</text>
<polygon fill="none" stroke="black" points="728,-244 728,-265 836,-265 836,-244 728,-244"/>
<text text-anchor="start" x="754.5" y="-250.8" font-family="Times,serif" font-size="14.00">fet_lock</text>
</g>
<!-- basic_info__seq&#45;&gt;prot_list__seq -->
<g id="edge6" class="edge">
<title>basic_info__seq:prot_status_type&#45;&gt;prot_list__seq</title>
<path fill="none" stroke="black" stroke-width="2" d="M497.5,-615C521.94,-615 555.9,-586.44 589.45,-549.72"/>
<polygon fill="black" stroke="black" stroke-width="2" points="592.06,-552.05 596.15,-542.27 586.86,-547.37 592.06,-552.05"/>
</g>
<!-- temp__seq -->
<g id="node4" class="node">
<title>temp__seq</title>
<polygon fill="#e0ffe0" stroke="transparent" points="640,-49 640,-70 671,-70 671,-49 640,-49"/>
<polygon fill="none" stroke="black" points="640,-49 640,-70 671,-70 671,-49 640,-49"/>
<text text-anchor="start" x="643" y="-55.8" font-family="Times,serif" font-size="14.00">pos</text>
<polygon fill="#e0ffe0" stroke="transparent" points="671,-49 671,-70 705,-70 705,-49 671,-49"/>
<polygon fill="none" stroke="black" points="671,-49 671,-70 705,-70 705,-49 671,-49"/>
<text text-anchor="start" x="674" y="-55.8" font-family="Times,serif" font-size="14.00">size</text>
<polygon fill="#e0ffe0" stroke="transparent" points="705,-49 705,-70 747,-70 747,-49 705,-49"/>
<polygon fill="none" stroke="black" points="705,-49 705,-70 747,-70 747,-49 705,-49"/>
<text text-anchor="start" x="710" y="-55.8" font-family="Times,serif" font-size="14.00">type</text>
<polygon fill="#e0ffe0" stroke="transparent" points="747,-49 747,-70 781,-70 781,-49 747,-49"/>
<polygon fill="none" stroke="black" points="747,-49 747,-70 781,-70 781,-49 747,-49"/>
<text text-anchor="start" x="757" y="-55.8" font-family="Times,serif" font-size="14.00">id</text>
<polygon fill="none" stroke="black" points="640,-28 640,-49 671,-49 671,-28 640,-28"/>
<text text-anchor="start" x="650.5" y="-34.8" font-family="Times,serif" font-size="14.00">0</text>
<polygon fill="none" stroke="black" points="671,-28 671,-49 705,-49 705,-28 671,-28"/>
<text text-anchor="start" x="683" y="-34.8" font-family="Times,serif" font-size="14.00">2</text>
<polygon fill="none" stroke="black" points="705,-28 705,-49 747,-49 747,-28 705,-28"/>
<text text-anchor="start" x="708" y="-34.8" font-family="Times,serif" font-size="14.00">u2be</text>
<polygon fill="none" stroke="black" points="747,-28 747,-49 781,-49 781,-28 747,-28"/>
<text text-anchor="start" x="750" y="-34.8" font-family="Times,serif" font-size="14.00">raw</text>
</g>
<!-- basic_info__seq&#45;&gt;temp__seq -->
<g id="edge8" class="edge">
<title>basic_info__seq:temps_type&#45;&gt;temp__seq</title>
<path fill="none" stroke="black" stroke-width="2" d="M497.5,-489C583.39,-489 514.27,-176 568,-109 581.86,-91.72 601.61,-79.34 621.96,-70.49"/>
<polygon fill="black" stroke="black" stroke-width="2" points="623.4,-73.68 631.34,-66.67 620.76,-67.2 623.4,-73.68"/>
</g>
<!-- current__seq -->
<g id="node6" class="node">
<title>current__seq</title>
<polygon fill="#e0ffe0" stroke="transparent" points="640,-830 640,-851 671,-851 671,-830 640,-830"/>
<polygon fill="none" stroke="black" points="640,-830 640,-851 671,-851 671,-830 640,-830"/>
<text text-anchor="start" x="643" y="-836.8" font-family="Times,serif" font-size="14.00">pos</text>
<polygon fill="#e0ffe0" stroke="transparent" points="671,-830 671,-851 705,-851 705,-830 671,-830"/>
<polygon fill="none" stroke="black" points="671,-830 671,-851 705,-851 705,-830 671,-830"/>
<text text-anchor="start" x="674" y="-836.8" font-family="Times,serif" font-size="14.00">size</text>
<polygon fill="#e0ffe0" stroke="transparent" points="705,-830 705,-851 747,-851 747,-830 705,-830"/>
<polygon fill="none" stroke="black" points="705,-830 705,-851 747,-851 747,-830 705,-830"/>
<text text-anchor="start" x="710" y="-836.8" font-family="Times,serif" font-size="14.00">type</text>
<polygon fill="#e0ffe0" stroke="transparent" points="747,-830 747,-851 781,-851 781,-830 747,-830"/>
<polygon fill="none" stroke="black" points="747,-830 747,-851 781,-851 781,-830 747,-830"/>
<text text-anchor="start" x="757" y="-836.8" font-family="Times,serif" font-size="14.00">id</text>
<polygon fill="none" stroke="black" points="640,-809 640,-830 671,-830 671,-809 640,-809"/>
<text text-anchor="start" x="650.5" y="-815.8" font-family="Times,serif" font-size="14.00">0</text>
<polygon fill="none" stroke="black" points="671,-809 671,-830 705,-830 705,-809 671,-809"/>
<text text-anchor="start" x="683" y="-815.8" font-family="Times,serif" font-size="14.00">2</text>
<polygon fill="none" stroke="black" points="705,-809 705,-830 747,-830 747,-809 705,-809"/>
<text text-anchor="start" x="708" y="-815.8" font-family="Times,serif" font-size="14.00">u2be</text>
<polygon fill="none" stroke="black" points="747,-809 747,-830 781,-830 781,-809 747,-809"/>
<text text-anchor="start" x="750" y="-815.8" font-family="Times,serif" font-size="14.00">raw</text>
</g>
<!-- basic_info__seq&#45;&gt;current__seq -->
<g id="edge2" class="edge">
<title>basic_info__seq:current_type&#45;&gt;current__seq</title>
<path fill="none" stroke="black" stroke-width="2" d="M497.5,-742C536.17,-742 533.03,-776.48 568,-793 584.78,-800.93 603.51,-807.35 621.7,-812.48"/>
<polygon fill="black" stroke="black" stroke-width="2" points="620.88,-815.88 631.45,-815.12 622.71,-809.12 620.88,-815.88"/>
</g>
<!-- voltage__seq -->
<g id="node8" class="node">
<title>voltage__seq</title>
<polygon fill="#e0ffe0" stroke="transparent" points="640,-927 640,-948 671,-948 671,-927 640,-927"/>
<polygon fill="none" stroke="black" points="640,-927 640,-948 671,-948 671,-927 640,-927"/>
<text text-anchor="start" x="643" y="-933.8" font-family="Times,serif" font-size="14.00">pos</text>
<polygon fill="#e0ffe0" stroke="transparent" points="671,-927 671,-948 705,-948 705,-927 671,-927"/>
<polygon fill="none" stroke="black" points="671,-927 671,-948 705,-948 705,-927 671,-927"/>
<text text-anchor="start" x="674" y="-933.8" font-family="Times,serif" font-size="14.00">size</text>
<polygon fill="#e0ffe0" stroke="transparent" points="705,-927 705,-948 747,-948 747,-927 705,-927"/>
<polygon fill="none" stroke="black" points="705,-927 705,-948 747,-948 747,-927 705,-927"/>
<text text-anchor="start" x="710" y="-933.8" font-family="Times,serif" font-size="14.00">type</text>
<polygon fill="#e0ffe0" stroke="transparent" points="747,-927 747,-948 781,-948 781,-927 747,-927"/>
<polygon fill="none" stroke="black" points="747,-927 747,-948 781,-948 781,-927 747,-927"/>
<text text-anchor="start" x="757" y="-933.8" font-family="Times,serif" font-size="14.00">id</text>
<polygon fill="none" stroke="black" points="640,-906 640,-927 671,-927 671,-906 640,-906"/>
<text text-anchor="start" x="650.5" y="-912.8" font-family="Times,serif" font-size="14.00">0</text>
<polygon fill="none" stroke="black" points="671,-906 671,-927 705,-927 705,-906 671,-906"/>
<text text-anchor="start" x="683" y="-912.8" font-family="Times,serif" font-size="14.00">2</text>
<polygon fill="none" stroke="black" points="705,-906 705,-927 747,-927 747,-906 705,-906"/>
<text text-anchor="start" x="708" y="-912.8" font-family="Times,serif" font-size="14.00">u2be</text>
<polygon fill="none" stroke="black" points="747,-906 747,-927 781,-927 781,-906 747,-906"/>
<text text-anchor="start" x="750" y="-912.8" font-family="Times,serif" font-size="14.00">raw</text>
</g>
<!-- basic_info__seq&#45;&gt;voltage__seq -->
<g id="edge1" class="edge">
<title>basic_info__seq:total_type&#45;&gt;voltage__seq</title>
<path fill="none" stroke="black" stroke-width="2" d="M497.5,-763C562.06,-763 517.01,-850.4 568,-890 583.49,-902.03 602.52,-910.17 621.53,-915.67"/>
<polygon fill="black" stroke="black" stroke-width="2" points="620.89,-919.12 631.45,-918.31 622.69,-912.35 620.89,-919.12"/>
</g>
<!-- balance_list__seq -->
<g id="node10" class="node">
<title>balance_list__seq</title>
<polygon fill="#e0ffe0" stroke="transparent" points="622,-635 622,-656 653,-656 653,-635 622,-635"/>
<polygon fill="none" stroke="black" points="622,-635 622,-656 653,-656 653,-635 622,-635"/>
<text text-anchor="start" x="625" y="-641.8" font-family="Times,serif" font-size="14.00">pos</text>
<polygon fill="#e0ffe0" stroke="transparent" points="653,-635 653,-656 687,-656 687,-635 653,-635"/>
<polygon fill="none" stroke="black" points="653,-635 653,-656 687,-656 687,-635 653,-635"/>
<text text-anchor="start" x="656" y="-641.8" font-family="Times,serif" font-size="14.00">size</text>
<polygon fill="#e0ffe0" stroke="transparent" points="687,-635 687,-656 766,-656 766,-635 687,-635"/>
<polygon fill="none" stroke="black" points="687,-635 687,-656 766,-656 766,-635 687,-635"/>
<text text-anchor="start" x="710.5" y="-641.8" font-family="Times,serif" font-size="14.00">type</text>
<polygon fill="#e0ffe0" stroke="transparent" points="766,-635 766,-656 799,-656 799,-635 766,-635"/>
<polygon fill="none" stroke="black" points="766,-635 766,-656 799,-656 799,-635 766,-635"/>
<text text-anchor="start" x="775.5" y="-641.8" font-family="Times,serif" font-size="14.00">id</text>
<polygon fill="none" stroke="black" points="622,-614 622,-635 653,-635 653,-614 622,-614"/>
<text text-anchor="start" x="632.5" y="-620.8" font-family="Times,serif" font-size="14.00">0</text>
<polygon fill="none" stroke="black" points="653,-614 653,-635 687,-635 687,-614 653,-614"/>
<text text-anchor="start" x="660.5" y="-620.8" font-family="Times,serif" font-size="14.00">1b</text>
<polygon fill="none" stroke="black" points="687,-614 687,-635 766,-635 766,-614 687,-614"/>
<text text-anchor="start" x="690" y="-620.8" font-family="Times,serif" font-size="14.00">BitsType1</text>
<polygon fill="none" stroke="black" points="766,-614 766,-635 799,-635 799,-614 766,-614"/>
<text text-anchor="start" x="769" y="-620.8" font-family="Times,serif" font-size="14.00">flag</text>
<polygon fill="none" stroke="black" points="622,-593 622,-614 799,-614 799,-593 622,-593"/>
<text text-anchor="start" x="653.5" y="-599.8" font-family="Times,serif" font-size="14.00">repeat 32 times</text>
</g>
<!-- basic_info__seq&#45;&gt;balance_list__seq -->
<g id="edge5" class="edge">
<title>basic_info__seq:balance_status_type&#45;&gt;balance_list__seq</title>
<path fill="none" stroke="black" stroke-width="2" d="M497.5,-637C531.83,-637 569.24,-635.4 602.93,-633.38"/>
<polygon fill="black" stroke="black" stroke-width="2" points="603.49,-636.85 613.26,-632.74 603.06,-629.86 603.49,-636.85"/>
</g>
<!-- capacity__seq -->
<g id="node11" class="node">
<title>capacity__seq</title>
<polygon fill="#e0ffe0" stroke="transparent" points="640,-733 640,-754 671,-754 671,-733 640,-733"/>
<polygon fill="none" stroke="black" points="640,-733 640,-754 671,-754 671,-733 640,-733"/>
<text text-anchor="start" x="643" y="-739.8" font-family="Times,serif" font-size="14.00">pos</text>
<polygon fill="#e0ffe0" stroke="transparent" points="671,-733 671,-754 705,-754 705,-733 671,-733"/>
<polygon fill="none" stroke="black" points="671,-733 671,-754 705,-754 705,-733 671,-733"/>
<text text-anchor="start" x="674" y="-739.8" font-family="Times,serif" font-size="14.00">size</text>
<polygon fill="#e0ffe0" stroke="transparent" points="705,-733 705,-754 747,-754 747,-733 705,-733"/>
<polygon fill="none" stroke="black" points="705,-733 705,-754 747,-754 747,-733 705,-733"/>
<text text-anchor="start" x="710" y="-739.8" font-family="Times,serif" font-size="14.00">type</text>
<polygon fill="#e0ffe0" stroke="transparent" points="747,-733 747,-754 781,-754 781,-733 747,-733"/>
<polygon fill="none" stroke="black" points="747,-733 747,-754 781,-754 781,-733 747,-733"/>
<text text-anchor="start" x="757" y="-739.8" font-family="Times,serif" font-size="14.00">id</text>
<polygon fill="none" stroke="black" points="640,-712 640,-733 671,-733 671,-712 640,-712"/>
<text text-anchor="start" x="650.5" y="-718.8" font-family="Times,serif" font-size="14.00">0</text>
<polygon fill="none" stroke="black" points="671,-712 671,-733 705,-733 705,-712 671,-712"/>
<text text-anchor="start" x="683" y="-718.8" font-family="Times,serif" font-size="14.00">2</text>
<polygon fill="none" stroke="black" points="705,-712 705,-733 747,-733 747,-712 705,-712"/>
<text text-anchor="start" x="708" y="-718.8" font-family="Times,serif" font-size="14.00">u2be</text>
<polygon fill="none" stroke="black" points="747,-712 747,-733 781,-733 781,-712 747,-712"/>
<text text-anchor="start" x="750" y="-718.8" font-family="Times,serif" font-size="14.00">raw</text>
</g>
<!-- basic_info__seq&#45;&gt;capacity__seq -->
<g id="edge3" class="edge">
<title>basic_info__seq:remain_cap_type&#45;&gt;capacity__seq</title>
<path fill="none" stroke="black" stroke-width="2" d="M497.5,-721C538.18,-721 583.19,-723.24 621.2,-725.79"/>
<polygon fill="black" stroke="black" stroke-width="2" points="621,-729.28 631.21,-726.47 621.48,-722.3 621,-729.28"/>
</g>
<!-- basic_info__seq&#45;&gt;capacity__seq -->
<g id="edge4" class="edge">
<title>basic_info__seq:typ_cap_type&#45;&gt;capacity__seq</title>
<path fill="none" stroke="black" stroke-width="2" d="M497.5,-700C538.44,-700 583.3,-706.11 621.14,-713.07"/>
<polygon fill="black" stroke="black" stroke-width="2" points="620.63,-716.54 631.11,-714.96 621.93,-709.66 620.63,-716.54"/>
</g>
<!-- temp__inst__celsius -->
<g id="node5" class="node">
<title>temp__inst__celsius</title>
<polygon fill="#e0ffe0" stroke="transparent" points="924,-49 924,-70 979,-70 979,-49 924,-49"/>
<polygon fill="none" stroke="black" points="924,-49 924,-70 979,-70 979,-49 924,-49"/>
<text text-anchor="start" x="944.5" y="-55.8" font-family="Times,serif" font-size="14.00">id</text>
<polygon fill="#e0ffe0" stroke="transparent" points="979,-49 979,-70 1126,-70 1126,-49 979,-49"/>
<polygon fill="none" stroke="black" points="979,-49 979,-70 1126,-70 1126,-49 979,-49"/>
<text text-anchor="start" x="1033" y="-55.8" font-family="Times,serif" font-size="14.00">value</text>
<polygon fill="none" stroke="black" points="924,-28 924,-49 979,-49 979,-28 924,-28"/>
<text text-anchor="start" x="927" y="-34.8" font-family="Times,serif" font-size="14.00">celsius</text>
<polygon fill="none" stroke="black" points="979,-28 979,-49 1126,-49 1126,-28 979,-28"/>
<text text-anchor="start" x="982" y="-34.8" font-family="Times,serif" font-size="14.00">((raw * 0.1) &#45; 273.1)</text>
</g>
<!-- temp__seq&#45;&gt;temp__inst__celsius -->
<g id="edge10" class="edge">
<title>temp__seq:raw_type&#45;&gt;temp__inst__celsius</title>
<path fill="none" stroke="#404040" d="M782,-38C822.33,-38 866.41,-39.54 905.76,-41.47"/>
<polygon fill="#404040" stroke="#404040" points="905.76,-44.98 915.93,-41.99 906.12,-37.99 905.76,-44.98"/>
</g>
<!-- current__inst__amp -->
<g id="node7" class="node">
<title>current__inst__amp</title>
<polygon fill="#e0ffe0" stroke="transparent" points="961,-830 961,-851 998,-851 998,-830 961,-830"/>
<polygon fill="none" stroke="black" points="961,-830 961,-851 998,-851 998,-830 961,-830"/>
<text text-anchor="start" x="972.5" y="-836.8" font-family="Times,serif" font-size="14.00">id</text>
<polygon fill="#e0ffe0" stroke="transparent" points="998,-830 998,-851 1089,-851 1089,-830 998,-830"/>
<polygon fill="none" stroke="black" points="998,-830 998,-851 1089,-851 1089,-830 998,-830"/>
<text text-anchor="start" x="1024" y="-836.8" font-family="Times,serif" font-size="14.00">value</text>
<polygon fill="none" stroke="black" points="961,-809 961,-830 998,-830 998,-809 961,-809"/>
<text text-anchor="start" x="964" y="-815.8" font-family="Times,serif" font-size="14.00">amp</text>
<polygon fill="none" stroke="black" points="998,-809 998,-830 1089,-830 1089,-809 998,-809"/>
<text text-anchor="start" x="1001" y="-815.8" font-family="Times,serif" font-size="14.00">(raw * 0.01)</text>
</g>
<!-- current__seq&#45;&gt;current__inst__amp -->
<g id="edge11" class="edge">
<title>current__seq:raw_type&#45;&gt;current__inst__amp</title>
<path fill="none" stroke="#404040" d="M782,-819C835.58,-819 895.77,-821.72 942.71,-824.46"/>
<polygon fill="#404040" stroke="#404040" points="942.64,-827.96 952.83,-825.06 943.05,-820.98 942.64,-827.96"/>
</g>
<!-- voltage__inst__volt -->
<g id="node9" class="node">
<title>voltage__inst__volt</title>
<polygon fill="#e0ffe0" stroke="transparent" points="963,-927 963,-948 997,-948 997,-927 963,-927"/>
<polygon fill="none" stroke="black" points="963,-927 963,-948 997,-948 997,-927 963,-927"/>
<text text-anchor="start" x="973" y="-933.8" font-family="Times,serif" font-size="14.00">id</text>
<polygon fill="#e0ffe0" stroke="transparent" points="997,-927 997,-948 1088,-948 1088,-927 997,-927"/>
<polygon fill="none" stroke="black" points="997,-927 997,-948 1088,-948 1088,-927 997,-927"/>
<text text-anchor="start" x="1023" y="-933.8" font-family="Times,serif" font-size="14.00">value</text>
<polygon fill="none" stroke="black" points="963,-906 963,-927 997,-927 997,-906 963,-906"/>
<text text-anchor="start" x="966" y="-912.8" font-family="Times,serif" font-size="14.00">volt</text>
<polygon fill="none" stroke="black" points="997,-906 997,-927 1088,-927 1088,-906 997,-906"/>
<text text-anchor="start" x="1000" y="-912.8" font-family="Times,serif" font-size="14.00">(raw * 0.01)</text>
</g>
<!-- voltage__seq&#45;&gt;voltage__inst__volt -->
<g id="edge12" class="edge">
<title>voltage__seq:raw_type&#45;&gt;voltage__inst__volt</title>
<path fill="none" stroke="#404040" d="M782,-916C836.17,-916 897.09,-918.78 944.25,-921.55"/>
<polygon fill="#404040" stroke="#404040" points="944.22,-925.06 954.41,-922.16 944.63,-918.07 944.22,-925.06"/>
</g>
<!-- capacity__inst__amp_hour -->
<g id="node12" class="node">
<title>capacity__inst__amp_hour</title>
<polygon fill="#e0ffe0" stroke="transparent" points="941,-733 941,-754 1018,-754 1018,-733 941,-733"/>
<polygon fill="none" stroke="black" points="941,-733 941,-754 1018,-754 1018,-733 941,-733"/>
<text text-anchor="start" x="972.5" y="-739.8" font-family="Times,serif" font-size="14.00">id</text>
<polygon fill="#e0ffe0" stroke="transparent" points="1018,-733 1018,-754 1109,-754 1109,-733 1018,-733"/>
<polygon fill="none" stroke="black" points="1018,-733 1018,-754 1109,-754 1109,-733 1018,-733"/>
<text text-anchor="start" x="1044" y="-739.8" font-family="Times,serif" font-size="14.00">value</text>
<polygon fill="none" stroke="black" points="941,-712 941,-733 1018,-733 1018,-712 941,-712"/>
<text text-anchor="start" x="944" y="-718.8" font-family="Times,serif" font-size="14.00">amp_hour</text>
<polygon fill="none" stroke="black" points="1018,-712 1018,-733 1109,-733 1109,-712 1018,-712"/>
<text text-anchor="start" x="1021" y="-718.8" font-family="Times,serif" font-size="14.00">(raw * 0.01)</text>
</g>
<!-- capacity__seq&#45;&gt;capacity__inst__amp_hour -->
<g id="edge13" class="edge">
<title>capacity__seq:raw_type&#45;&gt;capacity__inst__amp_hour</title>
<path fill="none" stroke="#404040" d="M782,-722C828.33,-722 879.61,-724.04 922.99,-726.36"/>
<polygon fill="#404040" stroke="#404040" points="922.8,-729.85 932.97,-726.9 923.18,-722.86 922.8,-729.85"/>
</g>
</g>
</svg>
