<?xml version="1.0" encoding="UTF-8" standalone="no"?>
<!DOCTYPE svg PUBLIC "-//W3C//DTD SVG 1.1//EN"
 "http://www.w3.org/Graphics/SVG/1.1/DTD/svg11.dtd">
<!-- Generated by graphviz version 2.42.3 (0)
 -->
<!-- Title: %219 Pages: 1 -->
<svg width="681pt" height="152pt"
 viewBox="0.00 0.00 681.00 152.00" xmlns="http://www.w3.org/2000/svg" xmlns:xlink="http://www.w3.org/1999/xlink">
<g id="page0,1_graph0" class="graph" transform="scale(1 1) rotate(0) translate(4 148)">
<title>%219</title>
<polygon fill="white" stroke="transparent" points="-4,4 -4,-148 677,-148 677,4 -4,4"/>
<g id="clust1" class="cluster">
<title>cluster__cell_voltages</title>
<polygon fill="none" stroke="black" stroke-dasharray="1,5" points="8,-8 8,-136 665,-136 665,-8 8,-8"/>
<text text-anchor="middle" x="336.5" y="-120.8" font-family="Times,serif" font-size="14.00">CellVoltages</text>
</g>
<g id="clust2" class="cluster">
<title>cluster__voltage</title>
<polygon fill="none" stroke="black" stroke-dasharray="1,5" points="271,-16 271,-105 657,-105 657,-16 271,-16"/>
<text text-anchor="middle" x="464" y="-89.8" font-family="Times,serif" font-size="14.00">CellVoltages::Voltage</text>
</g>
<!-- cell_voltages__seq -->
<g id="node1" class="node">
<title>cell_voltages__seq</title>
<polygon fill="#e0ffe0" stroke="transparent" points="24.5,-62 24.5,-83 60.5,-83 60.5,-62 24.5,-62"/>
<polygon fill="none" stroke="black" points="24.5,-62 24.5,-83 60.5,-83 60.5,-62 24.5,-62"/>
<text text-anchor="start" x="30" y="-68.8" font-family="Times,serif" font-size="14.00">pos</text>
<polygon fill="#e0ffe0" stroke="transparent" points="60.5,-62 60.5,-83 97.5,-83 97.5,-62 60.5,-62"/>
<polygon fill="none" stroke="black" points="60.5,-62 60.5,-83 97.5,-83 97.5,-62 60.5,-62"/>
<text text-anchor="start" x="65" y="-68.8" font-family="Times,serif" font-size="14.00">size</text>
<polygon fill="#e0ffe0" stroke="transparent" points="97.5,-62 97.5,-83 158.5,-83 158.5,-62 97.5,-62"/>
<polygon fill="none" stroke="black" points="97.5,-62 97.5,-83 158.5,-83 158.5,-62 97.5,-62"/>
<text text-anchor="start" x="112" y="-68.8" font-family="Times,serif" font-size="14.00">type</text>
<polygon fill="#e0ffe0" stroke="transparent" points="158.5,-62 158.5,-83 199.5,-83 199.5,-62 158.5,-62"/>
<polygon fill="none" stroke="black" points="158.5,-62 158.5,-83 199.5,-83 199.5,-62 158.5,-62"/>
<text text-anchor="start" x="172" y="-68.8" font-family="Times,serif" font-size="14.00">id</text>
<polygon fill="none" stroke="black" points="24.5,-41 24.5,-62 60.5,-62 60.5,-41 24.5,-41"/>
<text text-anchor="start" x="37.5" y="-47.8" font-family="Times,serif" font-size="14.00">0</text>
<polygon fill="none" stroke="black" points="60.5,-41 60.5,-62 97.5,-62 97.5,-41 60.5,-41"/>
<text text-anchor="start" x="74" y="-47.8" font-family="Times,serif" font-size="14.00">2</text>
<polygon fill="none" stroke="black" points="97.5,-41 97.5,-62 158.5,-62 158.5,-41 97.5,-41"/>
<text text-anchor="start" x="101" y="-47.8" font-family="Times,serif" font-size="14.00">Voltage</text>
<polygon fill="none" stroke="black" points="158.5,-41 158.5,-62 199.5,-62 199.5,-41 158.5,-41"/>
<text text-anchor="start" x="162.5" y="-47.8" font-family="Times,serif" font-size="14.00">cells</text>
<polygon fill="none" stroke="black" points="24.5,-20 24.5,-41 199.5,-41 199.5,-20 24.5,-20"/>
<text text-anchor="start" x="27.5" y="-26.8" font-family="Times,serif" font-size="14.00">repeat to end of stream</text>
</g>
<!-- voltage__seq -->
<g id="node2" class="node">
<title>voltage__seq</title>
<polygon fill="#e0ffe0" stroke="transparent" points="287.5,-49 287.5,-70 318.5,-70 318.5,-49 287.5,-49"/>
<polygon fill="none" stroke="black" points="287.5,-49 287.5,-70 318.5,-70 318.5,-49 287.5,-49"/>
<text text-anchor="start" x="290.5" y="-55.8" font-family="Times,serif" font-size="14.00">pos</text>
<polygon fill="#e0ffe0" stroke="transparent" points="318.5,-49 318.5,-70 352.5,-70 352.5,-49 318.5,-49"/>
<polygon fill="none" stroke="black" points="318.5,-49 318.5,-70 352.5,-70 352.5,-49 318.5,-49"/>
<text text-anchor="start" x="321.5" y="-55.8" font-family="Times,serif" font-size="14.00">size</text>
<polygon fill="#e0ffe0" stroke="transparent" points="352.5,-49 352.5,-70 394.5,-70 394.5,-49 352.5,-49"/>
<polygon fill="none" stroke="black" points="352.5,-49 352.5,-70 394.5,-70 394.5,-49 352.5,-49"/>
<text text-anchor="start" x="357.5" y="-55.8" font-family="Times,serif" font-size="14.00">type</text>
<polygon fill="#e0ffe0" stroke="transparent" points="394.5,-49 394.5,-70 428.5,-70 428.5,-49 394.5,-49"/>
<polygon fill="none" stroke="black" points="394.5,-49 394.5,-70 428.5,-70 428.5,-49 394.5,-49"/>
<text text-anchor="start" x="404.5" y="-55.8" font-family="Times,serif" font-size="14.00">id</text>
<polygon fill="none" stroke="black" points="287.5,-28 287.5,-49 318.5,-49 318.5,-28 287.5,-28"/>
<text text-anchor="start" x="298" y="-34.8" font-family="Times,serif" font-size="14.00">0</text>
<polygon fill="none" stroke="black" points="318.5,-28 318.5,-49 352.5,-49 352.5,-28 318.5,-28"/>
<text text-anchor="start" x="330.5" y="-34.8" font-family="Times,serif" font-size="14.00">2</text>
<polygon fill="none" stroke="black" points="352.5,-28 352.5,-49 394.5,-49 394.5,-28 352.5,-28"/>
<text text-anchor="start" x="355.5" y="-34.8" font-family="Times,serif" font-size="14.00">u2be</text>
<polygon fill="none" stroke="black" points="394.5,-28 394.5,-49 428.5,-49 428.5,-28 394.5,-28"/>
<text text-anchor="start" x="397.5" y="-34.8" font-family="Times,serif" font-size="14.00">raw</text>
</g>
<!-- cell_voltages__seq&#45;&gt;voltage__seq -->
<g id="edge1" class="edge">
<title>cell_voltages__seq:cells_type&#45;&gt;voltage__seq</title>
<path fill="none" stroke="black" stroke-width="2" d="M200.5,-51C222.58,-51 246.41,-50.8 268.65,-50.52"/>
<polygon fill="black" stroke="black" stroke-width="2" points="268.79,-54.02 278.74,-50.39 268.69,-47.02 268.79,-54.02"/>
</g>
<!-- voltage__inst__volt -->
<g id="node3" class="node">
<title>voltage__inst__volt</title>
<polygon fill="#e0ffe0" stroke="transparent" points="516.5,-49 516.5,-70 550.5,-70 550.5,-49 516.5,-49"/>
<polygon fill="none" stroke="black" points="516.5,-49 516.5,-70 550.5,-70 550.5,-49 516.5,-49"/>
<text text-anchor="start" x="526.5" y="-55.8" font-family="Times,serif" font-size="14.00">id</text>
<polygon fill="#e0ffe0" stroke="transparent" points="550.5,-49 550.5,-70 641.5,-70 641.5,-49 550.5,-49"/>
<polygon fill="none" stroke="black" points="550.5,-49 550.5,-70 641.5,-70 641.5,-49 550.5,-49"/>
<text text-anchor="start" x="576.5" y="-55.8" font-family="Times,serif" font-size="14.00">value</text>
<polygon fill="none" stroke="black" points="516.5,-28 516.5,-49 550.5,-49 550.5,-28 516.5,-28"/>
<text text-anchor="start" x="519.5" y="-34.8" font-family="Times,serif" font-size="14.00">volt</text>
<polygon fill="none" stroke="black" points="550.5,-28 550.5,-49 641.5,-49 641.5,-28 550.5,-28"/>
<text text-anchor="start" x="553.5" y="-34.8" font-family="Times,serif" font-size="14.00">(raw * 0.01)</text>
</g>
<!-- voltage__seq&#45;&gt;voltage__inst__volt -->
<g id="edge2" class="edge">
<title>voltage__seq:raw_type&#45;&gt;voltage__inst__volt</title>
<path fill="none" stroke="#404040" d="M429.5,-38C451.73,-38 475.79,-39.25 497.92,-40.91"/>
<polygon fill="#404040" stroke="#404040" points="497.69,-44.4 507.94,-41.69 498.24,-37.42 497.69,-44.4"/>
</g>
</g>
</svg>
