<?xml version="1.0" encoding="UTF-8" standalone="no"?>
<!DOCTYPE svg PUBLIC "-//W3C//DTD SVG 1.1//EN"
 "http://www.w3.org/Graphics/SVG/1.1/DTD/svg11.dtd">
<!-- Generated by graphviz version 2.42.3 (0)
 -->
<!-- Title: %261 Pages: 1 -->
<svg width="250pt" height="113pt"
 viewBox="0.00 0.00 250.00 113.00" xmlns="http://www.w3.org/2000/svg" xmlns:xlink="http://www.w3.org/1999/xlink">
<g id="page0,1_graph0" class="graph" transform="scale(1 1) rotate(0) translate(4 109)">
<title>%261</title>
<polygon fill="white" stroke="transparent" points="-4,4 -4,-109 246,-109 246,4 -4,4"/>
<g id="clust1" class="cluster">
<title>cluster__hardware</title>
<polygon fill="none" stroke="black" stroke-dasharray="1,5" points="8,-8 8,-97 234,-97 234,-8 8,-8"/>
<text text-anchor="middle" x="121" y="-81.8" font-family="Times,serif" font-size="14.00">Hardware</text>
</g>
<!-- hardware__seq -->
<g id="node1" class="node">
<title>hardware__seq</title>
<polygon fill="#e0ffe0" stroke="transparent" points="24,-41 24,-62 55,-62 55,-41 24,-41"/>
<polygon fill="none" stroke="black" points="24,-41 24,-62 55,-62 55,-41 24,-41"/>
<text text-anchor="start" x="27" y="-47.8" font-family="Times,serif" font-size="14.00">pos</text>
<polygon fill="#e0ffe0" stroke="transparent" points="55,-41 55,-62 89,-62 89,-41 55,-41"/>
<polygon fill="none" stroke="black" points="55,-41 55,-62 89,-62 89,-41 55,-41"/>
<text text-anchor="start" x="58" y="-47.8" font-family="Times,serif" font-size="14.00">size</text>
<polygon fill="#e0ffe0" stroke="transparent" points="89,-41 89,-62 159,-62 159,-41 89,-41"/>
<polygon fill="none" stroke="black" points="89,-41 89,-62 159,-62 159,-41 89,-41"/>
<text text-anchor="start" x="108" y="-47.8" font-family="Times,serif" font-size="14.00">type</text>
<polygon fill="#e0ffe0" stroke="transparent" points="159,-41 159,-62 218,-62 218,-41 159,-41"/>
<polygon fill="none" stroke="black" points="159,-41 159,-62 218,-62 218,-41 159,-41"/>
<text text-anchor="start" x="181.5" y="-47.8" font-family="Times,serif" font-size="14.00">id</text>
<polygon fill="none" stroke="black" points="24,-20 24,-41 55,-41 55,-20 24,-20"/>
<text text-anchor="start" x="34.5" y="-26.8" font-family="Times,serif" font-size="14.00">0</text>
<polygon fill="none" stroke="black" points="55,-20 55,-41 89,-41 89,-20 55,-20"/>
<text text-anchor="start" x="65.5" y="-26.8" font-family="Times,serif" font-size="14.00">⇲</text>
<polygon fill="none" stroke="black" points="89,-20 89,-41 159,-41 159,-20 89,-20"/>
<text text-anchor="start" x="92" y="-26.8" font-family="Times,serif" font-size="14.00">str(ascii)</text>
<polygon fill="none" stroke="black" points="159,-20 159,-41 218,-41 218,-20 159,-20"/>
<text text-anchor="start" x="162" y="-26.8" font-family="Times,serif" font-size="14.00">version</text>
</g>
</g>
</svg>
