<svg version="1.1" viewBox="0.0 0.0 810.0 233.0" fill="none" stroke="none" stroke-linecap="square" stroke-miterlimit="10" width="810" height="233" xmlns:xlink="http://www.w3.org/1999/xlink" xmlns="http://www.w3.org/2000/svg"><path fill="#ffffff" d="M0 0L810.0 0L810.0 233.0L0 233.0L0 0Z" fill-rule="nonzero"/><path stroke="#333333" stroke-width="1.0" stroke-linecap="butt" d="M37.5 11.5L37.5 173.5" fill-rule="nonzero"/><path stroke="#cccccc" stroke-width="1.0" stroke-linecap="butt" d="M285.5 11.5L285.5 173.5" fill-rule="nonzero"/><path stroke="#cccccc" stroke-width="1.0" stroke-linecap="butt" d="M532.5 11.5L532.5 173.5" fill-rule="nonzero"/><path stroke="#cccccc" stroke-width="1.0" stroke-linecap="butt" d="M780.5 11.5L780.5 173.5" fill-rule="nonzero"/><path stroke="#e6e6e6" stroke-width="1.0" stroke-linecap="butt" d="M235.5 11.5L235.5 173.5" fill-rule="nonzero"/><path stroke="#e6e6e6" stroke-width="1.0" stroke-linecap="butt" d="M186.5 11.5L186.5 173.5" fill-rule="nonzero"/><path stroke="#e6e6e6" stroke-width="1.0" stroke-linecap="butt" d="M136.5 11.5L136.5 173.5" fill-rule="nonzero"/><path stroke="#e6e6e6" stroke-width="1.0" stroke-linecap="butt" d="M87.5 11.5L87.5 173.5" fill-rule="nonzero"/><path stroke="#e6e6e6" stroke-width="1.0" stroke-linecap="butt" d="M483.5 11.5L483.5 173.5" fill-rule="nonzero"/><path stroke="#e6e6e6" stroke-width="1.0" stroke-linecap="butt" d="M433.5 11.5L433.5 173.5" fill-rule="nonzero"/><path stroke="#e6e6e6" stroke-width="1.0" stroke-linecap="butt" d="M384.5 11.5L384.5 173.5" fill-rule="nonzero"/><path stroke="#e6e6e6" stroke-width="1.0" stroke-linecap="butt" d="M334.5 11.5L334.5 173.5" fill-rule="nonzero"/><path stroke="#e6e6e6" stroke-width="1.0" stroke-linecap="butt" d="M730.5 11.5L730.5 173.5" fill-rule="nonzero"/><path stroke="#e6e6e6" stroke-width="1.0" stroke-linecap="butt" d="M681.5 11.5L681.5 173.5" fill-rule="nonzero"/><path stroke="#e6e6e6" stroke-width="1.0" stroke-linecap="butt" d="M631.5 11.5L631.5 173.5" fill-rule="nonzero"/><path stroke="#e6e6e6" stroke-width="1.0" stroke-linecap="butt" d="M582.5 11.5L582.5 173.5" fill-rule="nonzero"/><clipPath id="id_0"><path d="M37.727272 11.661086L780.0166 11.661086L780.0166 173.5378L37.727272 173.5378L37.727272 11.661086Z" clip-rule="nonzero"/></clipPath><path stroke="#000000" stroke-width="0.0" stroke-linecap="butt" stroke-opacity="0.0" clip-path="url(#id_0)" d="M38.0 79.0L38.0 54.0L743.0 54.0C744.10455 54.0 745.0 54.89543 745.0 56.0L745.0 77.0C745.0 78.10457 744.10455 79.0 743.0 79.0Z" fill-rule="nonzero"/><path fill="#4285f4" clip-path="url(#id_0)" d="M38.0 79.0L38.0 54.0L743.0 54.0C744.10455 54.0 745.0 54.89543 745.0 56.0L745.0 77.0C745.0 78.10457 744.10455 79.0 743.0 79.0Z" fill-rule="nonzero"/><path stroke="#000000" stroke-width="0.0" stroke-linecap="butt" stroke-opacity="0.0" clip-path="url(#id_0)" d="M38.0 105.0L38.0 80.0L529.0 80.0C530.10455 80.0 531.0 80.89543 531.0 82.0L531.0 103.0C531.0 104.10457 530.10455 105.0 529.0 105.0Z" fill-rule="nonzero"/><path fill="#db4437" clip-path="url(#id_0)" d="M38.0 105.0L38.0 80.0L529.0 80.0C530.10455 80.0 531.0 80.89543 531.0 82.0L531.0 103.0C531.0 104.10457 530.10455 105.0 529.0 105.0Z" fill-rule="nonzero"/><path stroke="#000000" stroke-width="0.0" stroke-linecap="butt" stroke-opacity="0.0" clip-path="url(#id_0)" d="M38.0 131.0L38.0 106.0L355.0 106.0C356.10458 106.0 357.0 106.89543 357.0 108.0L357.0 129.0C357.0 130.10457 356.10458 131.0 355.0 131.0Z" fill-rule="nonzero"/><path fill="#38761d" clip-path="url(#id_0)" d="M38.0 131.0L38.0 106.0L355.0 106.0C356.10458 106.0 357.0 106.89543 357.0 108.0L357.0 129.0C357.0 130.10457 356.10458 131.0 355.0 131.0Z" fill-rule="nonzero"/><path stroke="#ffffff" stroke-width="3.0" stroke-linejoin="round" stroke-linecap="round" d="M761.24615 71.5L760.168 71.5L760.168 64.28125L757.9805 65.078125L757.9805 64.09375L761.0899 62.921875L761.24615 62.921875L761.24615 71.5ZM769.2618 68.640625L770.4493 68.640625L770.4493 69.515625L769.2618 69.515625L769.2618 71.5L768.18365 71.5L768.18365 69.515625L764.293 69.515625L764.293 68.875L768.1055 62.96875L769.2618 62.96875L769.2618 68.640625ZM765.5274 68.640625L768.18365 68.640625L768.18365 64.453125L768.043 64.6875L765.5274 68.640625ZM777.2774 71.5L771.68365 71.5L771.68365 70.71875L774.6368 67.4375Q775.293 66.6875 775.543 66.234375Q775.793 65.765625 775.793 65.265625Q775.793 64.59375 775.3868 64.171875Q774.99615 63.734375 774.30865 63.734375Q773.5118 63.734375 773.05865 64.203125Q772.6055 64.65625 772.6055 65.484375L771.5274 65.484375Q771.5274 64.296875 772.2774 63.578125Q773.043 62.84375 774.30865 62.84375Q775.5118 62.84375 776.1993 63.46875Q776.8868 64.09375 776.8868 65.140625Q776.8868 66.390625 775.2774 68.140625L772.99615 70.609375L777.2774 70.609375L777.2774 71.5ZM782.8399 67.75Q782.5118 68.15625 782.0274 68.40625Q781.55865 68.640625 780.99615 68.640625Q780.2618 68.640625 779.7149 68.28125Q779.168 67.921875 778.87115 67.265625Q778.5743 66.59375 778.5743 65.796875Q778.5743 64.953125 778.8868 64.265625Q779.2149 63.578125 779.80865 63.21875Q780.418 62.84375 781.2149 62.84375Q782.4805 62.84375 783.1993 63.796875Q783.93365 64.75 783.93365 66.375L783.93365 66.6875Q783.93365 69.1875 782.9493 70.328125Q781.9649 71.46875 779.9805 71.5L779.7618 71.5L779.7618 70.59375L779.99615 70.59375Q781.3399 70.5625 782.05865 69.890625Q782.7774 69.21875 782.8399 67.75ZM781.168 67.75Q781.7149 67.75 782.168 67.421875Q782.6368 67.078125 782.8555 66.59375L782.8555 66.15625Q782.8555 65.09375 782.3868 64.421875Q781.918 63.75 781.2149 63.75Q780.49615 63.75 780.05865 64.296875Q779.6368 64.84375 779.6368 65.75Q779.6368 66.625 780.043 67.1875Q780.4649 67.75 781.168 67.75ZM791.2774 71.5L785.68365 71.5L785.68365 70.71875L788.6368 67.4375Q789.293 66.6875 789.543 66.234375Q789.793 65.765625 789.793 65.265625Q789.793 64.59375 789.3868 64.171875Q788.99615 63.734375 788.30865 63.734375Q787.5118 63.734375 787.05865 64.203125Q786.6055 64.65625 786.6055 65.484375L785.5274 65.484375Q785.5274 64.296875 786.2774 63.578125Q787.043 62.84375 788.30865 62.84375Q789.5118 62.84375 790.1993 63.46875Q790.8868 64.09375 790.8868 65.140625Q790.8868 66.390625 789.2774 68.140625L786.99615 70.609375L791.2774 70.609375L791.2774 71.5Z" fill-rule="nonzero"/><path fill="#4285f4" d="M761.24615 71.5L760.168 71.5L760.168 64.28125L757.9805 65.078125L757.9805 64.09375L761.0899 62.921875L761.24615 62.921875L761.24615 71.5ZM769.2618 68.640625L770.4493 68.640625L770.4493 69.515625L769.2618 69.515625L769.2618 71.5L768.18365 71.5L768.18365 69.515625L764.293 69.515625L764.293 68.875L768.1055 62.96875L769.2618 62.96875L769.2618 68.640625ZM765.5274 68.640625L768.18365 68.640625L768.18365 64.453125L768.043 64.6875L765.5274 68.640625ZM777.2774 71.5L771.68365 71.5L771.68365 70.71875L774.6368 67.4375Q775.293 66.6875 775.543 66.234375Q775.793 65.765625 775.793 65.265625Q775.793 64.59375 775.3868 64.171875Q774.99615 63.734375 774.30865 63.734375Q773.5118 63.734375 773.05865 64.203125Q772.6055 64.65625 772.6055 65.484375L771.5274 65.484375Q771.5274 64.296875 772.2774 63.578125Q773.043 62.84375 774.30865 62.84375Q775.5118 62.84375 776.1993 63.46875Q776.8868 64.09375 776.8868 65.140625Q776.8868 66.390625 775.2774 68.140625L772.99615 70.609375L777.2774 70.609375L777.2774 71.5ZM782.8399 67.75Q782.5118 68.15625 782.0274 68.40625Q781.55865 68.640625 780.99615 68.640625Q780.2618 68.640625 779.7149 68.28125Q779.168 67.921875 778.87115 67.265625Q778.5743 66.59375 778.5743 65.796875Q778.5743 64.953125 778.8868 64.265625Q779.2149 63.578125 779.80865 63.21875Q780.418 62.84375 781.2149 62.84375Q782.4805 62.84375 783.1993 63.796875Q783.93365 64.75 783.93365 66.375L783.93365 66.6875Q783.93365 69.1875 782.9493 70.328125Q781.9649 71.46875 779.9805 71.5L779.7618 71.5L779.7618 70.59375L779.99615 70.59375Q781.3399 70.5625 782.05865 69.890625Q782.7774 69.21875 782.8399 67.75ZM781.168 67.75Q781.7149 67.75 782.168 67.421875Q782.6368 67.078125 782.8555 66.59375L782.8555 66.15625Q782.8555 65.09375 782.3868 64.421875Q781.918 63.75 781.2149 63.75Q780.49615 63.75 780.05865 64.296875Q779.6368 64.84375 779.6368 65.75Q779.6368 66.625 780.043 67.1875Q780.4649 67.75 781.168 67.75ZM791.2774 71.5L785.68365 71.5L785.68365 70.71875L788.6368 67.4375Q789.293 66.6875 789.543 66.234375Q789.793 65.765625 789.793 65.265625Q789.793 64.59375 789.3868 64.171875Q788.99615 63.734375 788.30865 63.734375Q787.5118 63.734375 787.05865 64.203125Q786.6055 64.65625 786.6055 65.484375L785.5274 65.484375Q785.5274 64.296875 786.2774 63.578125Q787.043 62.84375 788.30865 62.84375Q789.5118 62.84375 790.1993 63.46875Q790.8868 64.09375 790.8868 65.140625Q790.8868 66.390625 789.2774 68.140625L786.99615 70.609375L791.2774 70.609375L791.2774 71.5Z" fill-rule="nonzero"/><path stroke="#ffffff" stroke-width="3.0" stroke-linejoin="round" stroke-linecap="round" d="M547.8626 93.75Q547.5345 94.15625 547.0501 94.40625Q546.58136 94.640625 546.01886 94.640625Q545.2845 94.640625 544.7376 94.28125Q544.19073 93.921875 543.89386 93.265625Q543.597 92.59375 543.597 91.796875Q543.597 90.953125 543.9095 90.265625Q544.2376 89.578125 544.83136 89.21875Q545.44073 88.84375 546.2376 88.84375Q547.50323 88.84375 548.222 89.796875Q548.95636 90.75 548.95636 92.375L548.95636 92.6875Q548.95636 95.1875 547.972 96.328125Q546.9876 97.46875 545.00323 97.5L544.7845 97.5L544.7845 96.59375L545.01886 96.59375Q546.3626 96.5625 547.08136 95.890625Q547.8001 95.21875 547.8626 93.75ZM546.19073 93.75Q546.7376 93.75 547.19073 93.421875Q547.6595 93.078125 547.87823 92.59375L547.87823 92.15625Q547.87823 91.09375 547.4095 90.421875Q546.94073 89.75 546.2376 89.75Q545.51886 89.75 545.08136 90.296875Q544.6595 90.84375 544.6595 91.75Q544.6595 92.625 545.06573 93.1875Q545.4876 93.75 546.19073 93.75ZM554.8626 93.75Q554.5345 94.15625 554.0501 94.40625Q553.58136 94.640625 553.01886 94.640625Q552.2845 94.640625 551.7376 94.28125Q551.19073 93.921875 550.89386 93.265625Q550.597 92.59375 550.597 91.796875Q550.597 90.953125 550.9095 90.265625Q551.2376 89.578125 551.83136 89.21875Q552.44073 88.84375 553.2376 88.84375Q554.50323 88.84375 555.222 89.796875Q555.95636 90.75 555.95636 92.375L555.95636 92.6875Q555.95636 95.1875 554.972 96.328125Q553.9876 97.46875 552.00323 97.5L551.7845 97.5L551.7845 96.59375L552.01886 96.59375Q553.3626 96.5625 554.08136 95.890625Q554.8001 95.21875 554.8626 93.75ZM553.19073 93.75Q553.7376 93.75 554.19073 93.421875Q554.6595 93.078125 554.87823 92.59375L554.87823 92.15625Q554.87823 91.09375 554.4095 90.421875Q553.94073 89.75 553.2376 89.75Q552.51886 89.75 552.08136 90.296875Q551.6595 90.84375 551.6595 91.75Q551.6595 92.625 552.06573 93.1875Q552.4876 93.75 553.19073 93.75ZM561.972 88.96875L561.972 89.875L561.76886 89.875Q560.50323 89.90625 559.75323 90.640625Q559.00323 91.359375 558.87823 92.671875Q559.56573 91.90625 560.722 91.90625Q561.83136 91.90625 562.50323 92.6875Q563.1751 93.46875 563.1751 94.71875Q563.1751 96.03125 562.45636 96.828125Q561.7376 97.625 560.51886 97.625Q559.3001 97.625 558.5345 96.6875Q557.7845 95.734375 557.7845 94.25L557.7845 93.84375Q557.7845 91.484375 558.7845 90.234375Q559.7845 88.984375 561.76886 88.96875L561.972 88.96875ZM560.5501 92.8125Q559.9876 92.8125 559.51886 93.140625Q559.0501 93.46875 558.8626 93.984375L558.8626 94.375Q558.8626 95.4375 559.33136 96.078125Q559.81573 96.71875 560.51886 96.71875Q561.25323 96.71875 561.6751 96.1875Q562.097 95.640625 562.097 94.765625Q562.097 93.890625 561.6751 93.359375Q561.25323 92.8125 560.5501 92.8125ZM569.89386 91.1875Q569.89386 91.828125 569.5501 92.328125Q569.20636 92.828125 568.64386 93.109375Q569.3001 93.390625 569.69073 93.953125Q570.08136 94.5 570.08136 95.203125Q570.08136 96.296875 569.33136 96.96875Q568.597 97.625 567.37823 97.625Q566.14386 97.625 565.39386 96.96875Q564.6595 96.296875 564.6595 95.203125Q564.6595 94.5 565.0345 93.953125Q565.4095 93.390625 566.08136 93.109375Q565.51886 92.828125 565.19073 92.328125Q564.8626 91.828125 564.8626 91.1875Q564.8626 90.109375 565.5501 89.484375Q566.2376 88.84375 567.37823 88.84375Q568.50323 88.84375 569.19073 89.484375Q569.89386 90.109375 569.89386 91.1875ZM569.00323 95.171875Q569.00323 94.453125 568.5501 94.015625Q568.097 93.5625 567.3626 93.5625Q566.62823 93.5625 566.1751 94.015625Q565.7376 94.453125 565.7376 95.1875Q565.7376 95.90625 566.1751 96.328125Q566.6126 96.734375 567.37823 96.734375Q568.12823 96.734375 568.56573 96.3125Q569.00323 95.890625 569.00323 95.171875ZM567.37823 89.734375Q566.7376 89.734375 566.33136 90.140625Q565.94073 90.53125 565.94073 91.21875Q565.94073 91.859375 566.33136 92.265625Q566.722 92.671875 567.3626 92.671875Q568.01886 92.671875 568.4095 92.265625Q568.8001 91.859375 568.8001 91.21875Q568.8001 90.5625 568.39386 90.15625Q567.9876 89.734375 567.37823 89.734375Z" fill-rule="nonzero"/><path fill="#db4437" d="M547.8626 93.75Q547.5345 94.15625 547.0501 94.40625Q546.58136 94.640625 546.01886 94.640625Q545.2845 94.640625 544.7376 94.28125Q544.19073 93.921875 543.89386 93.265625Q543.597 92.59375 543.597 91.796875Q543.597 90.953125 543.9095 90.265625Q544.2376 89.578125 544.83136 89.21875Q545.44073 88.84375 546.2376 88.84375Q547.50323 88.84375 548.222 89.796875Q548.95636 90.75 548.95636 92.375L548.95636 92.6875Q548.95636 95.1875 547.972 96.328125Q546.9876 97.46875 545.00323 97.5L544.7845 97.5L544.7845 96.59375L545.01886 96.59375Q546.3626 96.5625 547.08136 95.890625Q547.8001 95.21875 547.8626 93.75ZM546.19073 93.75Q546.7376 93.75 547.19073 93.421875Q547.6595 93.078125 547.87823 92.59375L547.87823 92.15625Q547.87823 91.09375 547.4095 90.421875Q546.94073 89.75 546.2376 89.75Q545.51886 89.75 545.08136 90.296875Q544.6595 90.84375 544.6595 91.75Q544.6595 92.625 545.06573 93.1875Q545.4876 93.75 546.19073 93.75ZM554.8626 93.75Q554.5345 94.15625 554.0501 94.40625Q553.58136 94.640625 553.01886 94.640625Q552.2845 94.640625 551.7376 94.28125Q551.19073 93.921875 550.89386 93.265625Q550.597 92.59375 550.597 91.796875Q550.597 90.953125 550.9095 90.265625Q551.2376 89.578125 551.83136 89.21875Q552.44073 88.84375 553.2376 88.84375Q554.50323 88.84375 555.222 89.796875Q555.95636 90.75 555.95636 92.375L555.95636 92.6875Q555.95636 95.1875 554.972 96.328125Q553.9876 97.46875 552.00323 97.5L551.7845 97.5L551.7845 96.59375L552.01886 96.59375Q553.3626 96.5625 554.08136 95.890625Q554.8001 95.21875 554.8626 93.75ZM553.19073 93.75Q553.7376 93.75 554.19073 93.421875Q554.6595 93.078125 554.87823 92.59375L554.87823 92.15625Q554.87823 91.09375 554.4095 90.421875Q553.94073 89.75 553.2376 89.75Q552.51886 89.75 552.08136 90.296875Q551.6595 90.84375 551.6595 91.75Q551.6595 92.625 552.06573 93.1875Q552.4876 93.75 553.19073 93.75ZM561.972 88.96875L561.972 89.875L561.76886 89.875Q560.50323 89.90625 559.75323 90.640625Q559.00323 91.359375 558.87823 92.671875Q559.56573 91.90625 560.722 91.90625Q561.83136 91.90625 562.50323 92.6875Q563.1751 93.46875 563.1751 94.71875Q563.1751 96.03125 562.45636 96.828125Q561.7376 97.625 560.51886 97.625Q559.3001 97.625 558.5345 96.6875Q557.7845 95.734375 557.7845 94.25L557.7845 93.84375Q557.7845 91.484375 558.7845 90.234375Q559.7845 88.984375 561.76886 88.96875L561.972 88.96875ZM560.5501 92.8125Q559.9876 92.8125 559.51886 93.140625Q559.0501 93.46875 558.8626 93.984375L558.8626 94.375Q558.8626 95.4375 559.33136 96.078125Q559.81573 96.71875 560.51886 96.71875Q561.25323 96.71875 561.6751 96.1875Q562.097 95.640625 562.097 94.765625Q562.097 93.890625 561.6751 93.359375Q561.25323 92.8125 560.5501 92.8125ZM569.89386 91.1875Q569.89386 91.828125 569.5501 92.328125Q569.20636 92.828125 568.64386 93.109375Q569.3001 93.390625 569.69073 93.953125Q570.08136 94.5 570.08136 95.203125Q570.08136 96.296875 569.33136 96.96875Q568.597 97.625 567.37823 97.625Q566.14386 97.625 565.39386 96.96875Q564.6595 96.296875 564.6595 95.203125Q564.6595 94.5 565.0345 93.953125Q565.4095 93.390625 566.08136 93.109375Q565.51886 92.828125 565.19073 92.328125Q564.8626 91.828125 564.8626 91.1875Q564.8626 90.109375 565.5501 89.484375Q566.2376 88.84375 567.37823 88.84375Q568.50323 88.84375 569.19073 89.484375Q569.89386 90.109375 569.89386 91.1875ZM569.00323 95.171875Q569.00323 94.453125 568.5501 94.015625Q568.097 93.5625 567.3626 93.5625Q566.62823 93.5625 566.1751 94.015625Q565.7376 94.453125 565.7376 95.1875Q565.7376 95.90625 566.1751 96.328125Q566.6126 96.734375 567.37823 96.734375Q568.12823 96.734375 568.56573 96.3125Q569.00323 95.890625 569.00323 95.171875ZM567.37823 89.734375Q566.7376 89.734375 566.33136 90.140625Q565.94073 90.53125 565.94073 91.21875Q565.94073 91.859375 566.33136 92.265625Q566.722 92.671875 567.3626 92.671875Q568.01886 92.671875 568.4095 92.265625Q568.8001 91.859375 568.8001 91.21875Q568.8001 90.5625 568.39386 90.15625Q567.9876 89.734375 567.37823 89.734375Z" fill-rule="nonzero"/><path stroke="#ffffff" stroke-width="3.0" stroke-linejoin="round" stroke-linecap="round" d="M374.37527 114.96875L374.37527 115.875L374.17215 115.875Q372.90652 115.90625 372.15652 116.640625Q371.40652 117.359375 371.28152 118.671875Q371.96902 117.90625 373.12527 117.90625Q374.23465 117.90625 374.90652 118.6875Q375.5784 119.46875 375.5784 120.71875Q375.5784 122.03125 374.85965 122.828125Q374.1409 123.625 372.92215 123.625Q371.7034 123.625 370.93777 122.6875Q370.18777 121.734375 370.18777 120.25L370.18777 119.84375Q370.18777 117.484375 371.18777 116.234375Q372.18777 114.984375 374.17215 114.96875L374.37527 114.96875ZM372.9534 118.8125Q372.3909 118.8125 371.92215 119.140625Q371.4534 119.46875 371.2659 119.984375L371.2659 120.375Q371.2659 121.4375 371.73465 122.078125Q372.21902 122.71875 372.92215 122.71875Q373.65652 122.71875 374.0784 122.1875Q374.50027 121.640625 374.50027 120.765625Q374.50027 119.890625 374.0784 119.359375Q373.65652 118.8125 372.9534 118.8125ZM381.68777 120.640625L382.87527 120.640625L382.87527 121.515625L381.68777 121.515625L381.68777 123.5L380.60965 123.5L380.60965 121.515625L376.71902 121.515625L376.71902 120.875L380.53152 114.96875L381.68777 114.96875L381.68777 120.640625ZM377.9534 120.640625L380.60965 120.640625L380.60965 116.453125L380.46902 116.6875L377.9534 120.640625ZM388.37527 114.96875L388.37527 115.875L388.17215 115.875Q386.90652 115.90625 386.15652 116.640625Q385.40652 117.359375 385.28152 118.671875Q385.96902 117.90625 387.12527 117.90625Q388.23465 117.90625 388.90652 118.6875Q389.5784 119.46875 389.5784 120.71875Q389.5784 122.03125 388.85965 122.828125Q388.1409 123.625 386.92215 123.625Q385.7034 123.625 384.93777 122.6875Q384.18777 121.734375 384.18777 120.25L384.18777 119.84375Q384.18777 117.484375 385.18777 116.234375Q386.18777 114.984375 388.17215 114.96875L388.37527 114.96875ZM386.9534 118.8125Q386.3909 118.8125 385.92215 119.140625Q385.4534 119.46875 385.2659 119.984375L385.2659 120.375Q385.2659 121.4375 385.73465 122.078125Q386.21902 122.71875 386.92215 122.71875Q387.65652 122.71875 388.0784 122.1875Q388.50027 121.640625 388.50027 120.765625Q388.50027 119.890625 388.0784 119.359375Q387.65652 118.8125 386.9534 118.8125ZM396.46902 119.859375Q396.46902 121.765625 395.81277 122.703125Q395.17215 123.625 393.78152 123.625Q392.42215 123.625 391.7659 122.71875Q391.10965 121.8125 391.0784 120.0L391.0784 118.5625Q391.0784 116.671875 391.71902 115.765625Q392.37527 114.84375 393.7659 114.84375Q395.1409 114.84375 395.79715 115.734375Q396.4534 116.609375 396.46902 118.453125L396.46902 119.859375ZM395.37527 118.375Q395.37527 117.0 394.98465 116.375Q394.60965 115.734375 393.7659 115.734375Q392.93777 115.734375 392.54715 116.375Q392.17215 117.0 392.17215 118.296875L392.17215 120.03125Q392.17215 121.40625 392.56277 122.078125Q392.96902 122.734375 393.78152 122.734375Q394.5784 122.734375 394.96902 122.109375Q395.35965 121.484375 395.37527 120.15625L395.37527 118.375Z" fill-rule="nonzero"/><path fill="#38761d" d="M374.37527 114.96875L374.37527 115.875L374.17215 115.875Q372.90652 115.90625 372.15652 116.640625Q371.40652 117.359375 371.28152 118.671875Q371.96902 117.90625 373.12527 117.90625Q374.23465 117.90625 374.90652 118.6875Q375.5784 119.46875 375.5784 120.71875Q375.5784 122.03125 374.85965 122.828125Q374.1409 123.625 372.92215 123.625Q371.7034 123.625 370.93777 122.6875Q370.18777 121.734375 370.18777 120.25L370.18777 119.84375Q370.18777 117.484375 371.18777 116.234375Q372.18777 114.984375 374.17215 114.96875L374.37527 114.96875ZM372.9534 118.8125Q372.3909 118.8125 371.92215 119.140625Q371.4534 119.46875 371.2659 119.984375L371.2659 120.375Q371.2659 121.4375 371.73465 122.078125Q372.21902 122.71875 372.92215 122.71875Q373.65652 122.71875 374.0784 122.1875Q374.50027 121.640625 374.50027 120.765625Q374.50027 119.890625 374.0784 119.359375Q373.65652 118.8125 372.9534 118.8125ZM381.68777 120.640625L382.87527 120.640625L382.87527 121.515625L381.68777 121.515625L381.68777 123.5L380.60965 123.5L380.60965 121.515625L376.71902 121.515625L376.71902 120.875L380.53152 114.96875L381.68777 114.96875L381.68777 120.640625ZM377.9534 120.640625L380.60965 120.640625L380.60965 116.453125L380.46902 116.6875L377.9534 120.640625ZM388.37527 114.96875L388.37527 115.875L388.17215 115.875Q386.90652 115.90625 386.15652 116.640625Q385.40652 117.359375 385.28152 118.671875Q385.96902 117.90625 387.12527 117.90625Q388.23465 117.90625 388.90652 118.6875Q389.5784 119.46875 389.5784 120.71875Q389.5784 122.03125 388.85965 122.828125Q388.1409 123.625 386.92215 123.625Q385.7034 123.625 384.93777 122.6875Q384.18777 121.734375 384.18777 120.25L384.18777 119.84375Q384.18777 117.484375 385.18777 116.234375Q386.18777 114.984375 388.17215 114.96875L388.37527 114.96875ZM386.9534 118.8125Q386.3909 118.8125 385.92215 119.140625Q385.4534 119.46875 385.2659 119.984375L385.2659 120.375Q385.2659 121.4375 385.73465 122.078125Q386.21902 122.71875 386.92215 122.71875Q387.65652 122.71875 388.0784 122.1875Q388.50027 121.640625 388.50027 120.765625Q388.50027 119.890625 388.0784 119.359375Q387.65652 118.8125 386.9534 118.8125ZM396.46902 119.859375Q396.46902 121.765625 395.81277 122.703125Q395.17215 123.625 393.78152 123.625Q392.42215 123.625 391.7659 122.71875Q391.10965 121.8125 391.0784 120.0L391.0784 118.5625Q391.0784 116.671875 391.71902 115.765625Q392.37527 114.84375 393.7659 114.84375Q395.1409 114.84375 395.79715 115.734375Q396.4534 116.609375 396.46902 118.453125L396.46902 119.859375ZM395.37527 118.375Q395.37527 117.0 394.98465 116.375Q394.60965 115.734375 393.7659 115.734375Q392.93777 115.734375 392.54715 116.375Q392.17215 117.0 392.17215 118.296875L392.17215 120.03125Q392.17215 121.40625 392.56277 122.078125Q392.96902 122.734375 393.78152 122.734375Q394.5784 122.734375 394.96902 122.109375Q395.35965 121.484375 395.37527 120.15625L395.37527 118.375Z" fill-rule="nonzero"/><path fill="#424242" d="M313.57504 217.09625L309.9813 217.09625L309.9813 220.86188L308.8563 220.86188L308.8563 212.33063L314.15317 212.33063L314.15317 213.2525L309.9813 213.2525L309.9813 216.17438L313.57504 216.17438L313.57504 217.09625ZM316.87192 220.86188L315.7938 220.86188L315.7938 211.86188L316.87192 211.86188L316.87192 220.86188ZM322.6063 220.86188Q322.51254 220.67438 322.45004 220.19Q321.70004 220.98688 320.65317 220.98688Q319.71567 220.98688 319.1063 220.45563Q318.51254 219.92438 318.51254 219.09625Q318.51254 218.11188 319.26254 217.565Q320.01254 217.01813 321.38754 217.01813L322.43442 217.01813L322.43442 216.51813Q322.43442 215.95563 322.09067 215.6275Q321.76254 215.28375 321.09067 215.28375Q320.51254 215.28375 320.12192 215.58063Q319.7313 215.86188 319.7313 216.28375L318.63754 216.28375Q318.63754 215.79938 318.96567 215.36188Q319.30942 214.92438 319.88754 214.67438Q320.46567 214.40875 321.15317 214.40875Q322.26254 214.40875 322.87192 214.95563Q323.49692 215.5025 323.52817 216.45563L323.52817 219.3775Q323.52817 220.2525 323.74692 220.76813L323.74692 220.86188L322.6063 220.86188ZM320.80942 220.03375Q321.32504 220.03375 321.77817 219.76813Q322.2313 219.5025 322.43442 219.08063L322.43442 217.78375L321.59067 217.78375Q319.59067 217.78375 319.59067 218.95563Q319.59067 219.45563 319.93442 219.7525Q320.27817 220.03375 320.80942 220.03375ZM329.38754 219.17438Q329.38754 218.73688 329.0438 218.5025Q328.71567 218.2525 327.88754 218.08063Q327.07504 217.90875 326.59067 217.65875Q326.1063 217.40875 325.87192 217.08063Q325.65317 216.73688 325.65317 216.26813Q325.65317 215.48688 326.30942 214.95563Q326.96567 214.40875 327.99692 214.40875Q329.07504 214.40875 329.7313 214.97125Q330.40317 215.51813 330.40317 216.3775L329.32504 216.3775Q329.32504 215.94 328.93442 215.6275Q328.55942 215.29938 327.99692 215.29938Q327.40317 215.29938 327.05942 215.565Q326.7313 215.815 326.7313 216.22125Q326.7313 216.61188 327.0438 216.815Q327.3563 217.01813 328.1688 217.20563Q328.9813 217.3775 329.4813 217.6275Q329.9813 217.8775 330.21567 218.23688Q330.46567 218.59625 330.46567 219.09625Q330.46567 219.95563 329.77817 220.47125Q329.1063 220.98688 328.02817 220.98688Q327.26254 220.98688 326.6688 220.72125Q326.09067 220.44 325.76254 219.95563Q325.43442 219.47125 325.43442 218.90875L326.51254 218.90875Q326.5438 219.45563 326.95004 219.78375Q327.3563 220.09625 328.02817 220.09625Q328.63754 220.09625 329.01254 219.84625Q329.38754 219.59625 329.38754 219.17438ZM332.77817 215.28375Q333.49692 214.40875 334.65317 214.40875Q336.6688 214.40875 336.68442 216.67438L336.68442 220.86188L335.59067 220.86188L335.59067 216.65875Q335.59067 215.98688 335.27817 215.65875Q334.9813 215.33063 334.32504 215.33063Q333.7938 215.33063 333.38754 215.61188Q332.99692 215.89313 332.77817 216.34625L332.77817 220.86188L331.70004 220.86188L331.70004 211.86188L332.77817 211.86188L332.77817 215.28375ZM338.90317 221.59625L337.9813 221.59625L341.5438 212.33063L342.46567 212.33063L338.90317 221.59625ZM344.9813 217.51813L344.9813 220.86188L343.8563 220.86188L343.8563 212.33063L347.01254 212.33063Q348.40317 212.33063 349.20004 213.04938Q349.99692 213.7525 349.99692 214.94Q349.99692 216.17438 349.21567 216.84625Q348.45004 217.51813 346.99692 217.51813L344.9813 217.51813ZM344.9813 216.59625L347.01254 216.59625Q347.9188 216.59625 348.38754 216.17438Q348.87192 215.7525 348.87192 214.95563Q348.87192 214.19 348.38754 213.73688Q347.9188 213.26813 347.07504 213.2525L344.9813 213.2525L344.9813 216.59625ZM354.99692 217.40875L352.9813 217.40875L352.9813 220.86188L351.8563 220.86188L351.8563 212.33063L354.68442 212.33063Q356.12192 212.33063 356.88754 212.98688Q357.6688 213.64313 357.6688 214.89313Q357.6688 215.69 357.2313 216.28375Q356.80942 216.8775 356.0438 217.17438L358.0438 220.78375L358.0438 220.86188L356.84067 220.86188L354.99692 217.40875ZM352.9813 216.48688L354.71567 216.48688Q355.55942 216.48688 356.0438 216.065Q356.5438 215.6275 356.5438 214.89313Q356.5438 214.11188 356.07504 213.69Q355.6063 213.26813 354.71567 213.2525L352.9813 213.2525L352.9813 216.48688ZM365.4188 216.8775Q365.4188 218.1275 364.99692 219.065Q364.57504 219.98688 363.7938 220.48688Q363.02817 220.98688 361.99692 220.98688Q360.99692 220.98688 360.21567 220.48688Q359.43442 219.98688 358.99692 219.08063Q358.57504 218.15875 358.55942 216.94L358.55942 216.33063Q358.55942 215.09625 358.9813 214.15875Q359.4188 213.22125 360.20004 212.72125Q360.9813 212.20563 361.99692 212.20563Q363.01254 212.20563 363.7938 212.70563Q364.57504 213.20563 364.99692 214.14313Q365.4188 215.08063 365.4188 216.33063L365.4188 216.8775ZM364.30942 216.315Q364.30942 214.79938 363.70004 213.98688Q363.09067 213.17438 361.99692 213.17438Q360.9188 213.17438 360.30942 213.98688Q359.70004 214.79938 359.68442 216.23688L359.68442 216.8775Q359.68442 218.34625 360.2938 219.19Q360.9188 220.01813 361.99692 220.01813Q363.09067 220.01813 363.68442 219.23688Q364.2938 218.44 364.30942 216.95563L364.30942 216.315ZM373.1688 219.73688Q372.7313 220.36188 371.95004 220.67438Q371.1688 220.98688 370.13754 220.98688Q369.1063 220.98688 368.2938 220.5025Q367.4813 220.0025 367.0438 219.09625Q366.6063 218.19 366.59067 217.0025L366.59067 216.26813Q366.59067 214.33063 367.4813 213.26813Q368.38754 212.20563 370.01254 212.20563Q371.3563 212.20563 372.1688 212.89313Q372.9813 213.58063 373.1688 214.83063L372.0438 214.83063Q371.71567 213.14313 370.02817 213.14313Q368.88754 213.14313 368.30942 213.94Q367.7313 214.72125 367.71567 216.23688L367.71567 216.92438Q367.71567 218.36188 368.37192 219.22125Q369.02817 220.065 370.15317 220.065Q370.77817 220.065 371.24692 219.92438Q371.7313 219.78375 372.0438 219.44L372.0438 217.53375L370.07504 217.53375L370.07504 216.61188L373.1688 216.61188L373.1688 219.73688ZM377.99692 217.40875L375.9813 217.40875L375.9813 220.86188L374.8563 220.86188L374.8563 212.33063L377.68442 212.33063Q379.12192 212.33063 379.88754 212.98688Q380.6688 213.64313 380.6688 214.89313Q380.6688 215.69 380.2313 216.28375Q379.80942 216.8775 379.0438 217.17438L381.0438 220.78375L381.0438 220.86188L379.84067 220.86188L377.99692 217.40875ZM375.9813 216.48688L377.71567 216.48688Q378.55942 216.48688 379.0438 216.065Q379.5438 215.6275 379.5438 214.89313Q379.5438 214.11188 379.07504 213.69Q378.6063 213.26813 377.71567 213.2525L375.9813 213.2525L375.9813 216.48688ZM386.57504 218.6275L382.99692 218.6275L382.20004 220.86188L381.0438 220.86188L384.2938 212.33063L385.27817 212.33063L388.5438 220.86188L387.38754 220.86188L386.57504 218.6275ZM383.34067 217.70563L386.24692 217.70563L384.7938 213.72125L383.34067 217.70563ZM391.30942 212.33063L394.1063 219.28375L396.88754 212.33063L398.3563 212.33063L398.3563 220.86188L397.2313 220.86188L397.2313 217.53375L397.34067 213.95563L394.52817 220.86188L393.6688 220.86188L390.87192 213.97125L390.9813 217.53375L390.9813 220.86188L389.8563 220.86188L389.8563 212.33063L391.30942 212.33063ZM405.37192 217.065Q403.93442 216.64313 403.26254 216.03375Q402.6063 215.42438 402.6063 214.53375Q402.6063 213.53375 403.40317 212.8775Q404.21567 212.20563 405.51254 212.20563Q406.38754 212.20563 407.07504 212.54938Q407.76254 212.89313 408.13754 213.48688Q408.52817 214.08063 408.52817 214.79938L407.38754 214.79938Q407.38754 214.01813 406.88754 213.58063Q406.40317 213.14313 405.51254 213.14313Q404.68442 213.14313 404.21567 213.51813Q403.74692 213.8775 403.74692 214.51813Q403.74692 215.04938 404.18442 215.40875Q404.63754 215.76813 405.70004 216.065Q406.76254 216.36188 407.3563 216.72125Q407.96567 217.08063 408.24692 217.565Q408.5438 218.04938 408.5438 218.69Q408.5438 219.73688 407.7313 220.36188Q406.9188 220.98688 405.57504 220.98688Q404.68442 220.98688 403.9188 220.64313Q403.1688 220.29938 402.74692 219.72125Q402.34067 219.1275 402.34067 218.39313L403.46567 218.39313Q403.46567 219.15875 404.0438 219.61188Q404.62192 220.065 405.57504 220.065Q406.46567 220.065 406.93442 219.70563Q407.40317 219.33063 407.40317 218.70563Q407.40317 218.08063 406.96567 217.73688Q406.52817 217.39313 405.37192 217.065ZM410.87192 220.86188L409.7938 220.86188L409.7938 214.51813L410.87192 214.51813L410.87192 220.86188ZM409.70004 212.84625Q409.70004 212.58063 409.8563 212.39313Q410.02817 212.20563 410.34067 212.20563Q410.65317 212.20563 410.80942 212.39313Q410.9813 212.58063 410.9813 212.84625Q410.9813 213.09625 410.80942 213.28375Q410.65317 213.45563 410.34067 213.45563Q410.02817 213.45563 409.8563 213.28375Q409.70004 213.09625 409.70004 212.84625ZM413.71567 219.97125L417.4188 219.97125L417.4188 220.86188L412.38754 220.86188L412.38754 220.065L415.88754 215.42438L412.43442 215.42438L412.43442 214.51813L417.24692 214.51813L417.24692 215.28375L413.71567 219.97125ZM421.32504 220.98688Q420.02817 220.98688 419.21567 220.14313Q418.4188 219.28375 418.4188 217.86188L418.4188 217.67438Q418.4188 216.72125 418.77817 215.98688Q419.13754 215.23688 419.77817 214.83063Q420.43442 214.40875 421.18442 214.40875Q422.4188 214.40875 423.1063 215.22125Q423.7938 216.03375 423.7938 217.54938L423.7938 218.0025L419.49692 218.0025Q419.52817 218.94 420.0438 219.51813Q420.57504 220.09625 421.38754 220.09625Q421.95004 220.09625 422.34067 219.86188Q422.74692 219.6275 423.05942 219.23688L423.71567 219.7525Q422.9188 220.98688 421.32504 220.98688ZM421.18442 215.29938Q420.52817 215.29938 420.07504 215.78375Q419.63754 216.2525 419.5438 217.11188L422.71567 217.11188L422.71567 217.03375Q422.6688 216.20563 422.26254 215.7525Q421.87192 215.29938 421.18442 215.29938ZM427.65317 217.39313Q427.65317 216.08063 427.99692 214.86188Q428.3563 213.64313 429.05942 212.64313Q429.76254 211.64313 430.52817 211.23688L430.74692 211.95563Q429.88754 212.61188 429.34067 213.95563Q428.7938 215.29938 428.74692 216.97125L428.7313 217.47125Q428.7313 219.73688 429.55942 221.39313Q430.05942 222.39313 430.74692 222.95563L430.52817 223.61188Q429.74692 223.19 429.02817 222.15875Q427.65317 220.17438 427.65317 217.39313ZM432.87192 220.86188L431.7938 220.86188L431.7938 211.86188L432.87192 211.86188L432.87192 220.86188ZM434.40317 217.6275Q434.40317 216.70563 434.76254 215.95563Q435.13754 215.20563 435.7938 214.815Q436.45004 214.40875 437.27817 214.40875Q438.57504 214.40875 439.37192 215.29938Q440.18442 216.19 440.18442 217.69L440.18442 217.76813Q440.18442 218.69 439.82504 219.42438Q439.46567 220.15875 438.80942 220.58063Q438.15317 220.98688 437.2938 220.98688Q436.01254 220.98688 435.20004 220.09625Q434.40317 219.19 434.40317 217.70563L434.40317 217.6275ZM435.49692 217.76813Q435.49692 218.815 435.9813 219.45563Q436.4813 220.09625 437.2938 220.09625Q438.12192 220.09625 438.6063 219.45563Q439.09067 218.79938 439.09067 217.6275Q439.09067 216.59625 438.59067 215.95563Q438.1063 215.29938 437.27817 215.29938Q436.4813 215.29938 435.9813 215.94Q435.49692 216.565 435.49692 217.76813ZM447.30942 219.36188L448.52817 214.51813L449.6063 214.51813L447.76254 220.86188L446.88754 220.86188L445.34067 216.04938L443.84067 220.86188L442.96567 220.86188L441.12192 214.51813L442.20004 214.51813L443.45004 219.26813L444.93442 214.51813L445.7938 214.51813L447.30942 219.36188ZM453.32504 220.98688Q452.02817 220.98688 451.21567 220.14313Q450.4188 219.28375 450.4188 217.86188L450.4188 217.67438Q450.4188 216.72125 450.77817 215.98688Q451.13754 215.23688 451.77817 214.83063Q452.43442 214.40875 453.18442 214.40875Q454.4188 214.40875 455.1063 215.22125Q455.7938 216.03375 455.7938 217.54938L455.7938 218.0025L451.49692 218.0025Q451.52817 218.94 452.0438 219.51813Q452.57504 220.09625 453.38754 220.09625Q453.95004 220.09625 454.34067 219.86188Q454.74692 219.6275 455.05942 219.23688L455.71567 219.7525Q454.9188 220.98688 453.32504 220.98688ZM453.18442 215.29938Q452.52817 215.29938 452.07504 215.78375Q451.63754 216.2525 451.5438 217.11188L454.71567 217.11188L454.71567 217.03375Q454.6688 216.20563 454.26254 215.7525Q453.87192 215.29938 453.18442 215.29938ZM459.76254 215.48688Q459.51254 215.45563 459.2313 215.45563Q458.15317 215.45563 457.77817 216.36188L457.77817 220.86188L456.70004 220.86188L456.70004 214.51813L457.74692 214.51813L457.76254 215.2525Q458.2938 214.40875 459.27817 214.40875Q459.59067 214.40875 459.76254 214.48688L459.76254 215.48688ZM464.87192 220.86188L463.7938 220.86188L463.7938 214.51813L464.87192 214.51813L464.87192 220.86188ZM463.70004 212.84625Q463.70004 212.58063 463.8563 212.39313Q464.02817 212.20563 464.34067 212.20563Q464.65317 212.20563 464.80942 212.39313Q464.9813 212.58063 464.9813 212.84625Q464.9813 213.09625 464.80942 213.28375Q464.65317 213.45563 464.34067 213.45563Q464.02817 213.45563 463.8563 213.28375Q463.70004 213.09625 463.70004 212.84625ZM470.38754 219.17438Q470.38754 218.73688 470.0438 218.5025Q469.71567 218.2525 468.88754 218.08063Q468.07504 217.90875 467.59067 217.65875Q467.1063 217.40875 466.87192 217.08063Q466.65317 216.73688 466.65317 216.26813Q466.65317 215.48688 467.30942 214.95563Q467.96567 214.40875 468.99692 214.40875Q470.07504 214.40875 470.7313 214.97125Q471.40317 215.51813 471.40317 216.3775L470.32504 216.3775Q470.32504 215.94 469.93442 215.6275Q469.55942 215.29938 468.99692 215.29938Q468.40317 215.29938 468.05942 215.565Q467.7313 215.815 467.7313 216.22125Q467.7313 216.61188 468.0438 216.815Q468.3563 217.01813 469.1688 217.20563Q469.9813 217.3775 470.4813 217.6275Q470.9813 217.8775 471.21567 218.23688Q471.46567 218.59625 471.46567 219.09625Q471.46567 219.95563 470.77817 220.47125Q470.1063 220.98688 469.02817 220.98688Q468.26254 220.98688 467.6688 220.72125Q467.09067 220.44 466.76254 219.95563Q466.43442 219.47125 466.43442 218.90875L467.51254 218.90875Q467.5438 219.45563 467.95004 219.78375Q468.3563 220.09625 469.02817 220.09625Q469.63754 220.09625 470.01254 219.84625Q470.38754 219.59625 470.38754 219.17438ZM481.05942 217.76813Q481.05942 219.22125 480.38754 220.11188Q479.7313 220.98688 478.6063 220.98688Q477.40317 220.98688 476.74692 220.1275L476.68442 220.86188L475.70004 220.86188L475.70004 211.86188L476.77817 211.86188L476.77817 215.22125Q477.43442 214.40875 478.59067 214.40875Q479.74692 214.40875 480.40317 215.28375Q481.05942 216.14313 481.05942 217.67438L481.05942 217.76813ZM479.9813 217.64313Q479.9813 216.53375 479.5438 215.94Q479.12192 215.33063 478.32504 215.33063Q477.24692 215.33063 476.77817 216.315L476.77817 219.065Q477.27817 220.065 478.32504 220.065Q479.1063 220.065 479.5438 219.45563Q479.9813 218.84625 479.9813 217.64313ZM485.32504 220.98688Q484.02817 220.98688 483.21567 220.14313Q482.4188 219.28375 482.4188 217.86188L482.4188 217.67438Q482.4188 216.72125 482.77817 215.98688Q483.13754 215.23688 483.77817 214.83063Q484.43442 214.40875 485.18442 214.40875Q486.4188 214.40875 487.1063 215.22125Q487.7938 216.03375 487.7938 217.54938L487.7938 218.0025L483.49692 218.0025Q483.52817 218.94 484.0438 219.51813Q484.57504 220.09625 485.38754 220.09625Q485.95004 220.09625 486.34067 219.86188Q486.74692 219.6275 487.05942 219.23688L487.71567 219.7525Q486.9188 220.98688 485.32504 220.98688ZM485.18442 215.29938Q484.52817 215.29938 484.07504 215.78375Q483.63754 216.2525 483.5438 217.11188L486.71567 217.11188L486.71567 217.03375Q486.6688 216.20563 486.26254 215.7525Q485.87192 215.29938 485.18442 215.29938ZM490.1688 212.98688L490.1688 214.51813L491.34067 214.51813L491.34067 215.36188L490.1688 215.36188L490.1688 219.28375Q490.1688 219.67438 490.32504 219.86188Q490.4813 220.04938 490.8563 220.04938Q491.0438 220.04938 491.37192 219.98688L491.37192 220.86188Q490.95004 220.98688 490.5438 220.98688Q489.82504 220.98688 489.45004 220.54938Q489.07504 220.09625 489.07504 219.28375L489.07504 215.36188L487.9188 215.36188L487.9188 214.51813L489.07504 214.51813L489.07504 212.98688L490.1688 212.98688ZM494.1688 212.98688L494.1688 214.51813L495.34067 214.51813L495.34067 215.36188L494.1688 215.36188L494.1688 219.28375Q494.1688 219.67438 494.32504 219.86188Q494.4813 220.04938 494.8563 220.04938Q495.0438 220.04938 495.37192 219.98688L495.37192 220.86188Q494.95004 220.98688 494.5438 220.98688Q493.82504 220.98688 493.45004 220.54938Q493.07504 220.09625 493.07504 219.28375L493.07504 215.36188L491.9188 215.36188L491.9188 214.51813L493.07504 214.51813L493.07504 212.98688L494.1688 212.98688ZM499.32504 220.98688Q498.02817 220.98688 497.21567 220.14313Q496.4188 219.28375 496.4188 217.86188L496.4188 217.67438Q496.4188 216.72125 496.77817 215.98688Q497.13754 215.23688 497.77817 214.83063Q498.43442 214.40875 499.18442 214.40875Q500.4188 214.40875 501.1063 215.22125Q501.7938 216.03375 501.7938 217.54938L501.7938 218.0025L497.49692 218.0025Q497.52817 218.94 498.0438 219.51813Q498.57504 220.09625 499.38754 220.09625Q499.95004 220.09625 500.34067 219.86188Q500.74692 219.6275 501.05942 219.23688L501.71567 219.7525Q500.9188 220.98688 499.32504 220.98688ZM499.18442 215.29938Q498.52817 215.29938 498.07504 215.78375Q497.63754 216.2525 497.5438 217.11188L500.71567 217.11188L500.71567 217.03375Q500.6688 216.20563 500.26254 215.7525Q499.87192 215.29938 499.18442 215.29938ZM505.76254 215.48688Q505.51254 215.45563 505.2313 215.45563Q504.15317 215.45563 503.77817 216.36188L503.77817 220.86188L502.70004 220.86188L502.70004 214.51813L503.74692 214.51813L503.76254 215.2525Q504.2938 214.40875 505.27817 214.40875Q505.59067 214.40875 505.76254 214.48688L505.76254 215.48688ZM509.20004 217.45563Q509.20004 218.76813 508.8563 219.97125Q508.51254 221.15875 507.7938 222.17438Q507.09067 223.19 506.32504 223.61188L506.09067 222.95563Q506.99692 222.26813 507.5438 220.815Q508.09067 219.34625 508.1063 217.58063L508.1063 217.39313Q508.1063 216.15875 507.84067 215.09625Q507.59067 214.03375 507.12192 213.20563Q506.6688 212.36188 506.09067 211.89313L506.32504 211.23688Q507.09067 211.65875 507.7938 212.65875Q508.49692 213.65875 508.84067 214.8775Q509.20004 216.08063 509.20004 217.45563Z" fill-rule="nonzero"/><path fill="#757575" d="M31.289772 187.89717Q31.289772 189.80342 30.633522 190.74092Q29.992897 191.6628 28.602272 191.6628Q27.242897 191.6628 26.586647 190.75655Q25.930397 189.8503 25.899147 188.0378L25.899147 186.6003Q25.899147 184.70967 26.539772 183.80342Q27.196022 182.88155 28.586647 182.88155Q29.961647 182.88155 30.617897 183.77217Q31.274147 184.64717 31.289772 186.49092L31.289772 187.89717ZM30.196022 186.4128Q30.196022 185.0378 29.805397 184.4128Q29.430397 183.77217 28.586647 183.77217Q27.758522 183.77217 27.367897 184.4128Q26.992897 185.0378 26.992897 186.33467L26.992897 188.06905Q26.992897 189.44405 27.383522 190.11592Q27.789772 190.77217 28.602272 190.77217Q29.399147 190.77217 29.789772 190.14717Q30.180397 189.52217 30.196022 188.19405L30.196022 186.4128ZM38.383522 187.56905L37.336647 188.64717L37.336647 191.5378L36.211647 191.5378L36.211647 183.00655L37.336647 183.00655L37.336647 187.2253L41.133522 183.00655L42.492897 183.00655L39.133522 186.77217L42.758522 191.5378L41.414772 191.5378L38.383522 187.56905ZM44.211647 191.5378L44.211647 183.00655L47.008522 183.00655Q48.399147 183.00655 49.086647 183.58467Q49.789772 184.14717 49.789772 185.27217Q49.789772 185.88155 49.446022 186.3503Q49.117897 186.80342 48.524147 187.05342Q49.227272 187.24092 49.617897 187.7878Q50.024147 188.31905 50.024147 189.06905Q50.024147 190.2253 49.274147 190.88155Q48.539772 191.5378 47.180397 191.5378L44.211647 191.5378ZM45.336647 187.55342L45.336647 190.61592L47.196022 190.61592Q47.992897 190.61592 48.446022 190.20967Q48.899147 189.80342 48.899147 189.08467Q48.899147 187.55342 47.211647 187.55342L45.336647 187.55342ZM45.336647 186.64717L47.039772 186.64717Q47.774147 186.64717 48.211647 186.2878Q48.664772 185.9128 48.664772 185.27217Q48.664772 184.56905 48.258522 184.25655Q47.852272 183.92842 47.008522 183.92842L45.336647 183.92842L45.336647 186.64717Z" fill-rule="nonzero"/><path fill="#757575" d="M273.86017 187.25655L274.29767 183.00655L278.67267 183.00655L278.67267 184.00655L275.21954 184.00655L274.95392 186.33467Q275.59454 185.95967 276.39142 185.95967Q277.54767 185.95967 278.23517 186.74092Q278.92267 187.50655 278.92267 188.81905Q278.92267 190.13155 278.20392 190.89717Q277.5008 191.6628 276.21954 191.6628Q275.09454 191.6628 274.3758 191.0378Q273.65704 190.39717 273.5633 189.2878L274.57892 189.2878Q274.6883 190.02217 275.11017 190.39717Q275.53204 190.77217 276.21954 190.77217Q276.96954 190.77217 277.40704 190.25655Q277.84454 189.74092 277.84454 188.83467Q277.84454 187.9753 277.3758 187.45967Q276.90704 186.94405 276.1258 186.94405Q275.42267 186.94405 275.01642 187.24092L274.73517 187.4753L273.86017 187.25655ZM285.8133 187.56905L284.76642 188.64717L284.76642 191.5378L283.64142 191.5378L283.64142 183.00655L284.76642 183.00655L284.76642 187.2253L288.5633 183.00655L289.92267 183.00655L286.5633 186.77217L290.1883 191.5378L288.84454 191.5378L285.8133 187.56905ZM291.64142 191.5378L291.64142 183.00655L294.4383 183.00655Q295.82892 183.00655 296.51642 183.58467Q297.21954 184.14717 297.21954 185.27217Q297.21954 185.88155 296.8758 186.3503Q296.54767 186.80342 295.95392 187.05342Q296.65704 187.24092 297.04767 187.7878Q297.45392 188.31905 297.45392 189.06905Q297.45392 190.2253 296.70392 190.88155Q295.96954 191.5378 294.61017 191.5378L291.64142 191.5378ZM292.76642 187.55342L292.76642 190.61592L294.6258 190.61592Q295.42267 190.61592 295.8758 190.20967Q296.32892 189.80342 296.32892 189.08467Q296.32892 187.55342 294.64142 187.55342L292.76642 187.55342ZM292.76642 186.64717L294.46954 186.64717Q295.20392 186.64717 295.64142 186.2878Q296.09454 185.9128 296.09454 185.27217Q296.09454 184.56905 295.6883 184.25655Q295.28204 183.92842 294.4383 183.92842L292.76642 183.92842L292.76642 186.64717Z" fill-rule="nonzero"/><path fill="#757575" d="M520.8524 191.5378L519.7743 191.5378L519.7743 184.31905L517.5868 185.11592L517.5868 184.13155L520.69617 182.95967L520.8524 182.95967L520.8524 191.5378ZM529.6493 187.89717Q529.6493 189.80342 528.99304 190.74092Q528.3524 191.6628 526.9618 191.6628Q525.6024 191.6628 524.94617 190.75655Q524.2899 189.8503 524.25867 188.0378L524.25867 186.6003Q524.25867 184.70967 524.8993 183.80342Q525.55554 182.88155 526.94617 182.88155Q528.32117 182.88155 528.9774 183.77217Q529.63367 184.64717 529.6493 186.49092L529.6493 187.89717ZM528.55554 186.4128Q528.55554 185.0378 528.1649 184.4128Q527.7899 183.77217 526.94617 183.77217Q526.11804 183.77217 525.7274 184.4128Q525.3524 185.0378 525.3524 186.33467L525.3524 188.06905Q525.3524 189.44405 525.74304 190.11592Q526.1493 190.77217 526.9618 190.77217Q527.75867 190.77217 528.1493 190.14717Q528.5399 189.52217 528.55554 188.19405L528.55554 186.4128ZM536.74304 187.56905L535.69617 188.64717L535.69617 191.5378L534.57117 191.5378L534.57117 183.00655L535.69617 183.00655L535.69617 187.2253L539.49304 183.00655L540.8524 183.00655L537.49304 186.77217L541.11804 191.5378L539.7743 191.5378L536.74304 187.56905ZM542.57117 191.5378L542.57117 183.00655L545.36804 183.00655Q546.75867 183.00655 547.44617 183.58467Q548.1493 184.14717 548.1493 185.27217Q548.1493 185.88155 547.80554 186.3503Q547.4774 186.80342 546.88367 187.05342Q547.5868 187.24092 547.9774 187.7878Q548.38367 188.31905 548.38367 189.06905Q548.38367 190.2253 547.63367 190.88155Q546.8993 191.5378 545.5399 191.5378L542.57117 191.5378ZM543.69617 187.55342L543.69617 190.61592L545.55554 190.61592Q546.3524 190.61592 546.80554 190.20967Q547.25867 189.80342 547.25867 189.08467Q547.25867 187.55342 545.57117 187.55342L543.69617 187.55342ZM543.69617 186.64717L545.3993 186.64717Q546.13367 186.64717 546.57117 186.2878Q547.0243 185.9128 547.0243 185.27217Q547.0243 184.56905 546.61804 184.25655Q546.2118 183.92842 545.36804 183.92842L543.69617 183.92842L543.69617 186.64717Z" fill-rule="nonzero"/><path fill="#757575" d="M768.2822 191.5378L767.2041 191.5378L767.2041 184.31905L765.0166 185.11592L765.0166 184.13155L768.126 182.95967L768.2822 182.95967L768.2822 191.5378ZM772.2197 187.25655L772.6572 183.00655L777.0322 183.00655L777.0322 184.00655L773.5791 184.00655L773.3135 186.33467Q773.9541 185.95967 774.751 185.95967Q775.9072 185.95967 776.5947 186.74092Q777.2822 187.50655 777.2822 188.81905Q777.2822 190.13155 776.5635 190.89717Q775.86035 191.6628 774.5791 191.6628Q773.4541 191.6628 772.73535 191.0378Q772.0166 190.39717 771.92285 189.2878L772.9385 189.2878Q773.04785 190.02217 773.4697 190.39717Q773.8916 190.77217 774.5791 190.77217Q775.3291 190.77217 775.7666 190.25655Q776.2041 189.74092 776.2041 188.83467Q776.2041 187.9753 775.73535 187.45967Q775.2666 186.94405 774.48535 186.94405Q773.7822 186.94405 773.376 187.24092L773.0947 187.4753L772.2197 187.25655ZM784.17285 187.56905L783.126 188.64717L783.126 191.5378L782.001 191.5378L782.001 183.00655L783.126 183.00655L783.126 187.2253L786.92285 183.00655L788.2822 183.00655L784.92285 186.77217L788.54785 191.5378L787.2041 191.5378L784.17285 187.56905ZM790.001 191.5378L790.001 183.00655L792.79785 183.00655Q794.1885 183.00655 794.876 183.58467Q795.5791 184.14717 795.5791 185.27217Q795.5791 185.88155 795.23535 186.3503Q794.9072 186.80342 794.3135 187.05342Q795.0166 187.24092 795.4072 187.7878Q795.8135 188.31905 795.8135 189.06905Q795.8135 190.2253 795.0635 190.88155Q794.3291 191.5378 792.9697 191.5378L790.001 191.5378ZM791.126 187.55342L791.126 190.61592L792.98535 190.61592Q793.7822 190.61592 794.23535 190.20967Q794.6885 189.80342 794.6885 189.08467Q794.6885 187.55342 793.001 187.55342L791.126 187.55342ZM791.126 186.64717L792.8291 186.64717Q793.5635 186.64717 794.001 186.2878Q794.4541 185.9128 794.4541 185.27217Q794.4541 184.56905 794.04785 184.25655Q793.6416 183.92842 792.79785 183.92842L791.126 183.92842L791.126 186.64717Z" fill-rule="nonzero"/><path fill="#4285f4" d="M278.5 6.4472637C278.5 5.8949785 278.94772 5.4472637 279.5 5.4472637L289.5 5.4472637C290.05228 5.4472637 290.5 5.8949785 290.5 6.4472637L290.5 16.447264C290.5 16.999548 290.05228 17.447264 289.5 17.447264L279.5 17.447264C278.94772 17.447264 278.5 16.999548 278.5 16.447264Z" fill-rule="nonzero"/><path fill="#757575" d="M304.20312 12.181639L300.60938 12.181639L300.60938 15.947264L299.48438 15.947264L299.48438 7.4160137L304.78125 7.4160137L304.78125 8.337889L300.60938 8.337889L300.60938 11.259764L304.20312 11.259764L304.20312 12.181639ZM310.23438 15.947264Q310.14062 15.759764 310.07812 15.275389Q309.32812 16.072264 308.28125 16.072264Q307.34375 16.072264 306.73438 15.541014Q306.14062 15.009764 306.14062 14.181639Q306.14062 13.197264 306.89062 12.650389Q307.64062 12.103514 309.01562 12.103514L310.0625 12.103514L310.0625 11.603514Q310.0625 11.041014 309.71875 10.712889Q309.39062 10.369139 308.71875 10.369139Q308.14062 10.369139 307.75 10.666014Q307.35938 10.947264 307.35938 11.369139L306.26562 11.369139Q306.26562 10.884764 306.59375 10.447264Q306.9375 10.009764 307.51562 9.759764Q308.09375 9.494139 308.78125 9.494139Q309.89062 9.494139 310.5 10.041014Q311.125 10.587889 311.15625 11.541014L311.15625 14.462889Q311.15625 15.337889 311.375 15.853514L311.375 15.947264L310.23438 15.947264ZM308.4375 15.119139Q308.95312 15.119139 309.40625 14.853514Q309.85938 14.587889 310.0625 14.166014L310.0625 12.869139L309.21875 12.869139Q307.21875 12.869139 307.21875 14.041014Q307.21875 14.541014 307.5625 14.837889Q307.90625 15.119139 308.4375 15.119139ZM317.01562 14.259764Q317.01562 13.822264 316.67188 13.587889Q316.34375 13.337889 315.51562 13.166014Q314.70312 12.994139 314.21875 12.744139Q313.73438 12.494139 313.5 12.166014Q313.28125 11.822264 313.28125 11.353514Q313.28125 10.572264 313.9375 10.041014Q314.59375 9.494139 315.625 9.494139Q316.70312 9.494139 317.35938 10.056639Q318.03125 10.603514 318.03125 11.462889L316.95312 11.462889Q316.95312 11.025389 316.5625 10.712889Q316.1875 10.384764 315.625 10.384764Q315.03125 10.384764 314.6875 10.650389Q314.35938 10.900389 314.35938 11.306639Q314.35938 11.697264 314.67188 11.900389Q314.98438 12.103514 315.79688 12.291014Q316.60938 12.462889 317.10938 12.712889Q317.60938 12.962889 317.84375 13.322264Q318.09375 13.681639 318.09375 14.181639Q318.09375 15.041014 317.40625 15.556639Q316.73438 16.072264 315.65625 16.072264Q314.89062 16.072264 314.29688 15.806639Q313.71875 15.525389 313.39062 15.041014Q313.0625 14.556639 313.0625 13.994139L314.14062 13.994139Q314.17188 14.541014 314.57812 14.869139Q314.98438 15.181639 315.65625 15.181639Q316.26562 15.181639 316.64062 14.931639Q317.01562 14.681639 317.01562 14.259764ZM320.79688 8.072264L320.79688 9.603514L321.96875 9.603514L321.96875 10.447264L320.79688 10.447264L320.79688 14.369139Q320.79688 14.759764 320.95312 14.947264Q321.10938 15.134764 321.48438 15.134764Q321.67188 15.134764 322.0 15.072264L322.0 15.947264Q321.57812 16.072264 321.17188 16.072264Q320.45312 16.072264 320.07812 15.634764Q319.70312 15.181639 319.70312 14.369139L319.70312 10.447264L318.54688 10.447264L318.54688 9.603514L319.70312 9.603514L319.70312 8.072264L320.79688 8.072264ZM324.625 15.025389L328.67188 15.025389L328.67188 15.947264L323.48438 15.947264L323.48438 7.4160137L324.625 7.4160137L324.625 15.025389ZM334.3125 12.009764L330.60938 12.009764L330.60938 15.025389L334.90625 15.025389L334.90625 15.947264L329.48438 15.947264L329.48438 7.4160137L334.85938 7.4160137L334.85938 8.337889L330.60938 8.337889L330.60938 11.087889L334.3125 11.087889L334.3125 12.009764ZM336.48438 15.947264L336.48438 7.4160137L338.90625 7.4160137Q340.01562 7.4160137 340.85938 7.9160137Q341.71875 8.400389 342.1875 9.306639Q342.65625 10.212889 342.65625 11.400389L342.65625 11.931639Q342.65625 13.150389 342.1875 14.056639Q341.73438 14.962889 340.85938 15.447264Q340.0 15.931639 338.85938 15.947264L336.48438 15.947264ZM337.60938 8.337889L337.60938 15.025389L338.79688 15.025389Q340.09375 15.025389 340.8125 14.228514Q341.54688 13.416014 341.54688 11.916014L341.54688 11.416014Q341.54688 9.962889 340.85938 9.166014Q340.1875 8.353514 338.92188 8.337889L337.60938 8.337889Z" fill-rule="nonzero"/><path fill="#db4437" d="M359.5 6.4472637C359.5 5.8949785 359.94772 5.4472637 360.5 5.4472637L370.5 5.4472637C371.05228 5.4472637 371.5 5.8949785 371.5 6.4472637L371.5 16.447264C371.5 16.999548 371.05228 17.447264 370.5 17.447264L360.5 17.447264C359.94772 17.447264 359.5 16.999548 359.5 16.447264Z" fill-rule="nonzero"/><path fill="#757575" d="M387.04688 15.947264L385.92188 15.947264L381.625 9.369139L381.625 15.947264L380.48438 15.947264L380.48438 7.4160137L381.625 7.4160137L385.92188 14.025389L385.92188 7.4160137L387.04688 7.4160137L387.04688 15.947264ZM391.95312 16.072264Q390.65625 16.072264 389.84375 15.228514Q389.04688 14.369139 389.04688 12.947264L389.04688 12.759764Q389.04688 11.806639 389.40625 11.072264Q389.76562 10.322264 390.40625 9.916014Q391.0625 9.494139 391.8125 9.494139Q393.04688 9.494139 393.73438 10.306639Q394.42188 11.119139 394.42188 12.634764L394.42188 13.087889L390.125 13.087889Q390.15625 14.025389 390.67188 14.603514Q391.20312 15.181639 392.01562 15.181639Q392.57812 15.181639 392.96875 14.947264Q393.375 14.712889 393.6875 14.322264L394.34375 14.837889Q393.54688 16.072264 391.95312 16.072264ZM391.8125 10.384764Q391.15625 10.384764 390.70312 10.869139Q390.26562 11.337889 390.17188 12.197264L393.34375 12.197264L393.34375 12.119139Q393.29688 11.291014 392.89062 10.837889Q392.5 10.384764 391.8125 10.384764ZM395.03125 12.712889Q395.03125 11.791014 395.39062 11.041014Q395.76562 10.291014 396.42188 9.900389Q397.07812 9.494139 397.90625 9.494139Q399.20312 9.494139 400.0 10.384764Q400.8125 11.275389 400.8125 12.775389L400.8125 12.853514Q400.8125 13.775389 400.45312 14.509764Q400.09375 15.244139 399.4375 15.666014Q398.78125 16.072264 397.92188 16.072264Q396.64062 16.072264 395.82812 15.181639Q395.03125 14.275389 395.03125 12.791014L395.03125 12.712889ZM396.125 12.853514Q396.125 13.900389 396.60938 14.541014Q397.10938 15.181639 397.92188 15.181639Q398.75 15.181639 399.23438 14.541014Q399.71875 13.884764 399.71875 12.712889Q399.71875 11.681639 399.21875 11.041014Q398.73438 10.384764 397.90625 10.384764Q397.10938 10.384764 396.60938 11.025389Q396.125 11.650389 396.125 12.853514ZM403.60938 12.603514L403.60938 15.947264L402.48438 15.947264L402.48438 7.4160137L405.64062 7.4160137Q407.03125 7.4160137 407.82812 8.134764Q408.625 8.837889 408.625 10.025389Q408.625 11.259764 407.84375 11.931639Q407.07812 12.603514 405.625 12.603514L403.60938 12.603514ZM403.60938 11.681639L405.64062 11.681639Q406.54688 11.681639 407.01562 11.259764Q407.5 10.837889 407.5 10.041014Q407.5 9.275389 407.01562 8.822264Q406.54688 8.353514 405.70312 8.337889L403.60938 8.337889L403.60938 11.681639ZM411.5 15.947264L410.42188 15.947264L410.42188 9.603514L411.5 9.603514L411.5 15.947264ZM410.32812 7.9316387Q410.32812 7.6660137 410.48438 7.4785137Q410.65625 7.2910137 410.96875 7.2910137Q411.28125 7.2910137 411.4375 7.4785137Q411.60938 7.6660137 411.60938 7.9316387Q411.60938 8.181639 411.4375 8.369139Q411.28125 8.541014 410.96875 8.541014Q410.65625 8.541014 410.48438 8.369139Q410.32812 8.181639 410.32812 7.9316387ZM415.45312 11.916014L416.85938 9.603514L418.125 9.603514L416.04688 12.744139L418.1875 15.947264L416.9375 15.947264L415.46875 13.572264L414.0 15.947264L412.73438 15.947264L414.875 12.744139L412.8125 9.603514L414.0625 9.603514L415.45312 11.916014ZM421.95312 16.072264Q420.65625 16.072264 419.84375 15.228514Q419.04688 14.369139 419.04688 12.947264L419.04688 12.759764Q419.04688 11.806639 419.40625 11.072264Q419.76562 10.322264 420.40625 9.916014Q421.0625 9.494139 421.8125 9.494139Q423.04688 9.494139 423.73438 10.306639Q424.42188 11.119139 424.42188 12.634764L424.42188 13.087889L420.125 13.087889Q420.15625 14.025389 420.67188 14.603514Q421.20312 15.181639 422.01562 15.181639Q422.57812 15.181639 422.96875 14.947264Q423.375 14.712889 423.6875 14.322264L424.34375 14.837889Q423.54688 16.072264 421.95312 16.072264ZM421.8125 10.384764Q421.15625 10.384764 420.70312 10.869139Q420.26562 11.337889 420.17188 12.197264L423.34375 12.197264L423.34375 12.119139Q423.29688 11.291014 422.89062 10.837889Q422.5 10.384764 421.8125 10.384764ZM426.5 15.947264L425.42188 15.947264L425.42188 6.9472637L426.5 6.9472637L426.5 15.947264ZM428.48438 15.947264L428.48438 7.4160137L431.28125 7.4160137Q432.67188 7.4160137 433.35938 7.9941387Q434.0625 8.556639 434.0625 9.681639Q434.0625 10.291014 433.71875 10.759764Q433.39062 11.212889 432.79688 11.462889Q433.5 11.650389 433.89062 12.197264Q434.29688 12.728514 434.29688 13.478514Q434.29688 14.634764 433.54688 15.291014Q432.8125 15.947264 431.45312 15.947264L428.48438 15.947264ZM429.60938 11.962889L429.60938 15.025389L431.46875 15.025389Q432.26562 15.025389 432.71875 14.619139Q433.17188 14.212889 433.17188 13.494139Q433.17188 11.962889 431.48438 11.962889L429.60938 11.962889ZM429.60938 11.056639L431.3125 11.056639Q432.04688 11.056639 432.48438 10.697264Q432.9375 10.322264 432.9375 9.681639Q432.9375 8.978514 432.53125 8.666014Q432.125 8.337889 431.28125 8.337889L429.60938 8.337889L429.60938 11.056639ZM439.23438 15.322264Q438.60938 16.072264 437.375 16.072264Q436.35938 16.072264 435.82812 15.478514Q435.29688 14.884764 435.29688 13.728514L435.29688 9.603514L436.375 9.603514L436.375 13.697264Q436.375 15.150389 437.54688 15.150389Q438.79688 15.150389 439.20312 14.212889L439.20312 9.603514L440.29688 9.603514L440.29688 15.947264L439.26562 15.947264L439.23438 15.322264ZM446.01562 14.259764Q446.01562 13.822264 445.67188 13.587889Q445.34375 13.337889 444.51562 13.166014Q443.70312 12.994139 443.21875 12.744139Q442.73438 12.494139 442.5 12.166014Q442.28125 11.822264 442.28125 11.353514Q442.28125 10.572264 442.9375 10.041014Q443.59375 9.494139 444.625 9.494139Q445.70312 9.494139 446.35938 10.056639Q447.03125 10.603514 447.03125 11.462889L445.95312 11.462889Q445.95312 11.025389 445.5625 10.712889Q445.1875 10.384764 444.625 10.384764Q444.03125 10.384764 443.6875 10.650389Q443.35938 10.900389 443.35938 11.306639Q443.35938 11.697264 443.67188 11.900389Q443.98438 12.103514 444.79688 12.291014Q445.60938 12.462889 446.10938 12.712889Q446.60938 12.962889 446.84375 13.322264Q447.09375 13.681639 447.09375 14.181639Q447.09375 15.041014 446.40625 15.556639Q445.73438 16.072264 444.65625 16.072264Q443.89062 16.072264 443.29688 15.806639Q442.71875 15.525389 442.39062 15.041014Q442.0625 14.556639 442.0625 13.994139L443.14062 13.994139Q443.17188 14.541014 443.57812 14.869139Q443.98438 15.181639 444.65625 15.181639Q445.26562 15.181639 445.64062 14.931639Q446.01562 14.681639 446.01562 14.259764Z" fill-rule="nonzero"/><path fill="#38761d" d="M463.5 6.4472637C463.5 5.8949785 463.94772 5.4472637 464.5 5.4472637L474.5 5.4472637C475.05228 5.4472637 475.5 5.8949785 475.5 6.4472637L475.5 16.447264C475.5 16.999548 475.05228 17.447264 474.5 17.447264L464.5 17.447264C463.94772 17.447264 463.5 16.999548 463.5 16.447264Z" fill-rule="nonzero"/><path fill="#757575" d="M491.04688 15.947264L489.92188 15.947264L485.625 9.369139L485.625 15.947264L484.48438 15.947264L484.48438 7.4160137L485.625 7.4160137L489.92188 14.025389L489.92188 7.4160137L491.04688 7.4160137L491.04688 15.947264ZM495.95312 16.072264Q494.65625 16.072264 493.84375 15.228514Q493.04688 14.369139 493.04688 12.947264L493.04688 12.759764Q493.04688 11.806639 493.40625 11.072264Q493.76562 10.322264 494.40625 9.916014Q495.0625 9.494139 495.8125 9.494139Q497.04688 9.494139 497.73438 10.306639Q498.42188 11.119139 498.42188 12.634764L498.42188 13.087889L494.125 13.087889Q494.15625 14.025389 494.67188 14.603514Q495.20312 15.181639 496.01562 15.181639Q496.57812 15.181639 496.96875 14.947264Q497.375 14.712889 497.6875 14.322264L498.34375 14.837889Q497.54688 16.072264 495.95312 16.072264ZM495.8125 10.384764Q495.15625 10.384764 494.70312 10.869139Q494.26562 11.337889 494.17188 12.197264L497.34375 12.197264L497.34375 12.119139Q497.29688 11.291014 496.89062 10.837889Q496.5 10.384764 495.8125 10.384764ZM499.03125 12.712889Q499.03125 11.791014 499.39062 11.041014Q499.76562 10.291014 500.42188 9.900389Q501.07812 9.494139 501.90625 9.494139Q503.20312 9.494139 504.0 10.384764Q504.8125 11.275389 504.8125 12.775389L504.8125 12.853514Q504.8125 13.775389 504.45312 14.509764Q504.09375 15.244139 503.4375 15.666014Q502.78125 16.072264 501.92188 16.072264Q500.64062 16.072264 499.82812 15.181639Q499.03125 14.275389 499.03125 12.791014L499.03125 12.712889ZM500.125 12.853514Q500.125 13.900389 500.60938 14.541014Q501.10938 15.181639 501.92188 15.181639Q502.75 15.181639 503.23438 14.541014Q503.71875 13.884764 503.71875 12.712889Q503.71875 11.681639 503.21875 11.041014Q502.73438 10.384764 501.90625 10.384764Q501.10938 10.384764 500.60938 11.025389Q500.125 11.650389 500.125 12.853514ZM507.60938 12.603514L507.60938 15.947264L506.48438 15.947264L506.48438 7.4160137L509.64062 7.4160137Q511.03125 7.4160137 511.82812 8.134764Q512.625 8.837889 512.625 10.025389Q512.625 11.259764 511.84375 11.931639Q511.07812 12.603514 509.625 12.603514L507.60938 12.603514ZM507.60938 11.681639L509.64062 11.681639Q510.54688 11.681639 511.01562 11.259764Q511.5 10.837889 511.5 10.041014Q511.5 9.275389 511.01562 8.822264Q510.54688 8.353514 509.70312 8.337889L507.60938 8.337889L507.60938 11.681639ZM515.5 15.947264L514.4219 15.947264L514.4219 9.603514L515.5 9.603514L515.5 15.947264ZM514.3281 7.9316387Q514.3281 7.6660137 514.4844 7.4785137Q514.65625 7.2910137 514.96875 7.2910137Q515.28125 7.2910137 515.4375 7.4785137Q515.6094 7.6660137 515.6094 7.9316387Q515.6094 8.181639 515.4375 8.369139Q515.28125 8.541014 514.96875 8.541014Q514.65625 8.541014 514.4844 8.369139Q514.3281 8.181639 514.3281 7.9316387ZM519.4531 11.916014L520.8594 9.603514L522.125 9.603514L520.0469 12.744139L522.1875 15.947264L520.9375 15.947264L519.46875 13.572264L518.0 15.947264L516.7344 15.947264L518.875 12.744139L516.8125 9.603514L518.0625 9.603514L519.4531 11.916014ZM525.9531 16.072264Q524.65625 16.072264 523.84375 15.228514Q523.0469 14.369139 523.0469 12.947264L523.0469 12.759764Q523.0469 11.806639 523.40625 11.072264Q523.7656 10.322264 524.40625 9.916014Q525.0625 9.494139 525.8125 9.494139Q527.0469 9.494139 527.7344 10.306639Q528.4219 11.119139 528.4219 12.634764L528.4219 13.087889L524.125 13.087889Q524.15625 14.025389 524.6719 14.603514Q525.2031 15.181639 526.0156 15.181639Q526.5781 15.181639 526.96875 14.947264Q527.375 14.712889 527.6875 14.322264L528.34375 14.837889Q527.5469 16.072264 525.9531 16.072264ZM525.8125 10.384764Q525.15625 10.384764 524.7031 10.869139Q524.2656 11.337889 524.1719 12.197264L527.34375 12.197264L527.34375 12.119139Q527.2969 11.291014 526.8906 10.837889Q526.5 10.384764 525.8125 10.384764ZM530.5 15.947264L529.4219 15.947264L529.4219 6.9472637L530.5 6.9472637L530.5 15.947264Z" fill-rule="nonzero"/></svg>