<svg version="1.1" viewBox="0.0 0.0 809.0 339.0" fill="none" stroke="none" stroke-linecap="square" stroke-miterlimit="10" width="809" height="339" xmlns:xlink="http://www.w3.org/1999/xlink" xmlns="http://www.w3.org/2000/svg"><path fill="#ffffff" d="M0 0L809.0 0L809.0 339.0L0 339.0L0 0Z" fill-rule="nonzero"/><path stroke="#333333" stroke-width="1.0" stroke-linecap="butt" d="M74.5 38.5L74.5 281.5" fill-rule="nonzero"/><path stroke="#cccccc" stroke-width="1.0" stroke-linecap="butt" d="M252.5 38.5L252.5 281.5" fill-rule="nonzero"/><path stroke="#cccccc" stroke-width="1.0" stroke-linecap="butt" d="M431.5 38.5L431.5 281.5" fill-rule="nonzero"/><path stroke="#cccccc" stroke-width="1.0" stroke-linecap="butt" d="M610.5 38.5L610.5 281.5" fill-rule="nonzero"/><path stroke="#cccccc" stroke-width="1.0" stroke-linecap="butt" d="M789.5 38.5L789.5 281.5" fill-rule="nonzero"/><path stroke="#e6e6e6" stroke-width="1.0" stroke-linecap="butt" d="M217.5 38.5L217.5 281.5" fill-rule="nonzero"/><path stroke="#e6e6e6" stroke-width="1.0" stroke-linecap="butt" d="M181.5 38.5L181.5 281.5" fill-rule="nonzero"/><path stroke="#e6e6e6" stroke-width="1.0" stroke-linecap="butt" d="M145.5 38.5L145.5 281.5" fill-rule="nonzero"/><path stroke="#e6e6e6" stroke-width="1.0" stroke-linecap="butt" d="M109.5 38.5L109.5 281.5" fill-rule="nonzero"/><path stroke="#e6e6e6" stroke-width="1.0" stroke-linecap="butt" d="M395.5 38.5L395.5 281.5" fill-rule="nonzero"/><path stroke="#e6e6e6" stroke-width="1.0" stroke-linecap="butt" d="M360.5 38.5L360.5 281.5" fill-rule="nonzero"/><path stroke="#e6e6e6" stroke-width="1.0" stroke-linecap="butt" d="M324.5 38.5L324.5 281.5" fill-rule="nonzero"/><path stroke="#e6e6e6" stroke-width="1.0" stroke-linecap="butt" d="M288.5 38.5L288.5 281.5" fill-rule="nonzero"/><path stroke="#e6e6e6" stroke-width="1.0" stroke-linecap="butt" d="M574.5 38.5L574.5 281.5" fill-rule="nonzero"/><path stroke="#e6e6e6" stroke-width="1.0" stroke-linecap="butt" d="M538.5 38.5L538.5 281.5" fill-rule="nonzero"/><path stroke="#e6e6e6" stroke-width="1.0" stroke-linecap="butt" d="M503.5 38.5L503.5 281.5" fill-rule="nonzero"/><path stroke="#e6e6e6" stroke-width="1.0" stroke-linecap="butt" d="M467.5 38.5L467.5 281.5" fill-rule="nonzero"/><path stroke="#e6e6e6" stroke-width="1.0" stroke-linecap="butt" d="M753.5 38.5L753.5 281.5" fill-rule="nonzero"/><path stroke="#e6e6e6" stroke-width="1.0" stroke-linecap="butt" d="M717.5 38.5L717.5 281.5" fill-rule="nonzero"/><path stroke="#e6e6e6" stroke-width="1.0" stroke-linecap="butt" d="M681.5 38.5L681.5 281.5" fill-rule="nonzero"/><path stroke="#e6e6e6" stroke-width="1.0" stroke-linecap="butt" d="M646.5 38.5L646.5 281.5" fill-rule="nonzero"/><clipPath id="id_0"><path d="M74.02657 38.234913L789.23615 38.234913L789.23615 281.57455L74.02657 281.57455L74.02657 38.234913Z" clip-rule="nonzero"/></clipPath><path stroke="#000000" stroke-width="0.0" stroke-linecap="butt" stroke-opacity="0.0" clip-path="url(#id_0)" d="M74.0 96.0L74.0 75.0L121.0 75.0C122.10457 75.0 123.0 75.89543 123.0 77.0L123.0 94.0C123.0 95.10457 122.10457 96.0 121.0 96.0Z" fill-rule="nonzero"/><path fill="#3c78d8" clip-path="url(#id_0)" d="M74.0 96.0L74.0 75.0L121.0 75.0C122.10457 75.0 123.0 75.89543 123.0 77.0L123.0 94.0C123.0 95.10457 122.10457 96.0 121.0 96.0Z" fill-rule="nonzero"/><path stroke="#000000" stroke-width="0.0" stroke-linecap="butt" stroke-opacity="0.0" clip-path="url(#id_0)" d="M74.0 200.0L74.0 179.0L314.0 179.0C315.10458 179.0 316.0 179.89543 316.0 181.0L316.0 198.0C316.0 199.10457 315.10458 200.0 314.0 200.0Z" fill-rule="nonzero"/><path fill="#3c78d8" clip-path="url(#id_0)" d="M74.0 200.0L74.0 179.0L314.0 179.0C315.10458 179.0 316.0 179.89543 316.0 181.0L316.0 198.0C316.0 199.10457 315.10458 200.0 314.0 200.0Z" fill-rule="nonzero"/><path stroke="#000000" stroke-width="0.0" stroke-linecap="butt" stroke-opacity="0.0" clip-path="url(#id_0)" d="M74.0 118.0L74.0 97.0L155.0 97.0C156.10457 97.0 157.0 97.89543 157.0 99.0L157.0 116.0C157.0 117.10457 156.10457 118.0 155.0 118.0Z" fill-rule="nonzero"/><path fill="#d54341" clip-path="url(#id_0)" d="M74.0 118.0L74.0 97.0L155.0 97.0C156.10457 97.0 157.0 97.89543 157.0 99.0L157.0 116.0C157.0 117.10457 156.10457 118.0 155.0 118.0Z" fill-rule="nonzero"/><path stroke="#000000" stroke-width="0.0" stroke-linecap="butt" stroke-opacity="0.0" clip-path="url(#id_0)" d="M74.0 222.0L74.0 201.0L638.0 201.0C639.10455 201.0 640.0 201.89543 640.0 203.0L640.0 220.0C640.0 221.10457 639.10455 222.0 638.0 222.0Z" fill-rule="nonzero"/><path fill="#d54341" clip-path="url(#id_0)" d="M74.0 222.0L74.0 201.0L638.0 201.0C639.10455 201.0 640.0 201.89543 640.0 203.0L640.0 220.0C640.0 221.10457 639.10455 222.0 638.0 222.0Z" fill-rule="nonzero"/><path stroke="#000000" stroke-width="0.0" stroke-linecap="butt" stroke-opacity="0.0" clip-path="url(#id_0)" d="M74.0 140.0L74.0 119.0L85.0 119.0C86.10457 119.0 87.0 119.89543 87.0 121.0L87.0 138.0C87.0 139.10457 86.10457 140.0 85.0 140.0Z" fill-rule="nonzero"/><path fill="#38761d" clip-path="url(#id_0)" d="M74.0 140.0L74.0 119.0L85.0 119.0C86.10457 119.0 87.0 119.89543 87.0 121.0L87.0 138.0C87.0 139.10457 86.10457 140.0 85.0 140.0Z" fill-rule="nonzero"/><path stroke="#000000" stroke-width="0.0" stroke-linecap="butt" stroke-opacity="0.0" clip-path="url(#id_0)" d="M74.0 244.0L74.0 223.0L181.0 223.0C182.10457 223.0 183.0 223.89543 183.0 225.0L183.0 242.0C183.0 243.10457 182.10457 244.0 181.0 244.0Z" fill-rule="nonzero"/><path fill="#38761d" clip-path="url(#id_0)" d="M74.0 244.0L74.0 223.0L181.0 223.0C182.10457 223.0 183.0 223.89543 183.0 225.0L183.0 242.0C183.0 243.10457 182.10457 244.0 181.0 244.0Z" fill-rule="nonzero"/><path stroke="#ffffff" stroke-width="3.0" stroke-linejoin="round" stroke-linecap="round" d="M139.21254 90.5L138.13441 90.5L138.13441 83.28125L135.94691 84.078125L135.94691 83.09375L139.05629 81.921875L139.21254 81.921875L139.21254 90.5ZM144.22816 85.703125L145.04066 85.703125Q145.82191 85.6875 146.25941 85.296875Q146.69691 84.90625 146.69691 84.234375Q146.69691 82.734375 145.19691 82.734375Q144.49379 82.734375 144.07191 83.140625Q143.66566 83.546875 143.66566 84.203125L142.57191 84.203125Q142.57191 83.1875 143.30629 82.515625Q144.05629 81.84375 145.19691 81.84375Q146.40004 81.84375 147.08754 82.484375Q147.77504 83.125 147.77504 84.265625Q147.77504 84.828125 147.41566 85.34375Q147.05629 85.859375 146.43129 86.125Q147.13441 86.34375 147.50941 86.859375Q147.90004 87.375 147.90004 88.125Q147.90004 89.265625 147.15004 89.953125Q146.40004 90.625 145.19691 90.625Q144.00941 90.625 143.24379 89.96875Q142.49379 89.3125 142.49379 88.25L143.58754 88.25Q143.58754 88.921875 144.02504 89.328125Q144.46254 89.734375 145.21254 89.734375Q145.99379 89.734375 146.40004 89.328125Q146.82191 88.90625 146.82191 88.140625Q146.82191 87.40625 146.36879 87.015625Q145.91566 86.609375 145.04066 86.59375L144.22816 86.59375L144.22816 85.703125ZM153.91566 81.96875L153.91566 82.875L153.71254 82.875Q152.44691 82.90625 151.69691 83.640625Q150.94691 84.359375 150.82191 85.671875Q151.50941 84.90625 152.66566 84.90625Q153.77504 84.90625 154.44691 85.6875Q155.11879 86.46875 155.11879 87.71875Q155.11879 89.03125 154.40004 89.828125Q153.68129 90.625 152.46254 90.625Q151.24379 90.625 150.47816 89.6875Q149.72816 88.734375 149.72816 87.25L149.72816 86.84375Q149.72816 84.484375 150.72816 83.234375Q151.72816 81.984375 153.71254 81.96875L153.91566 81.96875ZM152.49379 85.8125Q151.93129 85.8125 151.46254 86.140625Q150.99379 86.46875 150.80629 86.984375L150.80629 87.375Q150.80629 88.4375 151.27504 89.078125Q151.75941 89.71875 152.46254 89.71875Q153.19691 89.71875 153.61879 89.1875Q154.04066 88.640625 154.04066 87.765625Q154.04066 86.890625 153.61879 86.359375Q153.19691 85.8125 152.49379 85.8125ZM161.83754 84.1875Q161.83754 84.828125 161.49379 85.328125Q161.15004 85.828125 160.58754 86.109375Q161.24379 86.390625 161.63441 86.953125Q162.02504 87.5 162.02504 88.203125Q162.02504 89.296875 161.27504 89.96875Q160.54066 90.625 159.32191 90.625Q158.08754 90.625 157.33754 89.96875Q156.60316 89.296875 156.60316 88.203125Q156.60316 87.5 156.97816 86.953125Q157.35316 86.390625 158.02504 86.109375Q157.46254 85.828125 157.13441 85.328125Q156.80629 84.828125 156.80629 84.1875Q156.80629 83.109375 157.49379 82.484375Q158.18129 81.84375 159.32191 81.84375Q160.44691 81.84375 161.13441 82.484375Q161.83754 83.109375 161.83754 84.1875ZM160.94691 88.171875Q160.94691 87.453125 160.49379 87.015625Q160.04066 86.5625 159.30629 86.5625Q158.57191 86.5625 158.11879 87.015625Q157.68129 87.453125 157.68129 88.1875Q157.68129 88.90625 158.11879 89.328125Q158.55629 89.734375 159.32191 89.734375Q160.07191 89.734375 160.50941 89.3125Q160.94691 88.890625 160.94691 88.171875ZM159.32191 82.734375Q158.68129 82.734375 158.27504 83.140625Q157.88441 83.53125 157.88441 84.21875Q157.88441 84.859375 158.27504 85.265625Q158.66566 85.671875 159.30629 85.671875Q159.96254 85.671875 160.35316 85.265625Q160.74379 84.859375 160.74379 84.21875Q160.74379 83.5625 160.33754 83.15625Q159.93129 82.734375 159.32191 82.734375Z" fill-rule="nonzero"/><path fill="#3c78d8" d="M139.21254 90.5L138.13441 90.5L138.13441 83.28125L135.94691 84.078125L135.94691 83.09375L139.05629 81.921875L139.21254 81.921875L139.21254 90.5ZM144.22816 85.703125L145.04066 85.703125Q145.82191 85.6875 146.25941 85.296875Q146.69691 84.90625 146.69691 84.234375Q146.69691 82.734375 145.19691 82.734375Q144.49379 82.734375 144.07191 83.140625Q143.66566 83.546875 143.66566 84.203125L142.57191 84.203125Q142.57191 83.1875 143.30629 82.515625Q144.05629 81.84375 145.19691 81.84375Q146.40004 81.84375 147.08754 82.484375Q147.77504 83.125 147.77504 84.265625Q147.77504 84.828125 147.41566 85.34375Q147.05629 85.859375 146.43129 86.125Q147.13441 86.34375 147.50941 86.859375Q147.90004 87.375 147.90004 88.125Q147.90004 89.265625 147.15004 89.953125Q146.40004 90.625 145.19691 90.625Q144.00941 90.625 143.24379 89.96875Q142.49379 89.3125 142.49379 88.25L143.58754 88.25Q143.58754 88.921875 144.02504 89.328125Q144.46254 89.734375 145.21254 89.734375Q145.99379 89.734375 146.40004 89.328125Q146.82191 88.90625 146.82191 88.140625Q146.82191 87.40625 146.36879 87.015625Q145.91566 86.609375 145.04066 86.59375L144.22816 86.59375L144.22816 85.703125ZM153.91566 81.96875L153.91566 82.875L153.71254 82.875Q152.44691 82.90625 151.69691 83.640625Q150.94691 84.359375 150.82191 85.671875Q151.50941 84.90625 152.66566 84.90625Q153.77504 84.90625 154.44691 85.6875Q155.11879 86.46875 155.11879 87.71875Q155.11879 89.03125 154.40004 89.828125Q153.68129 90.625 152.46254 90.625Q151.24379 90.625 150.47816 89.6875Q149.72816 88.734375 149.72816 87.25L149.72816 86.84375Q149.72816 84.484375 150.72816 83.234375Q151.72816 81.984375 153.71254 81.96875L153.91566 81.96875ZM152.49379 85.8125Q151.93129 85.8125 151.46254 86.140625Q150.99379 86.46875 150.80629 86.984375L150.80629 87.375Q150.80629 88.4375 151.27504 89.078125Q151.75941 89.71875 152.46254 89.71875Q153.19691 89.71875 153.61879 89.1875Q154.04066 88.640625 154.04066 87.765625Q154.04066 86.890625 153.61879 86.359375Q153.19691 85.8125 152.49379 85.8125ZM161.83754 84.1875Q161.83754 84.828125 161.49379 85.328125Q161.15004 85.828125 160.58754 86.109375Q161.24379 86.390625 161.63441 86.953125Q162.02504 87.5 162.02504 88.203125Q162.02504 89.296875 161.27504 89.96875Q160.54066 90.625 159.32191 90.625Q158.08754 90.625 157.33754 89.96875Q156.60316 89.296875 156.60316 88.203125Q156.60316 87.5 156.97816 86.953125Q157.35316 86.390625 158.02504 86.109375Q157.46254 85.828125 157.13441 85.328125Q156.80629 84.828125 156.80629 84.1875Q156.80629 83.109375 157.49379 82.484375Q158.18129 81.84375 159.32191 81.84375Q160.44691 81.84375 161.13441 82.484375Q161.83754 83.109375 161.83754 84.1875ZM160.94691 88.171875Q160.94691 87.453125 160.49379 87.015625Q160.04066 86.5625 159.30629 86.5625Q158.57191 86.5625 158.11879 87.015625Q157.68129 87.453125 157.68129 88.1875Q157.68129 88.90625 158.11879 89.328125Q158.55629 89.734375 159.32191 89.734375Q160.07191 89.734375 160.50941 89.3125Q160.94691 88.890625 160.94691 88.171875ZM159.32191 82.734375Q158.68129 82.734375 158.27504 83.140625Q157.88441 83.53125 157.88441 84.21875Q157.88441 84.859375 158.27504 85.265625Q158.66566 85.671875 159.30629 85.671875Q159.96254 85.671875 160.35316 85.265625Q160.74379 84.859375 160.74379 84.21875Q160.74379 83.5625 160.33754 83.15625Q159.93129 82.734375 159.32191 82.734375Z" fill-rule="nonzero"/><path stroke="#ffffff" stroke-width="3.0" stroke-linejoin="round" stroke-linecap="round" d="M333.16528 185.96875L333.16528 186.875L332.96216 186.875Q331.69653 186.90625 330.94653 187.64062Q330.19653 188.35938 330.07153 189.67188Q330.75903 188.90625 331.91528 188.90625Q333.02466 188.90625 333.69653 189.6875Q334.3684 190.46875 334.3684 191.71875Q334.3684 193.03125 333.64966 193.82812Q332.9309 194.625 331.71216 194.625Q330.4934 194.625 329.72778 193.6875Q328.97778 192.73438 328.97778 191.25L328.97778 190.84375Q328.97778 188.48438 329.97778 187.23438Q330.97778 185.98438 332.96216 185.96875L333.16528 185.96875ZM331.7434 189.8125Q331.1809 189.8125 330.71216 190.14062Q330.2434 190.46875 330.0559 190.98438L330.0559 191.375Q330.0559 192.4375 330.52466 193.07812Q331.00903 193.71875 331.71216 193.71875Q332.44653 193.71875 332.8684 193.1875Q333.29028 192.64062 333.29028 191.76562Q333.29028 190.89062 332.8684 190.35938Q332.44653 189.8125 331.7434 189.8125ZM341.41528 186.57812L337.88403 194.5L336.7434 194.5L340.25903 186.85938L335.64966 186.85938L335.64966 185.96875L341.41528 185.96875L341.41528 186.57812ZM348.41528 186.57812L344.88403 194.5L343.7434 194.5L347.25903 186.85938L342.64966 186.85938L342.64966 185.96875L348.41528 185.96875L348.41528 186.57812ZM355.4934 194.5L349.89966 194.5L349.89966 193.71875L352.85278 190.4375Q353.50903 189.6875 353.75903 189.23438Q354.00903 188.76562 354.00903 188.26562Q354.00903 187.59375 353.60278 187.17188Q353.21216 186.73438 352.52466 186.73438Q351.72778 186.73438 351.27466 187.20312Q350.82153 187.65625 350.82153 188.48438L349.7434 188.48438Q349.7434 187.29688 350.4934 186.57812Q351.25903 185.84375 352.52466 185.84375Q353.72778 185.84375 354.41528 186.46875Q355.10278 187.09375 355.10278 188.14062Q355.10278 189.39062 353.4934 191.14062L351.21216 193.60938L355.4934 193.60938L355.4934 194.5Z" fill-rule="nonzero"/><path fill="#3c78d8" d="M333.16528 185.96875L333.16528 186.875L332.96216 186.875Q331.69653 186.90625 330.94653 187.64062Q330.19653 188.35938 330.07153 189.67188Q330.75903 188.90625 331.91528 188.90625Q333.02466 188.90625 333.69653 189.6875Q334.3684 190.46875 334.3684 191.71875Q334.3684 193.03125 333.64966 193.82812Q332.9309 194.625 331.71216 194.625Q330.4934 194.625 329.72778 193.6875Q328.97778 192.73438 328.97778 191.25L328.97778 190.84375Q328.97778 188.48438 329.97778 187.23438Q330.97778 185.98438 332.96216 185.96875L333.16528 185.96875ZM331.7434 189.8125Q331.1809 189.8125 330.71216 190.14062Q330.2434 190.46875 330.0559 190.98438L330.0559 191.375Q330.0559 192.4375 330.52466 193.07812Q331.00903 193.71875 331.71216 193.71875Q332.44653 193.71875 332.8684 193.1875Q333.29028 192.64062 333.29028 191.76562Q333.29028 190.89062 332.8684 190.35938Q332.44653 189.8125 331.7434 189.8125ZM341.41528 186.57812L337.88403 194.5L336.7434 194.5L340.25903 186.85938L335.64966 186.85938L335.64966 185.96875L341.41528 185.96875L341.41528 186.57812ZM348.41528 186.57812L344.88403 194.5L343.7434 194.5L347.25903 186.85938L342.64966 186.85938L342.64966 185.96875L348.41528 185.96875L348.41528 186.57812ZM355.4934 194.5L349.89966 194.5L349.89966 193.71875L352.85278 190.4375Q353.50903 189.6875 353.75903 189.23438Q354.00903 188.76562 354.00903 188.26562Q354.00903 187.59375 353.60278 187.17188Q353.21216 186.73438 352.52466 186.73438Q351.72778 186.73438 351.27466 187.20312Q350.82153 187.65625 350.82153 188.48438L349.7434 188.48438Q349.7434 187.29688 350.4934 186.57812Q351.25903 185.84375 352.52466 185.84375Q353.72778 185.84375 354.41528 186.46875Q355.10278 187.09375 355.10278 188.14062Q355.10278 189.39062 353.4934 191.14062L351.21216 193.60938L355.4934 193.60938L355.4934 194.5Z" fill-rule="nonzero"/><path stroke="#ffffff" stroke-width="3.0" stroke-linejoin="round" stroke-linecap="round" d="M175.28777 112.5L169.69402 112.5L169.69402 111.71875L172.64714 108.4375Q173.30339 107.6875 173.55339 107.234375Q173.80339 106.765625 173.80339 106.265625Q173.80339 105.59375 173.39714 105.171875Q173.00652 104.734375 172.31902 104.734375Q171.52214 104.734375 171.06902 105.203125Q170.61589 105.65625 170.61589 106.484375L169.53777 106.484375Q169.53777 105.296875 170.28777 104.578125Q171.05339 103.84375 172.31902 103.84375Q173.52214 103.84375 174.20964 104.46875Q174.89714 105.09375 174.89714 106.140625Q174.89714 107.390625 173.28777 109.140625L171.00652 111.609375L175.28777 111.609375L175.28777 112.5ZM178.27214 107.703125L179.08464 107.703125Q179.86589 107.6875 180.30339 107.296875Q180.74089 106.90625 180.74089 106.234375Q180.74089 104.734375 179.24089 104.734375Q178.53777 104.734375 178.11589 105.140625Q177.70964 105.546875 177.70964 106.203125L176.61589 106.203125Q176.61589 105.1875 177.35027 104.515625Q178.10027 103.84375 179.24089 103.84375Q180.44402 103.84375 181.13152 104.484375Q181.81902 105.125 181.81902 106.265625Q181.81902 106.828125 181.45964 107.34375Q181.10027 107.859375 180.47527 108.125Q181.17839 108.34375 181.55339 108.859375Q181.94402 109.375 181.94402 110.125Q181.94402 111.265625 181.19402 111.953125Q180.44402 112.625 179.24089 112.625Q178.05339 112.625 177.28777 111.96875Q176.53777 111.3125 176.53777 110.25L177.63152 110.25Q177.63152 110.921875 178.06902 111.328125Q178.50652 111.734375 179.25652 111.734375Q180.03777 111.734375 180.44402 111.328125Q180.86589 110.90625 180.86589 110.140625Q180.86589 109.40625 180.41277 109.015625Q179.95964 108.609375 179.08464 108.59375L178.27214 108.59375L178.27214 107.703125ZM189.28777 112.5L183.69402 112.5L183.69402 111.71875L186.64714 108.4375Q187.30339 107.6875 187.55339 107.234375Q187.80339 106.765625 187.80339 106.265625Q187.80339 105.59375 187.39714 105.171875Q187.00652 104.734375 186.31902 104.734375Q185.52214 104.734375 185.06902 105.203125Q184.61589 105.65625 184.61589 106.484375L183.53777 106.484375Q183.53777 105.296875 184.28777 104.578125Q185.05339 103.84375 186.31902 103.84375Q187.52214 103.84375 188.20964 104.46875Q188.89714 105.09375 188.89714 106.140625Q188.89714 107.390625 187.28777 109.140625L185.00652 111.609375L189.28777 111.609375L189.28777 112.5ZM196.05339 108.859375Q196.05339 110.765625 195.39714 111.703125Q194.75652 112.625 193.36589 112.625Q192.00652 112.625 191.35027 111.71875Q190.69402 110.8125 190.66277 109.0L190.66277 107.5625Q190.66277 105.671875 191.30339 104.765625Q191.95964 103.84375 193.35027 103.84375Q194.72527 103.84375 195.38152 104.734375Q196.03777 105.609375 196.05339 107.453125L196.05339 108.859375ZM194.95964 107.375Q194.95964 106.0 194.56902 105.375Q194.19402 104.734375 193.35027 104.734375Q192.52214 104.734375 192.13152 105.375Q191.75652 106.0 191.75652 107.296875L191.75652 109.03125Q191.75652 110.40625 192.14714 111.078125Q192.55339 111.734375 193.36589 111.734375Q194.16277 111.734375 194.55339 111.109375Q194.94402 110.484375 194.95964 109.15625L194.95964 107.375Z" fill-rule="nonzero"/><path fill="#d54341" d="M175.28777 112.5L169.69402 112.5L169.69402 111.71875L172.64714 108.4375Q173.30339 107.6875 173.55339 107.234375Q173.80339 106.765625 173.80339 106.265625Q173.80339 105.59375 173.39714 105.171875Q173.00652 104.734375 172.31902 104.734375Q171.52214 104.734375 171.06902 105.203125Q170.61589 105.65625 170.61589 106.484375L169.53777 106.484375Q169.53777 105.296875 170.28777 104.578125Q171.05339 103.84375 172.31902 103.84375Q173.52214 103.84375 174.20964 104.46875Q174.89714 105.09375 174.89714 106.140625Q174.89714 107.390625 173.28777 109.140625L171.00652 111.609375L175.28777 111.609375L175.28777 112.5ZM178.27214 107.703125L179.08464 107.703125Q179.86589 107.6875 180.30339 107.296875Q180.74089 106.90625 180.74089 106.234375Q180.74089 104.734375 179.24089 104.734375Q178.53777 104.734375 178.11589 105.140625Q177.70964 105.546875 177.70964 106.203125L176.61589 106.203125Q176.61589 105.1875 177.35027 104.515625Q178.10027 103.84375 179.24089 103.84375Q180.44402 103.84375 181.13152 104.484375Q181.81902 105.125 181.81902 106.265625Q181.81902 106.828125 181.45964 107.34375Q181.10027 107.859375 180.47527 108.125Q181.17839 108.34375 181.55339 108.859375Q181.94402 109.375 181.94402 110.125Q181.94402 111.265625 181.19402 111.953125Q180.44402 112.625 179.24089 112.625Q178.05339 112.625 177.28777 111.96875Q176.53777 111.3125 176.53777 110.25L177.63152 110.25Q177.63152 110.921875 178.06902 111.328125Q178.50652 111.734375 179.25652 111.734375Q180.03777 111.734375 180.44402 111.328125Q180.86589 110.90625 180.86589 110.140625Q180.86589 109.40625 180.41277 109.015625Q179.95964 108.609375 179.08464 108.59375L178.27214 108.59375L178.27214 107.703125ZM189.28777 112.5L183.69402 112.5L183.69402 111.71875L186.64714 108.4375Q187.30339 107.6875 187.55339 107.234375Q187.80339 106.765625 187.80339 106.265625Q187.80339 105.59375 187.39714 105.171875Q187.00652 104.734375 186.31902 104.734375Q185.52214 104.734375 185.06902 105.203125Q184.61589 105.65625 184.61589 106.484375L183.53777 106.484375Q183.53777 105.296875 184.28777 104.578125Q185.05339 103.84375 186.31902 103.84375Q187.52214 103.84375 188.20964 104.46875Q188.89714 105.09375 188.89714 106.140625Q188.89714 107.390625 187.28777 109.140625L185.00652 111.609375L189.28777 111.609375L189.28777 112.5ZM196.05339 108.859375Q196.05339 110.765625 195.39714 111.703125Q194.75652 112.625 193.36589 112.625Q192.00652 112.625 191.35027 111.71875Q190.69402 110.8125 190.66277 109.0L190.66277 107.5625Q190.66277 105.671875 191.30339 104.765625Q191.95964 103.84375 193.35027 103.84375Q194.72527 103.84375 195.38152 104.734375Q196.03777 105.609375 196.05339 107.453125L196.05339 108.859375ZM194.95964 107.375Q194.95964 106.0 194.56902 105.375Q194.19402 104.734375 193.35027 104.734375Q192.52214 104.734375 192.13152 105.375Q191.75652 106.0 191.75652 107.296875L191.75652 109.03125Q191.75652 110.40625 192.14714 111.078125Q192.55339 111.734375 193.36589 111.734375Q194.16277 111.734375 194.55339 111.109375Q194.94402 110.484375 194.95964 109.15625L194.95964 107.375Z" fill-rule="nonzero"/><path stroke="#ffffff" stroke-width="3.0" stroke-linejoin="round" stroke-linecap="round" d="M656.02295 216.5L654.9448 216.5L654.9448 209.28125L652.7573 210.07812L652.7573 209.09375L655.8667 207.92188L656.02295 207.92188L656.02295 216.5ZM659.96045 212.21875L660.39795 207.96875L664.77295 207.96875L664.77295 208.96875L661.3198 208.96875L661.0542 211.29688Q661.6948 210.92188 662.4917 210.92188Q663.64795 210.92188 664.33545 211.70312Q665.02295 212.46875 665.02295 213.78125Q665.02295 215.09375 664.3042 215.85938Q663.6011 216.625 662.3198 216.625Q661.1948 216.625 660.4761 216.0Q659.7573 215.35938 659.6636 214.25L660.6792 214.25Q660.7886 214.98438 661.21045 215.35938Q661.6323 215.73438 662.3198 215.73438Q663.0698 215.73438 663.5073 215.21875Q663.9448 214.70312 663.9448 213.79688Q663.9448 212.9375 663.4761 212.42188Q663.0073 211.90625 662.2261 211.90625Q661.52295 211.90625 661.1167 212.20312L660.83545 212.4375L659.96045 212.21875ZM671.64795 210.1875Q671.64795 210.82812 671.3042 211.32812Q670.96045 211.82812 670.39795 212.10938Q671.0542 212.39062 671.4448 212.95312Q671.83545 213.5 671.83545 214.20312Q671.83545 215.29688 671.08545 215.96875Q670.3511 216.625 669.1323 216.625Q667.89795 216.625 667.14795 215.96875Q666.4136 215.29688 666.4136 214.20312Q666.4136 213.5 666.7886 212.95312Q667.1636 212.39062 667.83545 212.10938Q667.27295 211.82812 666.9448 211.32812Q666.6167 210.82812 666.6167 210.1875Q666.6167 209.10938 667.3042 208.48438Q667.9917 207.84375 669.1323 207.84375Q670.2573 207.84375 670.9448 208.48438Q671.64795 209.10938 671.64795 210.1875ZM670.7573 214.17188Q670.7573 213.45312 670.3042 213.01562Q669.8511 212.5625 669.1167 212.5625Q668.3823 212.5625 667.9292 213.01562Q667.4917 213.45312 667.4917 214.1875Q667.4917 214.90625 667.9292 215.32812Q668.3667 215.73438 669.1323 215.73438Q669.8823 215.73438 670.3198 215.3125Q670.7573 214.89062 670.7573 214.17188ZM669.1323 208.73438Q668.4917 208.73438 668.08545 209.14062Q667.6948 209.53125 667.6948 210.21875Q667.6948 210.85938 668.08545 211.26562Q668.4761 211.67188 669.1167 211.67188Q669.77295 211.67188 670.1636 211.26562Q670.5542 210.85938 670.5542 210.21875Q670.5542 209.5625 670.14795 209.15625Q669.7417 208.73438 669.1323 208.73438ZM679.0542 216.5L673.46045 216.5L673.46045 215.71875L676.4136 212.4375Q677.0698 211.6875 677.3198 211.23438Q677.5698 210.76562 677.5698 210.26562Q677.5698 209.59375 677.1636 209.17188Q676.77295 208.73438 676.08545 208.73438Q675.2886 208.73438 674.83545 209.20312Q674.3823 209.65625 674.3823 210.48438L673.3042 210.48438Q673.3042 209.29688 674.0542 208.57812Q674.8198 207.84375 676.08545 207.84375Q677.2886 207.84375 677.9761 208.46875Q678.6636 209.09375 678.6636 210.14062Q678.6636 211.39062 677.0542 213.14062L674.77295 215.60938L679.0542 215.60938L679.0542 216.5ZM685.8198 212.85938Q685.8198 214.76562 685.1636 215.70312Q684.52295 216.625 683.1323 216.625Q681.77295 216.625 681.1167 215.71875Q680.46045 214.8125 680.4292 213.0L680.4292 211.5625Q680.4292 209.67188 681.0698 208.76562Q681.7261 207.84375 683.1167 207.84375Q684.4917 207.84375 685.14795 208.73438Q685.8042 209.60938 685.8198 211.45312L685.8198 212.85938ZM684.7261 211.375Q684.7261 210.0 684.33545 209.375Q683.96045 208.73438 683.1167 208.73438Q682.2886 208.73438 681.89795 209.375Q681.52295 210.0 681.52295 211.29688L681.52295 213.03125Q681.52295 214.40625 681.9136 215.07812Q682.3198 215.73438 683.1323 215.73438Q683.9292 215.73438 684.3198 215.10938Q684.71045 214.48438 684.7261 213.15625L684.7261 211.375Z" fill-rule="nonzero"/><path fill="#d54341" d="M656.02295 216.5L654.9448 216.5L654.9448 209.28125L652.7573 210.07812L652.7573 209.09375L655.8667 207.92188L656.02295 207.92188L656.02295 216.5ZM659.96045 212.21875L660.39795 207.96875L664.77295 207.96875L664.77295 208.96875L661.3198 208.96875L661.0542 211.29688Q661.6948 210.92188 662.4917 210.92188Q663.64795 210.92188 664.33545 211.70312Q665.02295 212.46875 665.02295 213.78125Q665.02295 215.09375 664.3042 215.85938Q663.6011 216.625 662.3198 216.625Q661.1948 216.625 660.4761 216.0Q659.7573 215.35938 659.6636 214.25L660.6792 214.25Q660.7886 214.98438 661.21045 215.35938Q661.6323 215.73438 662.3198 215.73438Q663.0698 215.73438 663.5073 215.21875Q663.9448 214.70312 663.9448 213.79688Q663.9448 212.9375 663.4761 212.42188Q663.0073 211.90625 662.2261 211.90625Q661.52295 211.90625 661.1167 212.20312L660.83545 212.4375L659.96045 212.21875ZM671.64795 210.1875Q671.64795 210.82812 671.3042 211.32812Q670.96045 211.82812 670.39795 212.10938Q671.0542 212.39062 671.4448 212.95312Q671.83545 213.5 671.83545 214.20312Q671.83545 215.29688 671.08545 215.96875Q670.3511 216.625 669.1323 216.625Q667.89795 216.625 667.14795 215.96875Q666.4136 215.29688 666.4136 214.20312Q666.4136 213.5 666.7886 212.95312Q667.1636 212.39062 667.83545 212.10938Q667.27295 211.82812 666.9448 211.32812Q666.6167 210.82812 666.6167 210.1875Q666.6167 209.10938 667.3042 208.48438Q667.9917 207.84375 669.1323 207.84375Q670.2573 207.84375 670.9448 208.48438Q671.64795 209.10938 671.64795 210.1875ZM670.7573 214.17188Q670.7573 213.45312 670.3042 213.01562Q669.8511 212.5625 669.1167 212.5625Q668.3823 212.5625 667.9292 213.01562Q667.4917 213.45312 667.4917 214.1875Q667.4917 214.90625 667.9292 215.32812Q668.3667 215.73438 669.1323 215.73438Q669.8823 215.73438 670.3198 215.3125Q670.7573 214.89062 670.7573 214.17188ZM669.1323 208.73438Q668.4917 208.73438 668.08545 209.14062Q667.6948 209.53125 667.6948 210.21875Q667.6948 210.85938 668.08545 211.26562Q668.4761 211.67188 669.1167 211.67188Q669.77295 211.67188 670.1636 211.26562Q670.5542 210.85938 670.5542 210.21875Q670.5542 209.5625 670.14795 209.15625Q669.7417 208.73438 669.1323 208.73438ZM679.0542 216.5L673.46045 216.5L673.46045 215.71875L676.4136 212.4375Q677.0698 211.6875 677.3198 211.23438Q677.5698 210.76562 677.5698 210.26562Q677.5698 209.59375 677.1636 209.17188Q676.77295 208.73438 676.08545 208.73438Q675.2886 208.73438 674.83545 209.20312Q674.3823 209.65625 674.3823 210.48438L673.3042 210.48438Q673.3042 209.29688 674.0542 208.57812Q674.8198 207.84375 676.08545 207.84375Q677.2886 207.84375 677.9761 208.46875Q678.6636 209.09375 678.6636 210.14062Q678.6636 211.39062 677.0542 213.14062L674.77295 215.60938L679.0542 215.60938L679.0542 216.5ZM685.8198 212.85938Q685.8198 214.76562 685.1636 215.70312Q684.52295 216.625 683.1323 216.625Q681.77295 216.625 681.1167 215.71875Q680.46045 214.8125 680.4292 213.0L680.4292 211.5625Q680.4292 209.67188 681.0698 208.76562Q681.7261 207.84375 683.1167 207.84375Q684.4917 207.84375 685.14795 208.73438Q685.8042 209.60938 685.8198 211.45312L685.8198 212.85938ZM684.7261 211.375Q684.7261 210.0 684.33545 209.375Q683.96045 208.73438 683.1167 208.73438Q682.2886 208.73438 681.89795 209.375Q681.52295 210.0 681.52295 211.29688L681.52295 213.03125Q681.52295 214.40625 681.9136 215.07812Q682.3198 215.73438 683.1323 215.73438Q683.9292 215.73438 684.3198 215.10938Q684.71045 214.48438 684.7261 213.15625L684.7261 211.375Z" fill-rule="nonzero"/><path stroke="#ffffff" stroke-width="3.0" stroke-linejoin="round" stroke-linecap="round" d="M101.03855 129.70312L101.85105 129.70312Q102.6323 129.6875 103.0698 129.29688Q103.5073 128.90625 103.5073 128.23438Q103.5073 126.734375 102.0073 126.734375Q101.30418 126.734375 100.8823 127.140625Q100.47605 127.546875 100.47605 128.20312L99.3823 128.20312Q99.3823 127.1875 100.11668 126.515625Q100.86668 125.84375 102.0073 125.84375Q103.21043 125.84375 103.89793 126.484375Q104.58543 127.125 104.58543 128.26562Q104.58543 128.82812 104.22605 129.34375Q103.86668 129.85938 103.24168 130.125Q103.9448 130.34375 104.3198 130.85938Q104.71043 131.375 104.71043 132.125Q104.71043 133.26562 103.96043 133.95312Q103.21043 134.625 102.0073 134.625Q100.8198 134.625 100.05418 133.96875Q99.30418 133.3125 99.30418 132.25L100.39793 132.25Q100.39793 132.92188 100.83543 133.32812Q101.27293 133.73438 102.02293 133.73438Q102.80418 133.73438 103.21043 133.32812Q103.6323 132.90625 103.6323 132.14062Q103.6323 131.40625 103.17918 131.01562Q102.72605 130.60938 101.85105 130.59375L101.03855 130.59375L101.03855 129.70312ZM106.96043 130.21875L107.39793 125.96875L111.77293 125.96875L111.77293 126.96875L108.3198 126.96875L108.05418 129.29688Q108.6948 128.92188 109.49168 128.92188Q110.64793 128.92188 111.33543 129.70312Q112.02293 130.46875 112.02293 131.78125Q112.02293 133.09375 111.30418 133.85938Q110.60105 134.625 109.3198 134.625Q108.1948 134.625 107.47605 134.0Q106.7573 133.35938 106.66355 132.25L107.67918 132.25Q107.78855 132.98438 108.21043 133.35938Q108.6323 133.73438 109.3198 133.73438Q110.0698 133.73438 110.5073 133.21875Q110.9448 132.70312 110.9448 131.79688Q110.9448 130.9375 110.47605 130.42188Q110.0073 129.90625 109.22605 129.90625Q108.52293 129.90625 108.11668 130.20312L107.83543 130.4375L106.96043 130.21875ZM117.72605 125.96875L117.72605 126.875L117.52293 126.875Q116.2573 126.90625 115.5073 127.640625Q114.7573 128.35938 114.6323 129.67188Q115.3198 128.90625 116.47605 128.90625Q117.58543 128.90625 118.2573 129.6875Q118.92918 130.46875 118.92918 131.71875Q118.92918 133.03125 118.21043 133.82812Q117.49168 134.625 116.27293 134.625Q115.05418 134.625 114.28855 133.6875Q113.53855 132.73438 113.53855 131.25L113.53855 130.84375Q113.53855 128.48438 114.53855 127.234375Q115.53855 125.984375 117.52293 125.96875L117.72605 125.96875ZM116.30418 129.8125Q115.74168 129.8125 115.27293 130.14062Q114.80418 130.46875 114.61668 130.98438L114.61668 131.375Q114.61668 132.4375 115.08543 133.07812Q115.5698 133.71875 116.27293 133.71875Q117.0073 133.71875 117.42918 133.1875Q117.85105 132.64062 117.85105 131.76562Q117.85105 130.89062 117.42918 130.35938Q117.0073 129.8125 116.30418 129.8125Z" fill-rule="nonzero"/><path fill="#38761d" d="M101.03855 129.70312L101.85105 129.70312Q102.6323 129.6875 103.0698 129.29688Q103.5073 128.90625 103.5073 128.23438Q103.5073 126.734375 102.0073 126.734375Q101.30418 126.734375 100.8823 127.140625Q100.47605 127.546875 100.47605 128.20312L99.3823 128.20312Q99.3823 127.1875 100.11668 126.515625Q100.86668 125.84375 102.0073 125.84375Q103.21043 125.84375 103.89793 126.484375Q104.58543 127.125 104.58543 128.26562Q104.58543 128.82812 104.22605 129.34375Q103.86668 129.85938 103.24168 130.125Q103.9448 130.34375 104.3198 130.85938Q104.71043 131.375 104.71043 132.125Q104.71043 133.26562 103.96043 133.95312Q103.21043 134.625 102.0073 134.625Q100.8198 134.625 100.05418 133.96875Q99.30418 133.3125 99.30418 132.25L100.39793 132.25Q100.39793 132.92188 100.83543 133.32812Q101.27293 133.73438 102.02293 133.73438Q102.80418 133.73438 103.21043 133.32812Q103.6323 132.90625 103.6323 132.14062Q103.6323 131.40625 103.17918 131.01562Q102.72605 130.60938 101.85105 130.59375L101.03855 130.59375L101.03855 129.70312ZM106.96043 130.21875L107.39793 125.96875L111.77293 125.96875L111.77293 126.96875L108.3198 126.96875L108.05418 129.29688Q108.6948 128.92188 109.49168 128.92188Q110.64793 128.92188 111.33543 129.70312Q112.02293 130.46875 112.02293 131.78125Q112.02293 133.09375 111.30418 133.85938Q110.60105 134.625 109.3198 134.625Q108.1948 134.625 107.47605 134.0Q106.7573 133.35938 106.66355 132.25L107.67918 132.25Q107.78855 132.98438 108.21043 133.35938Q108.6323 133.73438 109.3198 133.73438Q110.0698 133.73438 110.5073 133.21875Q110.9448 132.70312 110.9448 131.79688Q110.9448 130.9375 110.47605 130.42188Q110.0073 129.90625 109.22605 129.90625Q108.52293 129.90625 108.11668 130.20312L107.83543 130.4375L106.96043 130.21875ZM117.72605 125.96875L117.72605 126.875L117.52293 126.875Q116.2573 126.90625 115.5073 127.640625Q114.7573 128.35938 114.6323 129.67188Q115.3198 128.90625 116.47605 128.90625Q117.58543 128.90625 118.2573 129.6875Q118.92918 130.46875 118.92918 131.71875Q118.92918 133.03125 118.21043 133.82812Q117.49168 134.625 116.27293 134.625Q115.05418 134.625 114.28855 133.6875Q113.53855 132.73438 113.53855 131.25L113.53855 130.84375Q113.53855 128.48438 114.53855 127.234375Q115.53855 125.984375 117.52293 125.96875L117.72605 125.96875ZM116.30418 129.8125Q115.74168 129.8125 115.27293 130.14062Q114.80418 130.46875 114.61668 130.98438L114.61668 131.375Q114.61668 132.4375 115.08543 133.07812Q115.5698 133.71875 116.27293 133.71875Q117.0073 133.71875 117.42918 133.1875Q117.85105 132.64062 117.85105 131.76562Q117.85105 130.89062 117.42918 130.35938Q117.0073 129.8125 116.30418 129.8125Z" fill-rule="nonzero"/><path stroke="#ffffff" stroke-width="3.0" stroke-linejoin="round" stroke-linecap="round" d="M197.59184 233.70312L198.40434 233.70312Q199.1856 233.6875 199.6231 233.29688Q200.0606 232.90625 200.0606 232.23438Q200.0606 230.73438 198.5606 230.73438Q197.85747 230.73438 197.4356 231.14062Q197.02934 231.54688 197.02934 232.20312L195.9356 232.20312Q195.9356 231.1875 196.66997 230.51562Q197.41997 229.84375 198.5606 229.84375Q199.76372 229.84375 200.45122 230.48438Q201.13872 231.125 201.13872 232.26562Q201.13872 232.82812 200.77934 233.34375Q200.41997 233.85938 199.79497 234.125Q200.4981 234.34375 200.8731 234.85938Q201.26372 235.375 201.26372 236.125Q201.26372 237.26562 200.51372 237.95312Q199.76372 238.625 198.5606 238.625Q197.3731 238.625 196.60747 237.96875Q195.85747 237.3125 195.85747 236.25L196.95122 236.25Q196.95122 236.92188 197.38872 237.32812Q197.82622 237.73438 198.57622 237.73438Q199.35747 237.73438 199.76372 237.32812Q200.1856 236.90625 200.1856 236.14062Q200.1856 235.40625 199.73247 235.01562Q199.27934 234.60938 198.40434 234.59375L197.59184 234.59375L197.59184 233.70312ZM208.3731 234.85938Q208.3731 236.76562 207.71684 237.70312Q207.07622 238.625 205.6856 238.625Q204.32622 238.625 203.66997 237.71875Q203.01372 236.8125 202.98247 235.0L202.98247 233.5625Q202.98247 231.67188 203.6231 230.76562Q204.27934 229.84375 205.66997 229.84375Q207.04497 229.84375 207.70122 230.73438Q208.35747 231.60938 208.3731 233.45312L208.3731 234.85938ZM207.27934 233.375Q207.27934 232.0 206.88872 231.375Q206.51372 230.73438 205.66997 230.73438Q204.84184 230.73438 204.45122 231.375Q204.07622 232.0 204.07622 233.29688L204.07622 235.03125Q204.07622 236.40625 204.46684 237.07812Q204.8731 237.73438 205.6856 237.73438Q206.48247 237.73438 206.8731 237.10938Q207.26372 236.48438 207.27934 235.15625L207.27934 233.375ZM210.51372 234.21875L210.95122 229.96875L215.32622 229.96875L215.32622 230.96875L211.8731 230.96875L211.60747 233.29688Q212.2481 232.92188 213.04497 232.92188Q214.20122 232.92188 214.88872 233.70312Q215.57622 234.46875 215.57622 235.78125Q215.57622 237.09375 214.85747 237.85938Q214.15434 238.625 212.8731 238.625Q211.7481 238.625 211.02934 238.0Q210.3106 237.35938 210.21684 236.25L211.23247 236.25Q211.34184 236.98438 211.76372 237.35938Q212.1856 237.73438 212.8731 237.73438Q213.6231 237.73438 214.0606 237.21875Q214.4981 236.70312 214.4981 235.79688Q214.4981 234.9375 214.02934 234.42188Q213.5606 233.90625 212.77934 233.90625Q212.07622 233.90625 211.66997 234.20312L211.38872 234.4375L210.51372 234.21875ZM221.27934 229.96875L221.27934 230.875L221.07622 230.875Q219.8106 230.90625 219.0606 231.64062Q218.3106 232.35938 218.1856 233.67188Q218.8731 232.90625 220.02934 232.90625Q221.13872 232.90625 221.8106 233.6875Q222.48247 234.46875 222.48247 235.71875Q222.48247 237.03125 221.76372 237.82812Q221.04497 238.625 219.82622 238.625Q218.60747 238.625 217.84184 237.6875Q217.09184 236.73438 217.09184 235.25L217.09184 234.84375Q217.09184 232.48438 218.09184 231.23438Q219.09184 229.98438 221.07622 229.96875L221.27934 229.96875ZM219.85747 233.8125Q219.29497 233.8125 218.82622 234.14062Q218.35747 234.46875 218.16997 234.98438L218.16997 235.375Q218.16997 236.4375 218.63872 237.07812Q219.1231 237.71875 219.82622 237.71875Q220.5606 237.71875 220.98247 237.1875Q221.40434 236.64062 221.40434 235.76562Q221.40434 234.89062 220.98247 234.35938Q220.5606 233.8125 219.85747 233.8125Z" fill-rule="nonzero"/><path fill="#38761d" d="M197.59184 233.70312L198.40434 233.70312Q199.1856 233.6875 199.6231 233.29688Q200.0606 232.90625 200.0606 232.23438Q200.0606 230.73438 198.5606 230.73438Q197.85747 230.73438 197.4356 231.14062Q197.02934 231.54688 197.02934 232.20312L195.9356 232.20312Q195.9356 231.1875 196.66997 230.51562Q197.41997 229.84375 198.5606 229.84375Q199.76372 229.84375 200.45122 230.48438Q201.13872 231.125 201.13872 232.26562Q201.13872 232.82812 200.77934 233.34375Q200.41997 233.85938 199.79497 234.125Q200.4981 234.34375 200.8731 234.85938Q201.26372 235.375 201.26372 236.125Q201.26372 237.26562 200.51372 237.95312Q199.76372 238.625 198.5606 238.625Q197.3731 238.625 196.60747 237.96875Q195.85747 237.3125 195.85747 236.25L196.95122 236.25Q196.95122 236.92188 197.38872 237.32812Q197.82622 237.73438 198.57622 237.73438Q199.35747 237.73438 199.76372 237.32812Q200.1856 236.90625 200.1856 236.14062Q200.1856 235.40625 199.73247 235.01562Q199.27934 234.60938 198.40434 234.59375L197.59184 234.59375L197.59184 233.70312ZM208.3731 234.85938Q208.3731 236.76562 207.71684 237.70312Q207.07622 238.625 205.6856 238.625Q204.32622 238.625 203.66997 237.71875Q203.01372 236.8125 202.98247 235.0L202.98247 233.5625Q202.98247 231.67188 203.6231 230.76562Q204.27934 229.84375 205.66997 229.84375Q207.04497 229.84375 207.70122 230.73438Q208.35747 231.60938 208.3731 233.45312L208.3731 234.85938ZM207.27934 233.375Q207.27934 232.0 206.88872 231.375Q206.51372 230.73438 205.66997 230.73438Q204.84184 230.73438 204.45122 231.375Q204.07622 232.0 204.07622 233.29688L204.07622 235.03125Q204.07622 236.40625 204.46684 237.07812Q204.8731 237.73438 205.6856 237.73438Q206.48247 237.73438 206.8731 237.10938Q207.26372 236.48438 207.27934 235.15625L207.27934 233.375ZM210.51372 234.21875L210.95122 229.96875L215.32622 229.96875L215.32622 230.96875L211.8731 230.96875L211.60747 233.29688Q212.2481 232.92188 213.04497 232.92188Q214.20122 232.92188 214.88872 233.70312Q215.57622 234.46875 215.57622 235.78125Q215.57622 237.09375 214.85747 237.85938Q214.15434 238.625 212.8731 238.625Q211.7481 238.625 211.02934 238.0Q210.3106 237.35938 210.21684 236.25L211.23247 236.25Q211.34184 236.98438 211.76372 237.35938Q212.1856 237.73438 212.8731 237.73438Q213.6231 237.73438 214.0606 237.21875Q214.4981 236.70312 214.4981 235.79688Q214.4981 234.9375 214.02934 234.42188Q213.5606 233.90625 212.77934 233.90625Q212.07622 233.90625 211.66997 234.20312L211.38872 234.4375L210.51372 234.21875ZM221.27934 229.96875L221.27934 230.875L221.07622 230.875Q219.8106 230.90625 219.0606 231.64062Q218.3106 232.35938 218.1856 233.67188Q218.8731 232.90625 220.02934 232.90625Q221.13872 232.90625 221.8106 233.6875Q222.48247 234.46875 222.48247 235.71875Q222.48247 237.03125 221.76372 237.82812Q221.04497 238.625 219.82622 238.625Q218.60747 238.625 217.84184 237.6875Q217.09184 236.73438 217.09184 235.25L217.09184 234.84375Q217.09184 232.48438 218.09184 231.23438Q219.09184 229.98438 221.07622 229.96875L221.27934 229.96875ZM219.85747 233.8125Q219.29497 233.8125 218.82622 234.14062Q218.35747 234.46875 218.16997 234.98438L218.16997 235.375Q218.16997 236.4375 218.63872 237.07812Q219.1231 237.71875 219.82622 237.71875Q220.5606 237.71875 220.98247 237.1875Q221.40434 236.64062 221.40434 235.76562Q221.40434 234.89062 220.98247 234.35938Q220.5606 233.8125 219.85747 233.8125Z" fill-rule="nonzero"/><path fill="#424242" d="M363.25638 321.68723L361.24075 321.68723L361.24075 325.14035L360.11575 325.14035L360.11575 316.6091L362.94388 316.6091Q364.38138 316.6091 365.147 317.26535Q365.92825 317.9216 365.92825 319.1716Q365.92825 319.96848 365.49075 320.56223Q365.06888 321.15598 364.30325 321.45285L366.30325 325.06223L366.30325 325.14035L365.10013 325.14035L363.25638 321.68723ZM361.24075 320.76535L362.97513 320.76535Q363.81888 320.76535 364.30325 320.34348Q364.80325 319.90598 364.80325 319.1716Q364.80325 318.39035 364.3345 317.96848Q363.86575 317.5466 362.97513 317.53098L361.24075 317.53098L361.24075 320.76535ZM371.8345 322.90598L368.25638 322.90598L367.4595 325.14035L366.30325 325.14035L369.55325 316.6091L370.53763 316.6091L373.80325 325.14035L372.647 325.14035L371.8345 322.90598ZM368.60013 321.9841L371.50638 321.9841L370.05325 317.99973L368.60013 321.9841ZM376.56888 316.6091L379.36575 323.56223L382.147 316.6091L383.61575 316.6091L383.61575 325.14035L382.49075 325.14035L382.49075 321.81223L382.60013 318.2341L379.78763 325.14035L378.92825 325.14035L376.13138 318.24973L376.24075 321.81223L376.24075 325.14035L375.11575 325.14035L375.11575 316.6091L376.56888 316.6091ZM385.16263 325.87473L384.24075 325.87473L387.80325 316.6091L388.72513 316.6091L385.16263 325.87473ZM396.67825 325.14035L395.55325 325.14035L395.55325 321.20285L391.24075 321.20285L391.24075 325.14035L390.11575 325.14035L390.11575 316.6091L391.24075 316.6091L391.24075 320.28098L395.55325 320.28098L395.55325 316.6091L396.67825 316.6091L396.67825 325.14035ZM401.5845 325.26535Q400.28763 325.26535 399.47513 324.4216Q398.67825 323.56223 398.67825 322.14035L398.67825 321.95285Q398.67825 320.99973 399.03763 320.26535Q399.397 319.51535 400.03763 319.1091Q400.69388 318.68723 401.44388 318.68723Q402.67825 318.68723 403.36575 319.49973Q404.05325 320.31223 404.05325 321.82785L404.05325 322.28098L399.75638 322.28098Q399.78763 323.21848 400.30325 323.7966Q400.8345 324.37473 401.647 324.37473Q402.2095 324.37473 402.60013 324.14035Q403.00638 323.90598 403.31888 323.51535L403.97513 324.03098Q403.17825 325.26535 401.5845 325.26535ZM401.44388 319.57785Q400.78763 319.57785 400.3345 320.06223Q399.897 320.53098 399.80325 321.39035L402.97513 321.39035L402.97513 321.31223Q402.92825 320.4841 402.522 320.03098Q402.13138 319.57785 401.44388 319.57785ZM408.86575 325.14035Q408.772 324.95285 408.7095 324.46848Q407.9595 325.26535 406.91263 325.26535Q405.97513 325.26535 405.36575 324.7341Q404.772 324.20285 404.772 323.37473Q404.772 322.39035 405.522 321.84348Q406.272 321.2966 407.647 321.2966L408.69388 321.2966L408.69388 320.7966Q408.69388 320.2341 408.35013 319.90598Q408.022 319.56223 407.35013 319.56223Q406.772 319.56223 406.38138 319.8591Q405.99075 320.14035 405.99075 320.56223L404.897 320.56223Q404.897 320.07785 405.22513 319.64035Q405.56888 319.20285 406.147 318.95285Q406.72513 318.68723 407.41263 318.68723Q408.522 318.68723 409.13138 319.2341Q409.75638 319.78098 409.78763 320.7341L409.78763 323.65598Q409.78763 324.53098 410.00638 325.0466L410.00638 325.14035L408.86575 325.14035ZM407.06888 324.31223Q407.5845 324.31223 408.03763 324.0466Q408.49075 323.78098 408.69388 323.3591L408.69388 322.06223L407.85013 322.06223Q405.85013 322.06223 405.85013 323.2341Q405.85013 323.7341 406.19388 324.03098Q406.53763 324.31223 407.06888 324.31223ZM417.30325 322.0466Q417.30325 323.4841 416.647 324.37473Q415.99075 325.26535 414.85013 325.26535Q413.69388 325.26535 413.03763 324.53098L413.03763 327.57785L411.9595 327.57785L411.9595 318.7966L412.94388 318.7966L412.99075 319.49973Q413.66263 318.68723 414.8345 318.68723Q415.97513 318.68723 416.63138 319.5466Q417.30325 320.40598 417.30325 321.93723L417.30325 322.0466ZM416.22513 321.9216Q416.22513 320.84348 415.75638 320.2341Q415.30325 319.6091 414.50638 319.6091Q413.522 319.6091 413.03763 320.46848L413.03763 323.49973Q413.522 324.37473 414.522 324.37473Q415.30325 324.37473 415.75638 323.76535Q416.22513 323.14035 416.22513 321.9216ZM421.91263 321.6716Q421.91263 320.3591 422.25638 319.14035Q422.61575 317.9216 423.31888 316.9216Q424.022 315.9216 424.78763 315.51535L425.00638 316.2341Q424.147 316.89035 423.60013 318.2341Q423.05325 319.57785 423.00638 321.24973L422.99075 321.74973Q422.99075 324.01535 423.81888 325.6716Q424.31888 326.6716 425.00638 327.2341L424.78763 327.89035Q424.00638 327.46848 423.28763 326.43723Q421.91263 324.45285 421.91263 321.6716ZM427.13138 325.14035L426.05325 325.14035L426.05325 316.14035L427.13138 316.14035L427.13138 325.14035ZM428.66263 321.90598Q428.66263 320.9841 429.022 320.2341Q429.397 319.4841 430.05325 319.09348Q430.7095 318.68723 431.53763 318.68723Q432.8345 318.68723 433.63138 319.57785Q434.44388 320.46848 434.44388 321.96848L434.44388 322.0466Q434.44388 322.96848 434.0845 323.70285Q433.72513 324.43723 433.06888 324.8591Q432.41263 325.26535 431.55325 325.26535Q430.272 325.26535 429.4595 324.37473Q428.66263 323.46848 428.66263 321.9841L428.66263 321.90598ZM429.75638 322.0466Q429.75638 323.09348 430.24075 323.7341Q430.74075 324.37473 431.55325 324.37473Q432.38138 324.37473 432.86575 323.7341Q433.35013 323.07785 433.35013 321.90598Q433.35013 320.87473 432.85013 320.2341Q432.36575 319.57785 431.53763 319.57785Q430.74075 319.57785 430.24075 320.21848Q429.75638 320.84348 429.75638 322.0466ZM441.56888 323.64035L442.78763 318.7966L443.86575 318.7966L442.022 325.14035L441.147 325.14035L439.60013 320.32785L438.10013 325.14035L437.22513 325.14035L435.38138 318.7966L436.4595 318.7966L437.7095 323.5466L439.19388 318.7966L440.05325 318.7966L441.56888 323.64035ZM447.5845 325.26535Q446.28763 325.26535 445.47513 324.4216Q444.67825 323.56223 444.67825 322.14035L444.67825 321.95285Q444.67825 320.99973 445.03763 320.26535Q445.397 319.51535 446.03763 319.1091Q446.69388 318.68723 447.44388 318.68723Q448.67825 318.68723 449.36575 319.49973Q450.05325 320.31223 450.05325 321.82785L450.05325 322.28098L445.75638 322.28098Q445.78763 323.21848 446.30325 323.7966Q446.8345 324.37473 447.647 324.37473Q448.2095 324.37473 448.60013 324.14035Q449.00638 323.90598 449.31888 323.51535L449.97513 324.03098Q449.17825 325.26535 447.5845 325.26535ZM447.44388 319.57785Q446.78763 319.57785 446.3345 320.06223Q445.897 320.53098 445.80325 321.39035L448.97513 321.39035L448.97513 321.31223Q448.92825 320.4841 448.522 320.03098Q448.13138 319.57785 447.44388 319.57785ZM454.022 319.76535Q453.772 319.7341 453.49075 319.7341Q452.41263 319.7341 452.03763 320.64035L452.03763 325.14035L450.9595 325.14035L450.9595 318.7966L452.00638 318.7966L452.022 319.53098Q452.55325 318.68723 453.53763 318.68723Q453.85013 318.68723 454.022 318.76535L454.022 319.76535ZM459.13138 325.14035L458.05325 325.14035L458.05325 318.7966L459.13138 318.7966L459.13138 325.14035ZM457.9595 317.12473Q457.9595 316.8591 458.11575 316.6716Q458.28763 316.4841 458.60013 316.4841Q458.91263 316.4841 459.06888 316.6716Q459.24075 316.8591 459.24075 317.12473Q459.24075 317.37473 459.06888 317.56223Q458.91263 317.7341 458.60013 317.7341Q458.28763 317.7341 458.11575 317.56223Q457.9595 317.37473 457.9595 317.12473ZM464.647 323.45285Q464.647 323.01535 464.30325 322.78098Q463.97513 322.53098 463.147 322.3591Q462.3345 322.18723 461.85013 321.93723Q461.36575 321.68723 461.13138 321.3591Q460.91263 321.01535 460.91263 320.5466Q460.91263 319.76535 461.56888 319.2341Q462.22513 318.68723 463.25638 318.68723Q464.3345 318.68723 464.99075 319.24973Q465.66263 319.7966 465.66263 320.65598L464.5845 320.65598Q464.5845 320.21848 464.19388 319.90598Q463.81888 319.57785 463.25638 319.57785Q462.66263 319.57785 462.31888 319.84348Q461.99075 320.09348 461.99075 320.49973Q461.99075 320.89035 462.30325 321.09348Q462.61575 321.2966 463.42825 321.4841Q464.24075 321.65598 464.74075 321.90598Q465.24075 322.15598 465.47513 322.51535Q465.72513 322.87473 465.72513 323.37473Q465.72513 324.2341 465.03763 324.74973Q464.36575 325.26535 463.28763 325.26535Q462.522 325.26535 461.92825 324.99973Q461.35013 324.71848 461.022 324.2341Q460.69388 323.74973 460.69388 323.18723L461.772 323.18723Q461.80325 323.7341 462.2095 324.06223Q462.61575 324.37473 463.28763 324.37473Q463.897 324.37473 464.272 324.12473Q464.647 323.87473 464.647 323.45285ZM475.31888 322.0466Q475.31888 323.49973 474.647 324.39035Q473.99075 325.26535 472.86575 325.26535Q471.66263 325.26535 471.00638 324.40598L470.94388 325.14035L469.9595 325.14035L469.9595 316.14035L471.03763 316.14035L471.03763 319.49973Q471.69388 318.68723 472.85013 318.68723Q474.00638 318.68723 474.66263 319.56223Q475.31888 320.4216 475.31888 321.95285L475.31888 322.0466ZM474.24075 321.9216Q474.24075 320.81223 473.80325 320.21848Q473.38138 319.6091 472.5845 319.6091Q471.50638 319.6091 471.03763 320.59348L471.03763 323.34348Q471.53763 324.34348 472.5845 324.34348Q473.36575 324.34348 473.80325 323.7341Q474.24075 323.12473 474.24075 321.9216ZM479.5845 325.26535Q478.28763 325.26535 477.47513 324.4216Q476.67825 323.56223 476.67825 322.14035L476.67825 321.95285Q476.67825 320.99973 477.03763 320.26535Q477.397 319.51535 478.03763 319.1091Q478.69388 318.68723 479.44388 318.68723Q480.67825 318.68723 481.36575 319.49973Q482.05325 320.31223 482.05325 321.82785L482.05325 322.28098L477.75638 322.28098Q477.78763 323.21848 478.30325 323.7966Q478.8345 324.37473 479.647 324.37473Q480.2095 324.37473 480.60013 324.14035Q481.00638 323.90598 481.31888 323.51535L481.97513 324.03098Q481.17825 325.26535 479.5845 325.26535ZM479.44388 319.57785Q478.78763 319.57785 478.3345 320.06223Q477.897 320.53098 477.80325 321.39035L480.97513 321.39035L480.97513 321.31223Q480.92825 320.4841 480.522 320.03098Q480.13138 319.57785 479.44388 319.57785ZM484.42825 317.26535L484.42825 318.7966L485.60013 318.7966L485.60013 319.64035L484.42825 319.64035L484.42825 323.56223Q484.42825 323.95285 484.5845 324.14035Q484.74075 324.32785 485.11575 324.32785Q485.30325 324.32785 485.63138 324.26535L485.63138 325.14035Q485.2095 325.26535 484.80325 325.26535Q484.0845 325.26535 483.7095 324.82785Q483.3345 324.37473 483.3345 323.56223L483.3345 319.64035L482.17825 319.64035L482.17825 318.7966L483.3345 318.7966L483.3345 317.26535L484.42825 317.26535ZM488.42825 317.26535L488.42825 318.7966L489.60013 318.7966L489.60013 319.64035L488.42825 319.64035L488.42825 323.56223Q488.42825 323.95285 488.5845 324.14035Q488.74075 324.32785 489.11575 324.32785Q489.30325 324.32785 489.63138 324.26535L489.63138 325.14035Q489.2095 325.26535 488.80325 325.26535Q488.0845 325.26535 487.7095 324.82785Q487.3345 324.37473 487.3345 323.56223L487.3345 319.64035L486.17825 319.64035L486.17825 318.7966L487.3345 318.7966L487.3345 317.26535L488.42825 317.26535ZM493.5845 325.26535Q492.28763 325.26535 491.47513 324.4216Q490.67825 323.56223 490.67825 322.14035L490.67825 321.95285Q490.67825 320.99973 491.03763 320.26535Q491.397 319.51535 492.03763 319.1091Q492.69388 318.68723 493.44388 318.68723Q494.67825 318.68723 495.36575 319.49973Q496.05325 320.31223 496.05325 321.82785L496.05325 322.28098L491.75638 322.28098Q491.78763 323.21848 492.30325 323.7966Q492.8345 324.37473 493.647 324.37473Q494.2095 324.37473 494.60013 324.14035Q495.00638 323.90598 495.31888 323.51535L495.97513 324.03098Q495.17825 325.26535 493.5845 325.26535ZM493.44388 319.57785Q492.78763 319.57785 492.3345 320.06223Q491.897 320.53098 491.80325 321.39035L494.97513 321.39035L494.97513 321.31223Q494.92825 320.4841 494.522 320.03098Q494.13138 319.57785 493.44388 319.57785ZM500.022 319.76535Q499.772 319.7341 499.49075 319.7341Q498.41263 319.7341 498.03763 320.64035L498.03763 325.14035L496.9595 325.14035L496.9595 318.7966L498.00638 318.7966L498.022 319.53098Q498.55325 318.68723 499.53763 318.68723Q499.85013 318.68723 500.022 318.76535L500.022 319.76535ZM503.4595 321.7341Q503.4595 323.0466 503.11575 324.24973Q502.772 325.43723 502.05325 326.45285Q501.35013 327.46848 500.5845 327.89035L500.35013 327.2341Q501.25638 326.5466 501.80325 325.09348Q502.35013 323.62473 502.36575 321.8591L502.36575 321.6716Q502.36575 320.43723 502.10013 319.37473Q501.85013 318.31223 501.38138 317.4841Q500.92825 316.64035 500.35013 316.1716L500.5845 315.51535Q501.35013 315.93723 502.05325 316.93723Q502.75638 317.93723 503.10013 319.15598Q503.4595 320.3591 503.4595 321.7341Z" fill-rule="nonzero"/><path fill="#757575" d="M21.2922 112.63035L20.214075 112.63035L20.214075 105.4116L18.026575 106.20847L18.026575 105.2241L21.13595 104.05222L21.2922 104.05222L21.2922 112.63035ZM30.089075 108.98972Q30.089075 110.89597 29.432825 111.83347Q28.7922 112.75535 27.401575 112.75535Q26.0422 112.75535 25.38595 111.8491Q24.7297 110.94285 24.69845 109.13035L24.69845 107.69285Q24.69845 105.80222 25.339075 104.89597Q25.995325 103.9741 27.38595 103.9741Q28.76095 103.9741 29.4172 104.86472Q30.07345 105.73972 30.089075 107.58347L30.089075 108.98972ZM28.995325 107.50535Q28.995325 106.13035 28.6047 105.50535Q28.2297 104.86472 27.38595 104.86472Q26.557825 104.86472 26.1672 105.50535Q25.7922 106.13035 25.7922 107.42722L25.7922 109.1616Q25.7922 110.5366 26.182825 111.20847Q26.589075 111.86472 27.401575 111.86472Q28.19845 111.86472 28.589075 111.23972Q28.9797 110.61472 28.995325 109.2866L28.995325 107.50535ZM37.089073 108.98972Q37.089073 110.89597 36.432823 111.83347Q35.7922 112.75535 34.401573 112.75535Q33.0422 112.75535 32.38595 111.8491Q31.7297 110.94285 31.69845 109.13035L31.69845 107.69285Q31.69845 105.80222 32.339073 104.89597Q32.995323 103.9741 34.38595 103.9741Q35.76095 103.9741 36.4172 104.86472Q37.07345 105.73972 37.089073 107.58347L37.089073 108.98972ZM35.995323 107.50535Q35.995323 106.13035 35.6047 105.50535Q35.2297 104.86472 34.38595 104.86472Q33.557823 104.86472 33.1672 105.50535Q32.7922 106.13035 32.7922 107.42722L32.7922 109.1616Q32.7922 110.5366 33.182823 111.20847Q33.589073 111.86472 34.401573 111.86472Q35.19845 111.86472 35.589073 111.23972Q35.9797 110.61472 35.995323 109.2866L35.995323 107.50535ZM43.151573 111.70847L47.19845 111.70847L47.19845 112.63035L42.01095 112.63035L42.01095 104.0991L43.151573 104.0991L43.151573 111.70847ZM52.839073 108.69285L49.13595 108.69285L49.13595 111.70847L53.432823 111.70847L53.432823 112.63035L48.01095 112.63035L48.01095 104.0991L53.38595 104.0991L53.38595 105.02097L49.13595 105.02097L49.13595 107.77097L52.839073 107.77097L52.839073 108.69285ZM55.01095 112.63035L55.01095 104.0991L57.432823 104.0991Q58.5422 104.0991 59.38595 104.5991Q60.245323 105.08347 60.714073 105.98972Q61.182823 106.89597 61.182823 108.08347L61.182823 108.61472Q61.182823 109.83347 60.714073 110.73972Q60.26095 111.64597 59.38595 112.13035Q58.526573 112.61472 57.38595 112.63035L55.01095 112.63035ZM56.13595 105.02097L56.13595 111.70847L57.32345 111.70847Q58.620323 111.70847 59.339073 110.9116Q60.07345 110.0991 60.07345 108.5991L60.07345 108.0991Q60.07345 106.64597 59.38595 105.8491Q58.714073 105.0366 57.44845 105.02097L56.13595 105.02097ZM66.5422 110.94285Q66.5422 110.50535 66.19845 110.27097Q65.87032 110.02097 65.0422 109.8491Q64.2297 109.67722 63.745323 109.42722Q63.26095 109.17722 63.026573 108.8491Q62.807823 108.50535 62.807823 108.0366Q62.807823 107.25535 63.464073 106.7241Q64.12032 106.17722 65.15157 106.17722Q66.2297 106.17722 66.88595 106.73972Q67.55782 107.2866 67.55782 108.14597L66.4797 108.14597Q66.4797 107.70847 66.08907 107.39597Q65.71407 107.06785 65.15157 107.06785Q64.55782 107.06785 64.21407 107.33347Q63.88595 107.58347 63.88595 107.98972Q63.88595 108.38035 64.19845 108.58347Q64.51095 108.7866 65.32345 108.9741Q66.13595 109.14597 66.63595 109.39597Q67.13595 109.64597 67.37032 110.00535Q67.62032 110.36472 67.62032 110.86472Q67.62032 111.7241 66.93282 112.23972Q66.26095 112.75535 65.18282 112.75535Q64.4172 112.75535 63.82345 112.48972Q63.245323 112.20847 62.9172 111.7241Q62.589073 111.23972 62.589073 110.67722L63.6672 110.67722Q63.69845 111.2241 64.1047 111.55222Q64.51095 111.86472 65.18282 111.86472Q65.7922 111.86472 66.1672 111.61472Q66.5422 111.36472 66.5422 110.94285Z" fill-rule="nonzero"/><path fill="#757575" d="M14.292199 216.17914L13.214074 216.17914L13.214074 208.96039L11.026574 209.75726L11.026574 208.77289L14.135949 207.60101L14.292199 207.60101L14.292199 216.17914ZM23.089073 212.53851Q23.089073 214.44476 22.432823 215.38226Q21.792198 216.30414 20.401573 216.30414Q19.042198 216.30414 18.385948 215.39789Q17.729698 214.49164 17.698448 212.67914L17.698448 211.24164Q17.698448 209.35101 18.339073 208.44476Q18.995323 207.52289 20.385948 207.52289Q21.760948 207.52289 22.417198 208.41351Q23.073448 209.28851 23.089073 211.13226L23.089073 212.53851ZM21.995323 211.05414Q21.995323 209.67914 21.604698 209.05414Q21.229698 208.41351 20.385948 208.41351Q19.557823 208.41351 19.167198 209.05414Q18.792198 209.67914 18.792198 210.97601L18.792198 212.71039Q18.792198 214.08539 19.182823 214.75726Q19.589073 215.41351 20.401573 215.41351Q21.198448 215.41351 21.589073 214.78851Q21.979698 214.16351 21.995323 212.83539L21.995323 211.05414ZM30.089073 212.53851Q30.089073 214.44476 29.432823 215.38226Q28.792198 216.30414 27.401573 216.30414Q26.042198 216.30414 25.385948 215.39789Q24.729698 214.49164 24.698448 212.67914L24.698448 211.24164Q24.698448 209.35101 25.339073 208.44476Q25.995323 207.52289 27.385948 207.52289Q28.760948 207.52289 29.417198 208.41351Q30.073448 209.28851 30.089073 211.13226L30.089073 212.53851ZM28.995323 211.05414Q28.995323 209.67914 28.604698 209.05414Q28.229698 208.41351 27.385948 208.41351Q26.557823 208.41351 26.167198 209.05414Q25.792198 209.67914 25.792198 210.97601L25.792198 212.71039Q25.792198 214.08539 26.182823 214.75726Q26.589073 215.41351 27.401573 215.41351Q28.198448 215.41351 28.589073 214.78851Q28.979698 214.16351 28.995323 212.83539L28.995323 211.05414ZM37.089073 212.53851Q37.089073 214.44476 36.432823 215.38226Q35.7922 216.30414 34.401573 216.30414Q33.0422 216.30414 32.38595 215.39789Q31.729698 214.49164 31.698448 212.67914L31.698448 211.24164Q31.698448 209.35101 32.339073 208.44476Q32.995323 207.52289 34.38595 207.52289Q35.76095 207.52289 36.4172 208.41351Q37.07345 209.28851 37.089073 211.13226L37.089073 212.53851ZM35.995323 211.05414Q35.995323 209.67914 35.6047 209.05414Q35.2297 208.41351 34.38595 208.41351Q33.557823 208.41351 33.1672 209.05414Q32.7922 209.67914 32.7922 210.97601L32.7922 212.71039Q32.7922 214.08539 33.182823 214.75726Q33.589073 215.41351 34.401573 215.41351Q35.19845 215.41351 35.589073 214.78851Q35.9797 214.16351 35.995323 212.83539L35.995323 211.05414ZM43.151573 215.25726L47.19845 215.25726L47.19845 216.17914L42.01095 216.17914L42.01095 207.64789L43.151573 207.64789L43.151573 215.25726ZM52.839073 212.24164L49.13595 212.24164L49.13595 215.25726L53.432823 215.25726L53.432823 216.17914L48.01095 216.17914L48.01095 207.64789L53.38595 207.64789L53.38595 208.56976L49.13595 208.56976L49.13595 211.31976L52.839073 211.31976L52.839073 212.24164ZM55.01095 216.17914L55.01095 207.64789L57.432823 207.64789Q58.5422 207.64789 59.38595 208.14789Q60.245323 208.63226 60.714073 209.53851Q61.182823 210.44476 61.182823 211.63226L61.182823 212.16351Q61.182823 213.38226 60.714073 214.28851Q60.26095 215.19476 59.38595 215.67914Q58.526573 216.16351 57.38595 216.17914L55.01095 216.17914ZM56.13595 208.56976L56.13595 215.25726L57.32345 215.25726Q58.620323 215.25726 59.339073 214.46039Q60.07345 213.64789 60.07345 212.14789L60.07345 211.64789Q60.07345 210.19476 59.38595 209.39789Q58.714073 208.58539 57.44845 208.56976L56.13595 208.56976ZM66.5422 214.49164Q66.5422 214.05414 66.19845 213.81976Q65.87032 213.56976 65.0422 213.39789Q64.2297 213.22601 63.745323 212.97601Q63.26095 212.72601 63.026573 212.39789Q62.807823 212.05414 62.807823 211.58539Q62.807823 210.80414 63.464073 210.27289Q64.12032 209.72601 65.15157 209.72601Q66.2297 209.72601 66.88595 210.28851Q67.55782 210.83539 67.55782 211.69476L66.4797 211.69476Q66.4797 211.25726 66.08907 210.94476Q65.71407 210.61664 65.15157 210.61664Q64.55782 210.61664 64.21407 210.88226Q63.88595 211.13226 63.88595 211.53851Q63.88595 211.92914 64.19845 212.13226Q64.51095 212.33539 65.32345 212.52289Q66.13595 212.69476 66.63595 212.94476Q67.13595 213.19476 67.37032 213.55414Q67.62032 213.91351 67.62032 214.41351Q67.62032 215.27289 66.93282 215.78851Q66.26095 216.30414 65.18282 216.30414Q64.4172 216.30414 63.82345 216.03851Q63.245323 215.75726 62.9172 215.27289Q62.589073 214.78851 62.589073 214.22601L63.6672 214.22601Q63.69845 214.77289 64.1047 215.10101Q64.51095 215.41351 65.18282 215.41351Q65.7922 215.41351 66.1672 215.16351Q66.5422 214.91351 66.5422 214.49164Z" fill-rule="nonzero"/><path fill="#757575" d="M67.58907 295.93393Q67.58907 297.84018 66.93282 298.77768Q66.2922 299.69955 64.90157 299.69955Q63.5422 299.69955 62.88595 298.7933Q62.2297 297.88705 62.19845 296.07455L62.19845 294.63705Q62.19845 292.74643 62.839073 291.84018Q63.495323 290.9183 64.88595 290.9183Q66.26095 290.9183 66.9172 291.80893Q67.57345 292.68393 67.58907 294.52768L67.58907 295.93393ZM66.49532 294.44955Q66.49532 293.07455 66.1047 292.44955Q65.7297 291.80893 64.88595 291.80893Q64.05782 291.80893 63.6672 292.44955Q63.2922 293.07455 63.2922 294.37143L63.2922 296.1058Q63.2922 297.4808 63.682823 298.15268Q64.08907 298.80893 64.90157 298.80893Q65.69845 298.80893 66.08907 298.18393Q66.4797 297.55893 66.49532 296.2308L66.49532 294.44955ZM74.68282 295.6058L73.63595 296.68393L73.63595 299.57455L72.51095 299.57455L72.51095 291.0433L73.63595 291.0433L73.63595 295.26205L77.43282 291.0433L78.7922 291.0433L75.43282 294.80893L79.05782 299.57455L77.71407 299.57455L74.68282 295.6058ZM80.51095 299.57455L80.51095 291.0433L83.30782 291.0433Q84.69845 291.0433 85.38595 291.62143Q86.08907 292.18393 86.08907 293.30893Q86.08907 293.9183 85.74532 294.38705Q85.4172 294.84018 84.82345 295.09018Q85.52657 295.27768 85.9172 295.82455Q86.32345 296.3558 86.32345 297.1058Q86.32345 298.26205 85.57345 298.9183Q84.83907 299.57455 83.4797 299.57455L80.51095 299.57455ZM81.63595 295.59018L81.63595 298.65268L83.49532 298.65268Q84.2922 298.65268 84.74532 298.24643Q85.19845 297.84018 85.19845 297.12143Q85.19845 295.59018 83.51095 295.59018L81.63595 295.59018ZM81.63595 294.68393L83.33907 294.68393Q84.07345 294.68393 84.51095 294.32455Q84.96407 293.94955 84.96407 293.30893Q84.96407 292.6058 84.55782 292.2933Q84.15157 291.96518 83.30782 291.96518L81.63595 291.96518L81.63595 294.68393Z" fill-rule="nonzero"/><path fill="#757575" d="M241.53209 295.2933L241.96959 291.0433L246.34459 291.0433L246.34459 292.0433L242.89146 292.0433L242.62584 294.37143Q243.26646 293.99643 244.06334 293.99643Q245.21959 293.99643 245.90709 294.77768Q246.59459 295.5433 246.59459 296.8558Q246.59459 298.1683 245.87584 298.93393Q245.17271 299.69955 243.89146 299.69955Q242.76646 299.69955 242.04771 299.07455Q241.32896 298.43393 241.23521 297.32455L242.25084 297.32455Q242.36021 298.05893 242.78209 298.43393Q243.20396 298.80893 243.89146 298.80893Q244.64146 298.80893 245.07896 298.2933Q245.51646 297.77768 245.51646 296.87143Q245.51646 296.01205 245.04771 295.49643Q244.57896 294.9808 243.79771 294.9808Q243.09459 294.9808 242.68834 295.27768L242.40709 295.51205L241.53209 295.2933ZM253.48521 295.6058L252.43834 296.68393L252.43834 299.57455L251.31334 299.57455L251.31334 291.0433L252.43834 291.0433L252.43834 295.26205L256.23523 291.0433L257.5946 291.0433L254.23521 294.80893L257.86023 299.57455L256.51648 299.57455L253.48521 295.6058ZM259.31335 299.57455L259.31335 291.0433L262.11023 291.0433Q263.50085 291.0433 264.18835 291.62143Q264.89148 292.18393 264.89148 293.30893Q264.89148 293.9183 264.54773 294.38705Q264.2196 294.84018 263.62585 295.09018Q264.32898 295.27768 264.7196 295.82455Q265.12585 296.3558 265.12585 297.1058Q265.12585 298.26205 264.37585 298.9183Q263.64148 299.57455 262.2821 299.57455L259.31335 299.57455ZM260.43835 295.59018L260.43835 298.65268L262.29773 298.65268Q263.0946 298.65268 263.54773 298.24643Q264.00085 297.84018 264.00085 297.12143Q264.00085 295.59018 262.31335 295.59018L260.43835 295.59018ZM260.43835 294.68393L262.14148 294.68393Q262.87585 294.68393 263.31335 294.32455Q263.76648 293.94955 263.76648 293.30893Q263.76648 292.6058 263.36023 292.2933Q262.95398 291.96518 262.11023 291.96518L260.43835 291.96518L260.43835 294.68393Z" fill-rule="nonzero"/><path fill="#757575" d="M419.897 299.57455L418.81888 299.57455L418.81888 292.3558L416.63138 293.15268L416.63138 292.1683L419.74075 290.99643L419.897 290.99643L419.897 299.57455ZM428.69388 295.93393Q428.69388 297.84018 428.03763 298.77768Q427.397 299.69955 426.00638 299.69955Q424.647 299.69955 423.99075 298.7933Q423.3345 297.88705 423.30325 296.07455L423.30325 294.63705Q423.30325 292.74643 423.94388 291.84018Q424.60013 290.9183 425.99075 290.9183Q427.36575 290.9183 428.022 291.80893Q428.67825 292.68393 428.69388 294.52768L428.69388 295.93393ZM427.60013 294.44955Q427.60013 293.07455 427.2095 292.44955Q426.8345 291.80893 425.99075 291.80893Q425.16263 291.80893 424.772 292.44955Q424.397 293.07455 424.397 294.37143L424.397 296.1058Q424.397 297.4808 424.78763 298.15268Q425.19388 298.80893 426.00638 298.80893Q426.80325 298.80893 427.19388 298.18393Q427.5845 297.55893 427.60013 296.2308L427.60013 294.44955ZM435.78763 295.6058L434.74075 296.68393L434.74075 299.57455L433.61575 299.57455L433.61575 291.0433L434.74075 291.0433L434.74075 295.26205L438.53763 291.0433L439.897 291.0433L436.53763 294.80893L440.16263 299.57455L438.81888 299.57455L435.78763 295.6058ZM441.61575 299.57455L441.61575 291.0433L444.41263 291.0433Q445.80325 291.0433 446.49075 291.62143Q447.19388 292.18393 447.19388 293.30893Q447.19388 293.9183 446.85013 294.38705Q446.522 294.84018 445.92825 295.09018Q446.63138 295.27768 447.022 295.82455Q447.42825 296.3558 447.42825 297.1058Q447.42825 298.26205 446.67825 298.9183Q445.94388 299.57455 444.5845 299.57455L441.61575 299.57455ZM442.74075 295.59018L442.74075 298.65268L444.60013 298.65268Q445.397 298.65268 445.85013 298.24643Q446.30325 297.84018 446.30325 297.12143Q446.30325 295.59018 444.61575 295.59018L442.74075 295.59018ZM442.74075 294.68393L444.44388 294.68393Q445.17825 294.68393 445.61575 294.32455Q446.06888 293.94955 446.06888 293.30893Q446.06888 292.6058 445.66263 292.2933Q445.25638 291.96518 444.41263 291.96518L442.74075 291.96518L442.74075 294.68393Z" fill-rule="nonzero"/><path fill="#757575" d="M598.6994 299.57455L597.6213 299.57455L597.6213 292.3558L595.4338 293.15268L595.4338 292.1683L598.54315 290.99643L598.6994 290.99643L598.6994 299.57455ZM602.6369 295.2933L603.0744 291.0433L607.4494 291.0433L607.4494 292.0433L603.9963 292.0433L603.73065 294.37143Q604.3713 293.99643 605.16815 293.99643Q606.3244 293.99643 607.0119 294.77768Q607.6994 295.5433 607.6994 296.8558Q607.6994 298.1683 606.98065 298.93393Q606.2775 299.69955 604.9963 299.69955Q603.8713 299.69955 603.1525 299.07455Q602.4338 298.43393 602.34 297.32455L603.35565 297.32455Q603.465 298.05893 603.8869 298.43393Q604.3088 298.80893 604.9963 298.80893Q605.7463 298.80893 606.1838 298.2933Q606.6213 297.77768 606.6213 296.87143Q606.6213 296.01205 606.1525 295.49643Q605.6838 294.9808 604.9025 294.9808Q604.1994 294.9808 603.79315 295.27768L603.5119 295.51205L602.6369 295.2933ZM614.59 295.6058L613.54315 296.68393L613.54315 299.57455L612.41815 299.57455L612.41815 291.0433L613.54315 291.0433L613.54315 295.26205L617.34 291.0433L618.6994 291.0433L615.34 294.80893L618.965 299.57455L617.6213 299.57455L614.59 295.6058ZM620.41815 299.57455L620.41815 291.0433L623.215 291.0433Q624.60565 291.0433 625.29315 291.62143Q625.9963 292.18393 625.9963 293.30893Q625.9963 293.9183 625.6525 294.38705Q625.3244 294.84018 624.73065 295.09018Q625.4338 295.27768 625.8244 295.82455Q626.23065 296.3558 626.23065 297.1058Q626.23065 298.26205 625.48065 298.9183Q624.7463 299.57455 623.3869 299.57455L620.41815 299.57455ZM621.54315 295.59018L621.54315 298.65268L623.4025 298.65268Q624.1994 298.65268 624.6525 298.24643Q625.10565 297.84018 625.10565 297.12143Q625.10565 295.59018 623.41815 295.59018L621.54315 295.59018ZM621.54315 294.68393L623.2463 294.68393Q623.98065 294.68393 624.41815 294.32455Q624.8713 293.94955 624.8713 293.30893Q624.8713 292.6058 624.465 292.2933Q624.0588 291.96518 623.215 291.96518L621.54315 291.96518L621.54315 294.68393Z" fill-rule="nonzero"/><path fill="#757575" d="M779.533 299.57455L773.9393 299.57455L773.9393 298.7933L776.8924 295.51205Q777.54865 294.76205 777.79865 294.30893Q778.04865 293.84018 778.04865 293.34018Q778.04865 292.6683 777.6424 292.24643Q777.2518 291.80893 776.5643 291.80893Q775.7674 291.80893 775.3143 292.27768Q774.86115 292.7308 774.86115 293.55893L773.783 293.55893Q773.783 292.37143 774.533 291.65268Q775.29865 290.9183 776.5643 290.9183Q777.7674 290.9183 778.4549 291.5433Q779.1424 292.1683 779.1424 293.21518Q779.1424 294.46518 777.533 296.21518L775.2518 298.68393L779.533 298.68393L779.533 299.57455ZM786.29865 295.93393Q786.29865 297.84018 785.6424 298.77768Q785.0018 299.69955 783.61115 299.69955Q782.2518 299.69955 781.5955 298.7933Q780.9393 297.88705 780.908 296.07455L780.908 294.63705Q780.908 292.74643 781.54865 291.84018Q782.2049 290.9183 783.5955 290.9183Q784.9705 290.9183 785.6268 291.80893Q786.283 292.68393 786.29865 294.52768L786.29865 295.93393ZM785.2049 294.44955Q785.2049 293.07455 784.8143 292.44955Q784.4393 291.80893 783.5955 291.80893Q782.7674 291.80893 782.3768 292.44955Q782.0018 293.07455 782.0018 294.37143L782.0018 296.1058Q782.0018 297.4808 782.3924 298.15268Q782.79865 298.80893 783.61115 298.80893Q784.408 298.80893 784.79865 298.18393Q785.1893 297.55893 785.2049 296.2308L785.2049 294.44955ZM793.3924 295.6058L792.3455 296.68393L792.3455 299.57455L791.2205 299.57455L791.2205 291.0433L792.3455 291.0433L792.3455 295.26205L796.1424 291.0433L797.5018 291.0433L794.1424 294.80893L797.7674 299.57455L796.42365 299.57455L793.3924 295.6058ZM799.2205 299.57455L799.2205 291.0433L802.0174 291.0433Q803.408 291.0433 804.0955 291.62143Q804.79865 292.18393 804.79865 293.30893Q804.79865 293.9183 804.4549 294.38705Q804.1268 294.84018 803.533 295.09018Q804.23615 295.27768 804.6268 295.82455Q805.033 296.3558 805.033 297.1058Q805.033 298.26205 804.283 298.9183Q803.54865 299.57455 802.1893 299.57455L799.2205 299.57455ZM800.3455 295.59018L800.3455 298.65268L802.2049 298.65268Q803.0018 298.65268 803.4549 298.24643Q803.908 297.84018 803.908 297.12143Q803.908 295.59018 802.2205 295.59018L800.3455 295.59018ZM800.3455 294.68393L802.04865 294.68393Q802.783 294.68393 803.2205 294.32455Q803.67365 293.94955 803.67365 293.30893Q803.67365 292.6058 803.2674 292.2933Q802.86115 291.96518 802.0174 291.96518L800.3455 291.96518L800.3455 294.68393Z" fill-rule="nonzero"/><path fill="#3c78d8" d="M277.27515 17.48455C277.27515 16.932264 277.72287 16.48455 278.27515 16.48455L288.27515 16.48455C288.82745 16.48455 289.27515 16.932264 289.27515 17.48455L289.27515 27.48455C289.27515 28.036835 288.82745 28.48455 288.27515 28.48455L278.27515 28.48455C277.72287 28.48455 277.27515 28.036835 277.27515 27.48455Z" fill-rule="nonzero"/><path fill="#757575" d="M302.97827 23.218925L299.38452 23.218925L299.38452 26.98455L298.25952 26.98455L298.25952 18.4533L303.5564 18.4533L303.5564 19.375175L299.38452 19.375175L299.38452 22.29705L302.97827 22.29705L302.97827 23.218925ZM309.00952 26.98455Q308.91577 26.79705 308.85327 26.312675Q308.10327 27.10955 307.0564 27.10955Q306.1189 27.10955 305.50952 26.5783Q304.91577 26.04705 304.91577 25.218925Q304.91577 24.23455 305.66577 23.687675Q306.41577 23.1408 307.79077 23.1408L308.83765 23.1408L308.83765 22.6408Q308.83765 22.0783 308.4939 21.750175Q308.16577 21.406425 307.4939 21.406425Q306.91577 21.406425 306.52515 21.7033Q306.13452 21.98455 306.13452 22.406425L305.04077 22.406425Q305.04077 21.92205 305.3689 21.48455Q305.71265 21.04705 306.29077 20.79705Q306.8689 20.531425 307.5564 20.531425Q308.66577 20.531425 309.27515 21.0783Q309.90015 21.625175 309.9314 22.5783L309.9314 25.500175Q309.9314 26.375175 310.15015 26.8908L310.15015 26.98455L309.00952 26.98455ZM307.21265 26.156425Q307.72827 26.156425 308.1814 25.8908Q308.63452 25.625175 308.83765 25.2033L308.83765 23.906425L307.9939 23.906425Q305.9939 23.906425 305.9939 25.0783Q305.9939 25.5783 306.33765 25.875175Q306.6814 26.156425 307.21265 26.156425ZM315.79077 25.29705Q315.79077 24.85955 315.44702 24.625175Q315.1189 24.375175 314.29077 24.2033Q313.47827 24.031425 312.9939 23.781425Q312.50952 23.531425 312.27515 23.2033Q312.0564 22.85955 312.0564 22.3908Q312.0564 21.60955 312.71265 21.0783Q313.3689 20.531425 314.40015 20.531425Q315.47827 20.531425 316.13452 21.093925Q316.8064 21.6408 316.8064 22.500175L315.72827 22.500175Q315.72827 22.062675 315.33765 21.750175Q314.96265 21.42205 314.40015 21.42205Q313.8064 21.42205 313.46265 21.687675Q313.13452 21.937675 313.13452 22.343925Q313.13452 22.73455 313.44702 22.937675Q313.75952 23.1408 314.57202 23.3283Q315.38452 23.500175 315.88452 23.750175Q316.38452 24.000175 316.6189 24.35955Q316.8689 24.718925 316.8689 25.218925Q316.8689 26.0783 316.1814 26.593925Q315.50952 27.10955 314.4314 27.10955Q313.66577 27.10955 313.07202 26.843925Q312.4939 26.562675 312.16577 26.0783Q311.83765 25.593925 311.83765 25.031425L312.91577 25.031425Q312.94702 25.5783 313.35327 25.906425Q313.75952 26.218925 314.4314 26.218925Q315.04077 26.218925 315.41577 25.968925Q315.79077 25.718925 315.79077 25.29705ZM319.57202 19.10955L319.57202 20.6408L320.7439 20.6408L320.7439 21.48455L319.57202 21.48455L319.57202 25.406425Q319.57202 25.79705 319.72827 25.98455Q319.88452 26.17205 320.25952 26.17205Q320.44702 26.17205 320.77515 26.10955L320.77515 26.98455Q320.35327 27.10955 319.94702 27.10955Q319.22827 27.10955 318.85327 26.67205Q318.47827 26.218925 318.47827 25.406425L318.47827 21.48455L317.32202 21.48455L317.32202 20.6408L318.47827 20.6408L318.47827 19.10955L319.57202 19.10955ZM323.40015 26.062675L327.44702 26.062675L327.44702 26.98455L322.25952 26.98455L322.25952 18.4533L323.40015 18.4533L323.40015 26.062675ZM333.08765 23.04705L329.38452 23.04705L329.38452 26.062675L333.6814 26.062675L333.6814 26.98455L328.25952 26.98455L328.25952 18.4533L333.63452 18.4533L333.63452 19.375175L329.38452 19.375175L329.38452 22.125175L333.08765 22.125175L333.08765 23.04705ZM335.25952 26.98455L335.25952 18.4533L337.6814 18.4533Q338.79077 18.4533 339.63452 18.9533Q340.4939 19.437675 340.96265 20.343925Q341.4314 21.250175 341.4314 22.437675L341.4314 22.968925Q341.4314 24.187675 340.96265 25.093925Q340.50952 26.000175 339.63452 26.48455Q338.77515 26.968925 337.63452 26.98455L335.25952 26.98455ZM336.38452 19.375175L336.38452 26.062675L337.57202 26.062675Q338.8689 26.062675 339.58765 25.2658Q340.32202 24.4533 340.32202 22.9533L340.32202 22.4533Q340.32202 21.000175 339.63452 20.2033Q338.96265 19.3908 337.69702 19.375175L336.38452 19.375175Z" fill-rule="nonzero"/><path fill="#d54341" d="M358.27515 17.48455C358.27515 16.932264 358.72287 16.48455 359.27515 16.48455L369.27515 16.48455C369.82745 16.48455 370.27515 16.932264 370.27515 17.48455L370.27515 27.48455C370.27515 28.036835 369.82745 28.48455 369.27515 28.48455L359.27515 28.48455C358.72287 28.48455 358.27515 28.036835 358.27515 27.48455Z" fill-rule="nonzero"/><path fill="#757575" d="M385.82202 26.98455L384.69702 26.98455L380.40015 20.406425L380.40015 26.98455L379.25952 26.98455L379.25952 18.4533L380.40015 18.4533L384.69702 25.062675L384.69702 18.4533L385.82202 18.4533L385.82202 26.98455ZM390.72827 27.10955Q389.4314 27.10955 388.6189 26.2658Q387.82202 25.406425 387.82202 23.98455L387.82202 23.79705Q387.82202 22.843925 388.1814 22.10955Q388.54077 21.35955 389.1814 20.9533Q389.83765 20.531425 390.58765 20.531425Q391.82202 20.531425 392.50952 21.343925Q393.19702 22.156425 393.19702 23.67205L393.19702 24.125175L388.90015 24.125175Q388.9314 25.062675 389.44702 25.6408Q389.97827 26.218925 390.79077 26.218925Q391.35327 26.218925 391.7439 25.98455Q392.15015 25.750175 392.46265 25.35955L393.1189 25.875175Q392.32202 27.10955 390.72827 27.10955ZM390.58765 21.42205Q389.9314 21.42205 389.47827 21.906425Q389.04077 22.375175 388.94702 23.23455L392.1189 23.23455L392.1189 23.156425Q392.07202 22.3283 391.66577 21.875175Q391.27515 21.42205 390.58765 21.42205ZM393.8064 23.750175Q393.8064 22.8283 394.16577 22.0783Q394.54077 21.3283 395.19702 20.937675Q395.85327 20.531425 396.6814 20.531425Q397.97827 20.531425 398.77515 21.42205Q399.58765 22.312675 399.58765 23.812675L399.58765 23.8908Q399.58765 24.812675 399.22827 25.54705Q398.8689 26.281425 398.21265 26.7033Q397.5564 27.10955 396.69702 27.10955Q395.41577 27.10955 394.60327 26.218925Q393.8064 25.312675 393.8064 23.8283L393.8064 23.750175ZM394.90015 23.8908Q394.90015 24.937675 395.38452 25.5783Q395.88452 26.218925 396.69702 26.218925Q397.52515 26.218925 398.00952 25.5783Q398.4939 24.92205 398.4939 23.750175Q398.4939 22.718925 397.9939 22.0783Q397.50952 21.42205 396.6814 21.42205Q395.88452 21.42205 395.38452 22.062675Q394.90015 22.687675 394.90015 23.8908ZM402.38452 23.6408L402.38452 26.98455L401.25952 26.98455L401.25952 18.4533L404.41577 18.4533Q405.8064 18.4533 406.60327 19.17205Q407.40015 19.875175 407.40015 21.062675Q407.40015 22.29705 406.6189 22.968925Q405.85327 23.6408 404.40015 23.6408L402.38452 23.6408ZM402.38452 22.718925L404.41577 22.718925Q405.32202 22.718925 405.79077 22.29705Q406.27515 21.875175 406.27515 21.0783Q406.27515 20.312675 405.79077 19.85955Q405.32202 19.3908 404.47827 19.375175L402.38452 19.375175L402.38452 22.718925ZM410.27515 26.98455L409.19702 26.98455L409.19702 20.6408L410.27515 20.6408L410.27515 26.98455ZM409.10327 18.968925Q409.10327 18.7033 409.25952 18.5158Q409.4314 18.3283 409.7439 18.3283Q410.0564 18.3283 410.21265 18.5158Q410.38452 18.7033 410.38452 18.968925Q410.38452 19.218925 410.21265 19.406425Q410.0564 19.5783 409.7439 19.5783Q409.4314 19.5783 409.25952 19.406425Q409.10327 19.218925 409.10327 18.968925ZM414.22827 22.9533L415.63452 20.6408L416.90015 20.6408L414.82202 23.781425L416.96265 26.98455L415.71265 26.98455L414.2439 24.60955L412.77515 26.98455L411.50952 26.98455L413.65015 23.781425L411.58765 20.6408L412.83765 20.6408L414.22827 22.9533ZM420.72827 27.10955Q419.4314 27.10955 418.6189 26.2658Q417.82202 25.406425 417.82202 23.98455L417.82202 23.79705Q417.82202 22.843925 418.1814 22.10955Q418.54077 21.35955 419.1814 20.9533Q419.83765 20.531425 420.58765 20.531425Q421.82202 20.531425 422.50952 21.343925Q423.19702 22.156425 423.19702 23.67205L423.19702 24.125175L418.90015 24.125175Q418.9314 25.062675 419.44702 25.6408Q419.97827 26.218925 420.79077 26.218925Q421.35327 26.218925 421.7439 25.98455Q422.15015 25.750175 422.46265 25.35955L423.1189 25.875175Q422.32202 27.10955 420.72827 27.10955ZM420.58765 21.42205Q419.9314 21.42205 419.47827 21.906425Q419.04077 22.375175 418.94702 23.23455L422.1189 23.23455L422.1189 23.156425Q422.07202 22.3283 421.66577 21.875175Q421.27515 21.42205 420.58765 21.42205ZM425.27515 26.98455L424.19702 26.98455L424.19702 17.98455L425.27515 17.98455L425.27515 26.98455ZM427.25952 26.98455L427.25952 18.4533L430.0564 18.4533Q431.44702 18.4533 432.13452 19.031425Q432.83765 19.593925 432.83765 20.718925Q432.83765 21.3283 432.4939 21.79705Q432.16577 22.250175 431.57202 22.500175Q432.27515 22.687675 432.66577 23.23455Q433.07202 23.7658 433.07202 24.5158Q433.07202 25.67205 432.32202 26.3283Q431.58765 26.98455 430.22827 26.98455L427.25952 26.98455ZM428.38452 23.000175L428.38452 26.062675L430.2439 26.062675Q431.04077 26.062675 431.4939 25.656425Q431.94702 25.250175 431.94702 24.531425Q431.94702 23.000175 430.25952 23.000175L428.38452 23.000175ZM428.38452 22.093925L430.08765 22.093925Q430.82202 22.093925 431.25952 21.73455Q431.71265 21.35955 431.71265 20.718925Q431.71265 20.0158 431.3064 19.7033Q430.90015 19.375175 430.0564 19.375175L428.38452 19.375175L428.38452 22.093925ZM438.00952 26.35955Q437.38452 27.10955 436.15015 27.10955Q435.13452 27.10955 434.60327 26.5158Q434.07202 25.92205 434.07202 24.7658L434.07202 20.6408L435.15015 20.6408L435.15015 24.73455Q435.15015 26.187675 436.32202 26.187675Q437.57202 26.187675 437.97827 25.250175L437.97827 20.6408L439.07202 20.6408L439.07202 26.98455L438.04077 26.98455L438.00952 26.35955ZM444.79077 25.29705Q444.79077 24.85955 444.44702 24.625175Q444.1189 24.375175 443.29077 24.2033Q442.47827 24.031425 441.9939 23.781425Q441.50952 23.531425 441.27515 23.2033Q441.0564 22.85955 441.0564 22.3908Q441.0564 21.60955 441.71265 21.0783Q442.3689 20.531425 443.40015 20.531425Q444.47827 20.531425 445.13452 21.093925Q445.8064 21.6408 445.8064 22.500175L444.72827 22.500175Q444.72827 22.062675 444.33765 21.750175Q443.96265 21.42205 443.40015 21.42205Q442.8064 21.42205 442.46265 21.687675Q442.13452 21.937675 442.13452 22.343925Q442.13452 22.73455 442.44702 22.937675Q442.75952 23.1408 443.57202 23.3283Q444.38452 23.500175 444.88452 23.750175Q445.38452 24.000175 445.6189 24.35955Q445.8689 24.718925 445.8689 25.218925Q445.8689 26.0783 445.1814 26.593925Q444.50952 27.10955 443.4314 27.10955Q442.66577 27.10955 442.07202 26.843925Q441.4939 26.562675 441.16577 26.0783Q440.83765 25.593925 440.83765 25.031425L441.91577 25.031425Q441.94702 25.5783 442.35327 25.906425Q442.75952 26.218925 443.4314 26.218925Q444.04077 26.218925 444.41577 25.968925Q444.79077 25.718925 444.79077 25.29705Z" fill-rule="nonzero"/><path fill="#38761d" d="M462.27515 17.48455C462.27515 16.932264 462.72287 16.48455 463.27515 16.48455L473.27515 16.48455C473.82745 16.48455 474.27515 16.932264 474.27515 17.48455L474.27515 27.48455C474.27515 28.036835 473.82745 28.48455 473.27515 28.48455L463.27515 28.48455C462.72287 28.48455 462.27515 28.036835 462.27515 27.48455Z" fill-rule="nonzero"/><path fill="#757575" d="M489.82202 26.98455L488.69702 26.98455L484.40015 20.406425L484.40015 26.98455L483.25952 26.98455L483.25952 18.4533L484.40015 18.4533L488.69702 25.062675L488.69702 18.4533L489.82202 18.4533L489.82202 26.98455ZM494.72827 27.10955Q493.4314 27.10955 492.6189 26.2658Q491.82202 25.406425 491.82202 23.98455L491.82202 23.79705Q491.82202 22.843925 492.1814 22.10955Q492.54077 21.35955 493.1814 20.9533Q493.83765 20.531425 494.58765 20.531425Q495.82202 20.531425 496.50952 21.343925Q497.19702 22.156425 497.19702 23.67205L497.19702 24.125175L492.90015 24.125175Q492.9314 25.062675 493.44702 25.6408Q493.97827 26.218925 494.79077 26.218925Q495.35327 26.218925 495.7439 25.98455Q496.15015 25.750175 496.46265 25.35955L497.1189 25.875175Q496.32202 27.10955 494.72827 27.10955ZM494.58765 21.42205Q493.9314 21.42205 493.47827 21.906425Q493.04077 22.375175 492.94702 23.23455L496.1189 23.23455L496.1189 23.156425Q496.07202 22.3283 495.66577 21.875175Q495.27515 21.42205 494.58765 21.42205ZM497.8064 23.750175Q497.8064 22.8283 498.16577 22.0783Q498.54077 21.3283 499.19702 20.937675Q499.85327 20.531425 500.6814 20.531425Q501.97827 20.531425 502.77515 21.42205Q503.58765 22.312675 503.58765 23.812675L503.58765 23.8908Q503.58765 24.812675 503.22827 25.54705Q502.8689 26.281425 502.21265 26.7033Q501.5564 27.10955 500.69702 27.10955Q499.41577 27.10955 498.60327 26.218925Q497.8064 25.312675 497.8064 23.8283L497.8064 23.750175ZM498.90015 23.8908Q498.90015 24.937675 499.38452 25.5783Q499.88452 26.218925 500.69702 26.218925Q501.52515 26.218925 502.00952 25.5783Q502.4939 24.92205 502.4939 23.750175Q502.4939 22.718925 501.9939 22.0783Q501.50952 21.42205 500.6814 21.42205Q499.88452 21.42205 499.38452 22.062675Q498.90015 22.687675 498.90015 23.8908ZM506.38452 23.6408L506.38452 26.98455L505.25952 26.98455L505.25952 18.4533L508.41577 18.4533Q509.8064 18.4533 510.60327 19.17205Q511.40015 19.875175 511.40015 21.062675Q511.40015 22.29705 510.6189 22.968925Q509.85327 23.6408 508.40015 23.6408L506.38452 23.6408ZM506.38452 22.718925L508.41577 22.718925Q509.32202 22.718925 509.79077 22.29705Q510.27515 21.875175 510.27515 21.0783Q510.27515 20.312675 509.79077 19.85955Q509.32202 19.3908 508.47827 19.375175L506.38452 19.375175L506.38452 22.718925ZM514.27515 26.98455L513.197 26.98455L513.197 20.6408L514.27515 20.6408L514.27515 26.98455ZM513.1033 18.968925Q513.1033 18.7033 513.2595 18.5158Q513.4314 18.3283 513.7439 18.3283Q514.0564 18.3283 514.21265 18.5158Q514.3845 18.7033 514.3845 18.968925Q514.3845 19.218925 514.21265 19.406425Q514.0564 19.5783 513.7439 19.5783Q513.4314 19.5783 513.2595 19.406425Q513.1033 19.218925 513.1033 18.968925ZM518.2283 22.9533L519.6345 20.6408L520.90015 20.6408L518.822 23.781425L520.96265 26.98455L519.71265 26.98455L518.2439 24.60955L516.77515 26.98455L515.5095 26.98455L517.65015 23.781425L515.58765 20.6408L516.83765 20.6408L518.2283 22.9533ZM524.7283 27.10955Q523.4314 27.10955 522.6189 26.2658Q521.822 25.406425 521.822 23.98455L521.822 23.79705Q521.822 22.843925 522.1814 22.10955Q522.5408 21.35955 523.1814 20.9533Q523.83765 20.531425 524.58765 20.531425Q525.822 20.531425 526.5095 21.343925Q527.197 22.156425 527.197 23.67205L527.197 24.125175L522.90015 24.125175Q522.9314 25.062675 523.447 25.6408Q523.9783 26.218925 524.7908 26.218925Q525.3533 26.218925 525.7439 25.98455Q526.15015 25.750175 526.46265 25.35955L527.1189 25.875175Q526.322 27.10955 524.7283 27.10955ZM524.58765 21.42205Q523.9314 21.42205 523.4783 21.906425Q523.0408 22.375175 522.947 23.23455L526.1189 23.23455L526.1189 23.156425Q526.072 22.3283 525.6658 21.875175Q525.27515 21.42205 524.58765 21.42205ZM529.27515 26.98455L528.197 26.98455L528.197 17.98455L529.27515 17.98455L529.27515 26.98455Z" fill-rule="nonzero"/></svg>