<svg version="1.1" viewBox="0.0 0.0 810.0 235.0" fill="none" stroke="none" stroke-linecap="square" stroke-miterlimit="10" width="810" height="235" xmlns:xlink="http://www.w3.org/1999/xlink" xmlns="http://www.w3.org/2000/svg"><path fill="#ffffff" d="M0 0L810.0 0L810.0 235.0L0 235.0L0 0Z" fill-rule="nonzero"/><path stroke="#cccccc" stroke-width="1.0" stroke-linecap="butt" d="M42.5 27.5L42.5 192.5" fill-rule="nonzero"/><path stroke="#cccccc" stroke-width="1.0" stroke-linecap="butt" d="M228.5 27.5L228.5 192.5" fill-rule="nonzero"/><path stroke="#cccccc" stroke-width="1.0" stroke-linecap="butt" d="M413.5 27.5L413.5 192.5" fill-rule="nonzero"/><path stroke="#cccccc" stroke-width="1.0" stroke-linecap="butt" d="M599.5 27.5L599.5 192.5" fill-rule="nonzero"/><path stroke="#cccccc" stroke-width="1.0" stroke-linecap="butt" d="M784.5 27.5L784.5 192.5" fill-rule="nonzero"/><clipPath id="id_0"><path d="M42.525 27.184412L784.9575 27.184412L784.9575 192.84569L42.525 192.84569L42.525 27.184412Z" clip-rule="nonzero"/></clipPath><path stroke="#000000" stroke-width="0.0" stroke-linecap="butt" stroke-opacity="0.0" clip-path="url(#id_0)" d="M43.0 96.0L43.0 70.0L412.0 70.0C413.10458 70.0 414.0 70.89543 414.0 72.0L414.0 94.0C414.0 95.10457 413.10458 96.0 412.0 96.0Z" fill-rule="nonzero"/><path fill="#4285f4" clip-path="url(#id_0)" d="M43.0 96.0L43.0 70.0L412.0 70.0C413.10458 70.0 414.0 70.89543 414.0 72.0L414.0 94.0C414.0 95.10457 413.10458 96.0 412.0 96.0Z" fill-rule="nonzero"/><path stroke="#000000" stroke-width="0.0" stroke-linecap="butt" stroke-opacity="0.0" clip-path="url(#id_0)" d="M43.0 123.0L43.0 97.0L434.0 97.0C435.10458 97.0 436.0 97.89543 436.0 99.0L436.0 121.0C436.0 122.10457 435.10458 123.0 434.0 123.0Z" fill-rule="nonzero"/><path fill="#db4437" clip-path="url(#id_0)" d="M43.0 123.0L43.0 97.0L434.0 97.0C435.10458 97.0 436.0 97.89543 436.0 99.0L436.0 121.0C436.0 122.10457 435.10458 123.0 434.0 123.0Z" fill-rule="nonzero"/><path stroke="#000000" stroke-width="0.0" stroke-linecap="butt" stroke-opacity="0.0" clip-path="url(#id_0)" d="M43.0 150.0L43.0 124.0L323.0 124.0C324.10458 124.0 325.0 124.89543 325.0 126.0L325.0 148.0C325.0 149.10457 324.10458 150.0 323.0 150.0Z" fill-rule="nonzero"/><path fill="#38761d" clip-path="url(#id_0)" d="M43.0 150.0L43.0 124.0L323.0 124.0C324.10458 124.0 325.0 124.89543 325.0 126.0L325.0 148.0C325.0 149.10457 324.10458 150.0 323.0 150.0Z" fill-rule="nonzero"/><path stroke="#a2c3fa" stroke-width="1.0" stroke-linecap="butt" clip-path="url(#id_0)" d="M413.74124 83.0L413.74124 83.0" fill-rule="nonzero"/><path stroke="#a2c3fa" stroke-width="1.0" stroke-linecap="butt" clip-path="url(#id_0)" d="M413.74124 77.0L413.74124 89.0" fill-rule="nonzero"/><path stroke="#a2c3fa" stroke-width="1.0" stroke-linecap="butt" clip-path="url(#id_0)" d="M413.74124 77.0L413.74124 89.0" fill-rule="nonzero"/><path stroke="#ec9a93" stroke-width="1.0" stroke-linecap="butt" clip-path="url(#id_0)" d="M212.44923 110.0L659.5792 110.0" fill-rule="nonzero"/><path stroke="#ec9a93" stroke-width="1.0" stroke-linecap="butt" clip-path="url(#id_0)" d="M212.44923 104.0L212.44923 116.0" fill-rule="nonzero"/><path stroke="#ec9a93" stroke-width="1.0" stroke-linecap="butt" clip-path="url(#id_0)" d="M659.5792 104.0L659.5792 116.0" fill-rule="nonzero"/><path stroke="#87ad77" stroke-width="1.0" stroke-linecap="butt" clip-path="url(#id_0)" d="M294.81247 137.0L354.48624 137.0" fill-rule="nonzero"/><path stroke="#87ad77" stroke-width="1.0" stroke-linecap="butt" clip-path="url(#id_0)" d="M294.81247 131.0L294.81247 143.0" fill-rule="nonzero"/><path stroke="#87ad77" stroke-width="1.0" stroke-linecap="butt" clip-path="url(#id_0)" d="M354.48624 131.0L354.48624 143.0" fill-rule="nonzero"/><path stroke="#4285f4" stroke-width="3.0" stroke-linejoin="round" stroke-linecap="round" d="M53.215626 81.1875Q53.215626 81.828125 52.871876 82.328125Q52.528126 82.828125 51.965626 83.109375Q52.621876 83.390625 53.0125 83.953125Q53.403126 84.5 53.403126 85.203125Q53.403126 86.296875 52.653126 86.96875Q51.91875 87.625 50.7 87.625Q49.465626 87.625 48.715626 86.96875Q47.98125 86.296875 47.98125 85.203125Q47.98125 84.5 48.35625 83.953125Q48.73125 83.390625 49.403126 83.109375Q48.840626 82.828125 48.5125 82.328125Q48.184376 81.828125 48.184376 81.1875Q48.184376 80.109375 48.871876 79.484375Q49.559376 78.84375 50.7 78.84375Q51.825 78.84375 52.5125 79.484375Q53.215626 80.109375 53.215626 81.1875ZM52.325 85.171875Q52.325 84.453125 51.871876 84.015625Q51.41875 83.5625 50.684376 83.5625Q49.95 83.5625 49.496876 84.015625Q49.059376 84.453125 49.059376 85.1875Q49.059376 85.90625 49.496876 86.328125Q49.934376 86.734375 50.7 86.734375Q51.45 86.734375 51.8875 86.3125Q52.325 85.890625 52.325 85.171875ZM50.7 79.734375Q50.059376 79.734375 49.653126 80.140625Q49.2625 80.53125 49.2625 81.21875Q49.2625 81.859375 49.653126 82.265625Q50.04375 82.671875 50.684376 82.671875Q51.340626 82.671875 51.73125 82.265625Q52.121876 81.859375 52.121876 81.21875Q52.121876 80.5625 51.715626 80.15625Q51.309376 79.734375 50.7 79.734375ZM60.3875 83.859375Q60.3875 85.765625 59.73125 86.703125Q59.090626 87.625 57.7 87.625Q56.340626 87.625 55.684376 86.71875Q55.028126 85.8125 54.996876 84.0L54.996876 82.5625Q54.996876 80.671875 55.6375 79.765625Q56.29375 78.84375 57.684376 78.84375Q59.059376 78.84375 59.715626 79.734375Q60.371876 80.609375 60.3875 82.453125L60.3875 83.859375ZM59.29375 82.375Q59.29375 81.0 58.903126 80.375Q58.528126 79.734375 57.684376 79.734375Q56.85625 79.734375 56.465626 80.375Q56.090626 81.0 56.090626 82.296875L56.090626 84.03125Q56.090626 85.40625 56.48125 86.078125Q56.8875 86.734375 57.7 86.734375Q58.496876 86.734375 58.8875 86.109375Q59.278126 85.484375 59.29375 84.15625L59.29375 82.375ZM67.3875 83.859375Q67.3875 85.765625 66.73125 86.703125Q66.09062 87.625 64.7 87.625Q63.340626 87.625 62.684376 86.71875Q62.028126 85.8125 61.996876 84.0L61.996876 82.5625Q61.996876 80.671875 62.6375 79.765625Q63.29375 78.84375 64.68437 78.84375Q66.05937 78.84375 66.71562 79.734375Q67.37187 80.609375 67.3875 82.453125L67.3875 83.859375ZM66.29375 82.375Q66.29375 81.0 65.90312 80.375Q65.52812 79.734375 64.68437 79.734375Q63.85625 79.734375 63.465626 80.375Q63.090626 81.0 63.090626 82.296875L63.090626 84.03125Q63.090626 85.40625 63.48125 86.078125Q63.8875 86.734375 64.7 86.734375Q65.49687 86.734375 65.8875 86.109375Q66.27812 85.484375 66.29375 84.15625L66.29375 82.375Z" fill-rule="nonzero"/><path fill="#ffffff" d="M53.215626 81.1875Q53.215626 81.828125 52.871876 82.328125Q52.528126 82.828125 51.965626 83.109375Q52.621876 83.390625 53.0125 83.953125Q53.403126 84.5 53.403126 85.203125Q53.403126 86.296875 52.653126 86.96875Q51.91875 87.625 50.7 87.625Q49.465626 87.625 48.715626 86.96875Q47.98125 86.296875 47.98125 85.203125Q47.98125 84.5 48.35625 83.953125Q48.73125 83.390625 49.403126 83.109375Q48.840626 82.828125 48.5125 82.328125Q48.184376 81.828125 48.184376 81.1875Q48.184376 80.109375 48.871876 79.484375Q49.559376 78.84375 50.7 78.84375Q51.825 78.84375 52.5125 79.484375Q53.215626 80.109375 53.215626 81.1875ZM52.325 85.171875Q52.325 84.453125 51.871876 84.015625Q51.41875 83.5625 50.684376 83.5625Q49.95 83.5625 49.496876 84.015625Q49.059376 84.453125 49.059376 85.1875Q49.059376 85.90625 49.496876 86.328125Q49.934376 86.734375 50.7 86.734375Q51.45 86.734375 51.8875 86.3125Q52.325 85.890625 52.325 85.171875ZM50.7 79.734375Q50.059376 79.734375 49.653126 80.140625Q49.2625 80.53125 49.2625 81.21875Q49.2625 81.859375 49.653126 82.265625Q50.04375 82.671875 50.684376 82.671875Q51.340626 82.671875 51.73125 82.265625Q52.121876 81.859375 52.121876 81.21875Q52.121876 80.5625 51.715626 80.15625Q51.309376 79.734375 50.7 79.734375ZM60.3875 83.859375Q60.3875 85.765625 59.73125 86.703125Q59.090626 87.625 57.7 87.625Q56.340626 87.625 55.684376 86.71875Q55.028126 85.8125 54.996876 84.0L54.996876 82.5625Q54.996876 80.671875 55.6375 79.765625Q56.29375 78.84375 57.684376 78.84375Q59.059376 78.84375 59.715626 79.734375Q60.371876 80.609375 60.3875 82.453125L60.3875 83.859375ZM59.29375 82.375Q59.29375 81.0 58.903126 80.375Q58.528126 79.734375 57.684376 79.734375Q56.85625 79.734375 56.465626 80.375Q56.090626 81.0 56.090626 82.296875L56.090626 84.03125Q56.090626 85.40625 56.48125 86.078125Q56.8875 86.734375 57.7 86.734375Q58.496876 86.734375 58.8875 86.109375Q59.278126 85.484375 59.29375 84.15625L59.29375 82.375ZM67.3875 83.859375Q67.3875 85.765625 66.73125 86.703125Q66.09062 87.625 64.7 87.625Q63.340626 87.625 62.684376 86.71875Q62.028126 85.8125 61.996876 84.0L61.996876 82.5625Q61.996876 80.671875 62.6375 79.765625Q63.29375 78.84375 64.68437 78.84375Q66.05937 78.84375 66.71562 79.734375Q67.37187 80.609375 67.3875 82.453125L67.3875 83.859375ZM66.29375 82.375Q66.29375 81.0 65.90312 80.375Q65.52812 79.734375 64.68437 79.734375Q63.85625 79.734375 63.465626 80.375Q63.090626 81.0 63.090626 82.296875L63.090626 84.03125Q63.090626 85.40625 63.48125 86.078125Q63.8875 86.734375 64.7 86.734375Q65.49687 86.734375 65.8875 86.109375Q66.27812 85.484375 66.29375 84.15625L66.29375 82.375Z" fill-rule="nonzero"/><path stroke="#db4437" stroke-width="3.0" stroke-linejoin="round" stroke-linecap="round" d="M53.215626 108.1875Q53.215626 108.828125 52.871876 109.328125Q52.528126 109.828125 51.965626 110.109375Q52.621876 110.390625 53.0125 110.953125Q53.403126 111.5 53.403126 112.203125Q53.403126 113.296875 52.653126 113.96875Q51.91875 114.625 50.7 114.625Q49.465626 114.625 48.715626 113.96875Q47.98125 113.296875 47.98125 112.203125Q47.98125 111.5 48.35625 110.953125Q48.73125 110.390625 49.403126 110.109375Q48.840626 109.828125 48.5125 109.328125Q48.184376 108.828125 48.184376 108.1875Q48.184376 107.109375 48.871876 106.484375Q49.559376 105.84375 50.7 105.84375Q51.825 105.84375 52.5125 106.484375Q53.215626 107.109375 53.215626 108.1875ZM52.325 112.171875Q52.325 111.453125 51.871876 111.015625Q51.41875 110.5625 50.684376 110.5625Q49.95 110.5625 49.496876 111.015625Q49.059376 111.453125 49.059376 112.1875Q49.059376 112.90625 49.496876 113.328125Q49.934376 113.734375 50.7 113.734375Q51.45 113.734375 51.8875 113.3125Q52.325 112.890625 52.325 112.171875ZM50.7 106.734375Q50.059376 106.734375 49.653126 107.140625Q49.2625 107.53125 49.2625 108.21875Q49.2625 108.859375 49.653126 109.265625Q50.04375 109.671875 50.684376 109.671875Q51.340626 109.671875 51.73125 109.265625Q52.121876 108.859375 52.121876 108.21875Q52.121876 107.5625 51.715626 107.15625Q51.309376 106.734375 50.7 106.734375ZM60.3875 110.859375Q60.3875 112.765625 59.73125 113.703125Q59.090626 114.625 57.7 114.625Q56.340626 114.625 55.684376 113.71875Q55.028126 112.8125 54.996876 111.0L54.996876 109.5625Q54.996876 107.671875 55.6375 106.765625Q56.29375 105.84375 57.684376 105.84375Q59.059376 105.84375 59.715626 106.734375Q60.371876 107.609375 60.3875 109.453125L60.3875 110.859375ZM59.29375 109.375Q59.29375 108.0 58.903126 107.375Q58.528126 106.734375 57.684376 106.734375Q56.85625 106.734375 56.465626 107.375Q56.090626 108.0 56.090626 109.296875L56.090626 111.03125Q56.090626 112.40625 56.48125 113.078125Q56.8875 113.734375 57.7 113.734375Q58.496876 113.734375 58.8875 113.109375Q59.278126 112.484375 59.29375 111.15625L59.29375 109.375ZM63.60625 109.703125L64.41875 109.703125Q65.2 109.6875 65.6375 109.296875Q66.075 108.90625 66.075 108.234375Q66.075 106.734375 64.575 106.734375Q63.871876 106.734375 63.45 107.140625Q63.04375 107.546875 63.04375 108.203125L61.95 108.203125Q61.95 107.1875 62.684376 106.515625Q63.434376 105.84375 64.575 105.84375Q65.77812 105.84375 66.46562 106.484375Q67.15312 107.125 67.15312 108.265625Q67.15312 108.828125 66.79375 109.34375Q66.43437 109.859375 65.80937 110.125Q66.5125 110.34375 66.8875 110.859375Q67.27812 111.375 67.27812 112.125Q67.27812 113.265625 66.52812 113.953125Q65.77812 114.625 64.575 114.625Q63.3875 114.625 62.621876 113.96875Q61.871876 113.3125 61.871876 112.25L62.965626 112.25Q62.965626 112.921875 63.403126 113.328125Q63.840626 113.734375 64.59062 113.734375Q65.37187 113.734375 65.77812 113.328125Q66.2 112.90625 66.2 112.140625Q66.2 111.40625 65.74687 111.015625Q65.29375 110.609375 64.41875 110.59375L63.60625 110.59375L63.60625 109.703125Z" fill-rule="nonzero"/><path fill="#ffffff" d="M53.215626 108.1875Q53.215626 108.828125 52.871876 109.328125Q52.528126 109.828125 51.965626 110.109375Q52.621876 110.390625 53.0125 110.953125Q53.403126 111.5 53.403126 112.203125Q53.403126 113.296875 52.653126 113.96875Q51.91875 114.625 50.7 114.625Q49.465626 114.625 48.715626 113.96875Q47.98125 113.296875 47.98125 112.203125Q47.98125 111.5 48.35625 110.953125Q48.73125 110.390625 49.403126 110.109375Q48.840626 109.828125 48.5125 109.328125Q48.184376 108.828125 48.184376 108.1875Q48.184376 107.109375 48.871876 106.484375Q49.559376 105.84375 50.7 105.84375Q51.825 105.84375 52.5125 106.484375Q53.215626 107.109375 53.215626 108.1875ZM52.325 112.171875Q52.325 111.453125 51.871876 111.015625Q51.41875 110.5625 50.684376 110.5625Q49.95 110.5625 49.496876 111.015625Q49.059376 111.453125 49.059376 112.1875Q49.059376 112.90625 49.496876 113.328125Q49.934376 113.734375 50.7 113.734375Q51.45 113.734375 51.8875 113.3125Q52.325 112.890625 52.325 112.171875ZM50.7 106.734375Q50.059376 106.734375 49.653126 107.140625Q49.2625 107.53125 49.2625 108.21875Q49.2625 108.859375 49.653126 109.265625Q50.04375 109.671875 50.684376 109.671875Q51.340626 109.671875 51.73125 109.265625Q52.121876 108.859375 52.121876 108.21875Q52.121876 107.5625 51.715626 107.15625Q51.309376 106.734375 50.7 106.734375ZM60.3875 110.859375Q60.3875 112.765625 59.73125 113.703125Q59.090626 114.625 57.7 114.625Q56.340626 114.625 55.684376 113.71875Q55.028126 112.8125 54.996876 111.0L54.996876 109.5625Q54.996876 107.671875 55.6375 106.765625Q56.29375 105.84375 57.684376 105.84375Q59.059376 105.84375 59.715626 106.734375Q60.371876 107.609375 60.3875 109.453125L60.3875 110.859375ZM59.29375 109.375Q59.29375 108.0 58.903126 107.375Q58.528126 106.734375 57.684376 106.734375Q56.85625 106.734375 56.465626 107.375Q56.090626 108.0 56.090626 109.296875L56.090626 111.03125Q56.090626 112.40625 56.48125 113.078125Q56.8875 113.734375 57.7 113.734375Q58.496876 113.734375 58.8875 113.109375Q59.278126 112.484375 59.29375 111.15625L59.29375 109.375ZM63.60625 109.703125L64.41875 109.703125Q65.2 109.6875 65.6375 109.296875Q66.075 108.90625 66.075 108.234375Q66.075 106.734375 64.575 106.734375Q63.871876 106.734375 63.45 107.140625Q63.04375 107.546875 63.04375 108.203125L61.95 108.203125Q61.95 107.1875 62.684376 106.515625Q63.434376 105.84375 64.575 105.84375Q65.77812 105.84375 66.46562 106.484375Q67.15312 107.125 67.15312 108.265625Q67.15312 108.828125 66.79375 109.34375Q66.43437 109.859375 65.80937 110.125Q66.5125 110.34375 66.8875 110.859375Q67.27812 111.375 67.27812 112.125Q67.27812 113.265625 66.52812 113.953125Q65.77812 114.625 64.575 114.625Q63.3875 114.625 62.621876 113.96875Q61.871876 113.3125 61.871876 112.25L62.965626 112.25Q62.965626 112.921875 63.403126 113.328125Q63.840626 113.734375 64.59062 113.734375Q65.37187 113.734375 65.77812 113.328125Q66.2 112.90625 66.2 112.140625Q66.2 111.40625 65.74687 111.015625Q65.29375 110.609375 64.41875 110.59375L63.60625 110.59375L63.60625 109.703125Z" fill-rule="nonzero"/><path stroke="#38761d" stroke-width="3.0" stroke-linejoin="round" stroke-linecap="round" d="M53.54375 133.57812L50.0125 141.5L48.871876 141.5L52.3875 133.85938L47.778126 133.85938L47.778126 132.96875L53.54375 132.96875L53.54375 133.57812ZM60.215626 135.1875Q60.215626 135.82812 59.871876 136.32812Q59.528126 136.82812 58.965626 137.10938Q59.621876 137.39062 60.0125 137.95312Q60.403126 138.5 60.403126 139.20312Q60.403126 140.29688 59.653126 140.96875Q58.91875 141.625 57.7 141.625Q56.465626 141.625 55.715626 140.96875Q54.98125 140.29688 54.98125 139.20312Q54.98125 138.5 55.35625 137.95312Q55.73125 137.39062 56.403126 137.10938Q55.840626 136.82812 55.5125 136.32812Q55.184376 135.82812 55.184376 135.1875Q55.184376 134.10938 55.871876 133.48438Q56.559376 132.84375 57.7 132.84375Q58.825 132.84375 59.5125 133.48438Q60.215626 134.10938 60.215626 135.1875ZM59.325 139.17188Q59.325 138.45312 58.871876 138.01562Q58.41875 137.5625 57.684376 137.5625Q56.95 137.5625 56.496876 138.01562Q56.059376 138.45312 56.059376 139.1875Q56.059376 139.90625 56.496876 140.32812Q56.934376 140.73438 57.7 140.73438Q58.45 140.73438 58.8875 140.3125Q59.325 139.89062 59.325 139.17188ZM57.7 133.73438Q57.059376 133.73438 56.653126 134.14062Q56.2625 134.53125 56.2625 135.21875Q56.2625 135.85938 56.653126 136.26562Q57.04375 136.67188 57.684376 136.67188Q58.340626 136.67188 58.73125 136.26562Q59.121876 135.85938 59.121876 135.21875Q59.121876 134.5625 58.715626 134.15625Q58.309376 133.73438 57.7 133.73438ZM67.21562 135.1875Q67.21562 135.82812 66.87187 136.32812Q66.52812 136.82812 65.96562 137.10938Q66.62187 137.39062 67.0125 137.95312Q67.40312 138.5 67.40312 139.20312Q67.40312 140.29688 66.65312 140.96875Q65.91875 141.625 64.7 141.625Q63.465626 141.625 62.715626 140.96875Q61.98125 140.29688 61.98125 139.20312Q61.98125 138.5 62.35625 137.95312Q62.73125 137.39062 63.403126 137.10938Q62.840626 136.82812 62.5125 136.32812Q62.184376 135.82812 62.184376 135.1875Q62.184376 134.10938 62.871876 133.48438Q63.559376 132.84375 64.7 132.84375Q65.825 132.84375 66.5125 133.48438Q67.21562 134.10938 67.21562 135.1875ZM66.325 139.17188Q66.325 138.45312 65.87187 138.01562Q65.41875 137.5625 64.68437 137.5625Q63.95 137.5625 63.496876 138.01562Q63.059376 138.45312 63.059376 139.1875Q63.059376 139.90625 63.496876 140.32812Q63.934376 140.73438 64.7 140.73438Q65.45 140.73438 65.8875 140.3125Q66.325 139.89062 66.325 139.17188ZM64.7 133.73438Q64.05937 133.73438 63.653126 134.14062Q63.2625 134.53125 63.2625 135.21875Q63.2625 135.85938 63.653126 136.26562Q64.04375 136.67188 64.68437 136.67188Q65.34062 136.67188 65.73125 136.26562Q66.12187 135.85938 66.12187 135.21875Q66.12187 134.5625 65.71562 134.15625Q65.30937 133.73438 64.7 133.73438Z" fill-rule="nonzero"/><path fill="#ffffff" d="M53.54375 133.57812L50.0125 141.5L48.871876 141.5L52.3875 133.85938L47.778126 133.85938L47.778126 132.96875L53.54375 132.96875L53.54375 133.57812ZM60.215626 135.1875Q60.215626 135.82812 59.871876 136.32812Q59.528126 136.82812 58.965626 137.10938Q59.621876 137.39062 60.0125 137.95312Q60.403126 138.5 60.403126 139.20312Q60.403126 140.29688 59.653126 140.96875Q58.91875 141.625 57.7 141.625Q56.465626 141.625 55.715626 140.96875Q54.98125 140.29688 54.98125 139.20312Q54.98125 138.5 55.35625 137.95312Q55.73125 137.39062 56.403126 137.10938Q55.840626 136.82812 55.5125 136.32812Q55.184376 135.82812 55.184376 135.1875Q55.184376 134.10938 55.871876 133.48438Q56.559376 132.84375 57.7 132.84375Q58.825 132.84375 59.5125 133.48438Q60.215626 134.10938 60.215626 135.1875ZM59.325 139.17188Q59.325 138.45312 58.871876 138.01562Q58.41875 137.5625 57.684376 137.5625Q56.95 137.5625 56.496876 138.01562Q56.059376 138.45312 56.059376 139.1875Q56.059376 139.90625 56.496876 140.32812Q56.934376 140.73438 57.7 140.73438Q58.45 140.73438 58.8875 140.3125Q59.325 139.89062 59.325 139.17188ZM57.7 133.73438Q57.059376 133.73438 56.653126 134.14062Q56.2625 134.53125 56.2625 135.21875Q56.2625 135.85938 56.653126 136.26562Q57.04375 136.67188 57.684376 136.67188Q58.340626 136.67188 58.73125 136.26562Q59.121876 135.85938 59.121876 135.21875Q59.121876 134.5625 58.715626 134.15625Q58.309376 133.73438 57.7 133.73438ZM67.21562 135.1875Q67.21562 135.82812 66.87187 136.32812Q66.52812 136.82812 65.96562 137.10938Q66.62187 137.39062 67.0125 137.95312Q67.40312 138.5 67.40312 139.20312Q67.40312 140.29688 66.65312 140.96875Q65.91875 141.625 64.7 141.625Q63.465626 141.625 62.715626 140.96875Q61.98125 140.29688 61.98125 139.20312Q61.98125 138.5 62.35625 137.95312Q62.73125 137.39062 63.403126 137.10938Q62.840626 136.82812 62.5125 136.32812Q62.184376 135.82812 62.184376 135.1875Q62.184376 134.10938 62.871876 133.48438Q63.559376 132.84375 64.7 132.84375Q65.825 132.84375 66.5125 133.48438Q67.21562 134.10938 67.21562 135.1875ZM66.325 139.17188Q66.325 138.45312 65.87187 138.01562Q65.41875 137.5625 64.68437 137.5625Q63.95 137.5625 63.496876 138.01562Q63.059376 138.45312 63.059376 139.1875Q63.059376 139.90625 63.496876 140.32812Q63.934376 140.73438 64.7 140.73438Q65.45 140.73438 65.8875 140.3125Q66.325 139.89062 66.325 139.17188ZM64.7 133.73438Q64.05937 133.73438 63.653126 134.14062Q63.2625 134.53125 63.2625 135.21875Q63.2625 135.85938 63.653126 136.26562Q64.04375 136.67188 64.68437 136.67188Q65.34062 136.67188 65.73125 136.26562Q66.12187 135.85938 66.12187 135.21875Q66.12187 134.5625 65.71562 134.15625Q65.30937 133.73438 64.7 133.73438Z" fill-rule="nonzero"/><path fill="#424242" d="M336.13187 222.24039L333.38187 222.24039L333.38187 229.84976L332.2725 229.84976L332.2725 222.24039L329.5225 222.24039L329.5225 221.31851L336.13187 221.31851L336.13187 222.24039ZM338.24124 229.84976L337.16312 229.84976L337.16312 223.50601L338.24124 223.50601L338.24124 229.84976ZM337.06937 221.83414Q337.06937 221.56851 337.22562 221.38101Q337.3975 221.19351 337.71 221.19351Q338.0225 221.19351 338.17874 221.38101Q338.35062 221.56851 338.35062 221.83414Q338.35062 222.08414 338.17874 222.27164Q338.0225 222.44351 337.71 222.44351Q337.3975 222.44351 337.22562 222.27164Q337.06937 222.08414 337.06937 221.83414ZM341.085 223.50601L341.11624 224.20914Q341.80374 223.39664 342.99124 223.39664Q344.31937 223.39664 344.80374 224.41226Q345.11624 223.95914 345.61624 223.67789Q346.13187 223.39664 346.81937 223.39664Q348.91312 223.39664 348.94437 225.59976L348.94437 229.84976L347.86624 229.84976L347.86624 225.66226Q347.86624 224.99039 347.55374 224.66226Q347.24124 224.31851 346.50687 224.31851Q345.8975 224.31851 345.49124 224.67789Q345.10062 225.03726 345.03812 225.64664L345.03812 229.84976L343.96 229.84976L343.96 225.69351Q343.96 224.31851 342.60062 224.31851Q341.53812 224.31851 341.1475 225.22476L341.1475 229.84976L340.05374 229.84976L340.05374 223.50601L341.085 223.50601ZM352.24124 229.84976L351.16312 229.84976L351.16312 223.50601L352.24124 223.50601L352.24124 229.84976ZM351.06937 221.83414Q351.06937 221.56851 351.22562 221.38101Q351.3975 221.19351 351.71 221.19351Q352.0225 221.19351 352.17874 221.38101Q352.35062 221.56851 352.35062 221.83414Q352.35062 222.08414 352.17874 222.27164Q352.0225 222.44351 351.71 222.44351Q351.3975 222.44351 351.22562 222.27164Q351.06937 222.08414 351.06937 221.83414ZM355.085 223.50601L355.11624 224.30289Q355.85062 223.39664 357.0225 223.39664Q359.03812 223.39664 359.05374 225.66226L359.05374 229.84976L357.96 229.84976L357.96 225.64664Q357.96 224.97476 357.6475 224.64664Q357.35062 224.31851 356.69437 224.31851Q356.16312 224.31851 355.75687 224.59976Q355.36624 224.88101 355.1475 225.33414L355.1475 229.84976L354.06937 229.84976L354.06937 223.50601L355.085 223.50601ZM360.80374 226.63101Q360.80374 225.14664 361.49124 224.27164Q362.17874 223.39664 363.30374 223.39664Q364.46 223.39664 365.11624 224.20914L365.16312 223.50601L366.16312 223.50601L366.16312 229.69351Q366.16312 230.92789 365.42874 231.63101Q364.69437 232.34976 363.47562 232.34976Q362.78812 232.34976 362.13187 232.05289Q361.47562 231.75601 361.13187 231.25601L361.69437 230.59976Q362.38187 231.45914 363.3975 231.45914Q364.17874 231.45914 364.61624 231.00601Q365.06937 230.56851 365.06937 229.75601L365.06937 229.20914Q364.41312 229.97476 363.28812 229.97476Q362.17874 229.97476 361.49124 229.08414Q360.80374 228.17789 360.80374 226.63101ZM361.8975 226.75601Q361.8975 227.81851 362.335 228.44351Q362.7725 229.05289 363.56937 229.05289Q364.585 229.05289 365.06937 228.11539L365.06937 225.22476Q364.56937 224.31851 363.56937 224.31851Q362.78812 224.31851 362.335 224.92789Q361.8975 225.53726 361.8975 226.75601ZM372.67874 221.31851L375.47562 228.27164L378.25687 221.31851L379.72562 221.31851L379.72562 229.84976L378.60062 229.84976L378.60062 226.52164L378.71 222.94351L375.8975 229.84976L375.03812 229.84976L372.24124 222.95914L372.35062 226.52164L372.35062 229.84976L371.22562 229.84976L371.22562 221.31851L372.67874 221.31851ZM383.69437 229.97476Q382.3975 229.97476 381.585 229.13101Q380.78812 228.27164 380.78812 226.84976L380.78812 226.66226Q380.78812 225.70914 381.1475 224.97476Q381.50687 224.22476 382.1475 223.81851Q382.80374 223.39664 383.55374 223.39664Q384.78812 223.39664 385.47562 224.20914Q386.16312 225.02164 386.16312 226.53726L386.16312 226.99039L381.86624 226.99039Q381.8975 227.92789 382.41312 228.50601Q382.94437 229.08414 383.75687 229.08414Q384.31937 229.08414 384.71 228.84976Q385.11624 228.61539 385.42874 228.22476L386.085 228.74039Q385.28812 229.97476 383.69437 229.97476ZM383.55374 224.28726Q382.8975 224.28726 382.44437 224.77164Q382.00687 225.24039 381.91312 226.09976L385.085 226.09976L385.085 226.02164Q385.03812 225.19351 384.63187 224.74039Q384.24124 224.28726 383.55374 224.28726ZM386.80374 226.63101Q386.80374 225.16226 387.49124 224.28726Q388.17874 223.39664 389.30374 223.39664Q390.41312 223.39664 391.06937 224.14664L391.06937 220.84976L392.1475 220.84976L392.1475 229.84976L391.1475 229.84976L391.10062 229.16226Q390.44437 229.97476 389.28812 229.97476Q388.19437 229.97476 387.49124 229.06851Q386.80374 228.16226 386.80374 226.70914L386.80374 226.63101ZM387.88187 226.75601Q387.88187 227.83414 388.31937 228.44351Q388.7725 229.05289 389.55374 229.05289Q390.585 229.05289 391.06937 228.11539L391.06937 225.20914Q390.585 224.31851 389.56937 224.31851Q388.7725 224.31851 388.31937 224.92789Q387.88187 225.53726 387.88187 226.75601ZM395.24124 229.84976L394.16312 229.84976L394.16312 223.50601L395.24124 223.50601L395.24124 229.84976ZM394.06937 221.83414Q394.06937 221.56851 394.22562 221.38101Q394.3975 221.19351 394.71 221.19351Q395.0225 221.19351 395.17874 221.38101Q395.35062 221.56851 395.35062 221.83414Q395.35062 222.08414 395.17874 222.27164Q395.0225 222.44351 394.71 222.44351Q394.3975 222.44351 394.22562 222.27164Q394.06937 222.08414 394.06937 221.83414ZM400.97562 229.84976Q400.88187 229.66226 400.81937 229.17789Q400.06937 229.97476 399.0225 229.97476Q398.085 229.97476 397.47562 229.44351Q396.88187 228.91226 396.88187 228.08414Q396.88187 227.09976 397.63187 226.55289Q398.38187 226.00601 399.75687 226.00601L400.80374 226.00601L400.80374 225.50601Q400.80374 224.94351 400.46 224.61539Q400.13187 224.27164 399.46 224.27164Q398.88187 224.27164 398.49124 224.56851Q398.10062 224.84976 398.10062 225.27164L397.00687 225.27164Q397.00687 224.78726 397.335 224.34976Q397.67874 223.91226 398.25687 223.66226Q398.835 223.39664 399.5225 223.39664Q400.63187 223.39664 401.24124 223.94351Q401.86624 224.49039 401.8975 225.44351L401.8975 228.36539Q401.8975 229.24039 402.11624 229.75601L402.11624 229.84976L400.97562 229.84976ZM399.17874 229.02164Q399.69437 229.02164 400.1475 228.75601Q400.60062 228.49039 400.80374 228.06851L400.80374 226.77164L399.96 226.77164Q397.96 226.77164 397.96 227.94351Q397.96 228.44351 398.30374 228.74039Q398.6475 229.02164 399.17874 229.02164ZM405.085 223.50601L405.11624 224.30289Q405.85062 223.39664 407.0225 223.39664Q409.03812 223.39664 409.05374 225.66226L409.05374 229.84976L407.96 229.84976L407.96 225.64664Q407.96 224.97476 407.6475 224.64664Q407.35062 224.31851 406.69437 224.31851Q406.16312 224.31851 405.75687 224.59976Q405.36624 224.88101 405.1475 225.33414L405.1475 229.84976L404.06937 229.84976L404.06937 223.50601L405.085 223.50601ZM414.0225 226.38101Q414.0225 225.06851 414.36624 223.84976Q414.72562 222.63101 415.42874 221.63101Q416.13187 220.63101 416.8975 220.22476L417.11624 220.94351Q416.25687 221.59976 415.71 222.94351Q415.16312 224.28726 415.11624 225.95914L415.10062 226.45914Q415.10062 228.72476 415.92874 230.38101Q416.42874 231.38101 417.11624 231.94351L416.8975 232.59976Q416.11624 232.17789 415.3975 231.14664Q414.0225 229.16226 414.0225 226.38101ZM423.13187 223.53726Q423.13187 224.17789 422.78812 224.67789Q422.44437 225.17789 421.88187 225.45914Q422.53812 225.74039 422.92874 226.30289Q423.31937 226.84976 423.31937 227.55289Q423.31937 228.64664 422.56937 229.31851Q421.835 229.97476 420.61624 229.97476Q419.38187 229.97476 418.63187 229.31851Q417.8975 228.64664 417.8975 227.55289Q417.8975 226.84976 418.2725 226.30289Q418.6475 225.74039 419.31937 225.45914Q418.75687 225.17789 418.42874 224.67789Q418.10062 224.17789 418.10062 223.53726Q418.10062 222.45914 418.78812 221.83414Q419.47562 221.19351 420.61624 221.19351Q421.74124 221.19351 422.42874 221.83414Q423.13187 222.45914 423.13187 223.53726ZM422.24124 227.52164Q422.24124 226.80289 421.78812 226.36539Q421.335 225.91226 420.60062 225.91226Q419.86624 225.91226 419.41312 226.36539Q418.97562 226.80289 418.97562 227.53726Q418.97562 228.25601 419.41312 228.67789Q419.85062 229.08414 420.61624 229.08414Q421.36624 229.08414 421.80374 228.66226Q422.24124 228.24039 422.24124 227.52164ZM420.61624 222.08414Q419.97562 222.08414 419.56937 222.49039Q419.17874 222.88101 419.17874 223.56851Q419.17874 224.20914 419.56937 224.61539Q419.96 225.02164 420.60062 225.02164Q421.25687 225.02164 421.6475 224.61539Q422.03812 224.20914 422.03812 223.56851Q422.03812 222.91226 421.63187 222.50601Q421.22562 222.08414 420.61624 222.08414ZM430.30374 226.20914Q430.30374 228.11539 429.6475 229.05289Q429.00687 229.97476 427.61624 229.97476Q426.25687 229.97476 425.60062 229.06851Q424.94437 228.16226 424.91312 226.34976L424.91312 224.91226Q424.91312 223.02164 425.55374 222.11539Q426.21 221.19351 427.60062 221.19351Q428.97562 221.19351 429.63187 222.08414Q430.28812 222.95914 430.30374 224.80289L430.30374 226.20914ZM429.21 224.72476Q429.21 223.34976 428.81937 222.72476Q428.44437 222.08414 427.60062 222.08414Q426.7725 222.08414 426.38187 222.72476Q426.00687 223.34976 426.00687 224.64664L426.00687 226.38101Q426.00687 227.75601 426.3975 228.42789Q426.80374 229.08414 427.61624 229.08414Q428.41312 229.08414 428.80374 228.45914Q429.19437 227.83414 429.21 226.50601L429.21 224.72476ZM437.30374 226.20914Q437.30374 228.11539 436.6475 229.05289Q436.00687 229.97476 434.61624 229.97476Q433.25687 229.97476 432.60062 229.06851Q431.94437 228.16226 431.91312 226.34976L431.91312 224.91226Q431.91312 223.02164 432.55374 222.11539Q433.21 221.19351 434.60062 221.19351Q435.97562 221.19351 436.63187 222.08414Q437.28812 222.95914 437.30374 224.80289L437.30374 226.20914ZM436.21 224.72476Q436.21 223.34976 435.81937 222.72476Q435.44437 222.08414 434.60062 222.08414Q433.7725 222.08414 433.38187 222.72476Q433.00687 223.34976 433.00687 224.64664L433.00687 226.38101Q433.00687 227.75601 433.3975 228.42789Q433.80374 229.08414 434.61624 229.08414Q435.41312 229.08414 435.80374 228.45914Q436.19437 227.83414 436.21 226.50601L436.21 224.72476ZM440.835 226.91226L440.1475 227.61539L440.1475 229.84976L439.06937 229.84976L439.06937 220.84976L440.1475 220.84976L440.1475 226.28726L440.72562 225.59976L442.71 223.50601L444.0225 223.50601L441.55374 226.16226L444.31937 229.84976L443.03812 229.84976L440.835 226.91226ZM451.78812 229.84976L450.66312 229.84976L450.66312 225.91226L446.35062 225.91226L446.35062 229.84976L445.22562 229.84976L445.22562 221.31851L446.35062 221.31851L446.35062 224.99039L450.66312 224.99039L450.66312 221.31851L451.78812 221.31851L451.78812 229.84976ZM455.085 228.95914L458.78812 228.95914L458.78812 229.84976L453.75687 229.84976L453.75687 229.05289L457.25687 224.41226L453.80374 224.41226L453.80374 223.50601L458.61624 223.50601L458.61624 224.27164L455.085 228.95914ZM464.53812 221.97476L464.53812 223.50601L465.71 223.50601L465.71 224.34976L464.53812 224.34976L464.53812 228.27164Q464.53812 228.66226 464.69437 228.84976Q464.85062 229.03726 465.22562 229.03726Q465.41312 229.03726 465.74124 228.97476L465.74124 229.84976Q465.31937 229.97476 464.91312 229.97476Q464.19437 229.97476 463.81937 229.53726Q463.44437 229.08414 463.44437 228.27164L463.44437 224.34976L462.28812 224.34976L462.28812 223.50601L463.44437 223.50601L463.44437 221.97476L464.53812 221.97476ZM470.97562 229.84976Q470.88187 229.66226 470.81937 229.17789Q470.06937 229.97476 469.0225 229.97476Q468.085 229.97476 467.47562 229.44351Q466.88187 228.91226 466.88187 228.08414Q466.88187 227.09976 467.63187 226.55289Q468.38187 226.00601 469.75687 226.00601L470.80374 226.00601L470.80374 225.50601Q470.80374 224.94351 470.46 224.61539Q470.13187 224.27164 469.46 224.27164Q468.88187 224.27164 468.49124 224.56851Q468.10062 224.84976 468.10062 225.27164L467.00687 225.27164Q467.00687 224.78726 467.335 224.34976Q467.67874 223.91226 468.25687 223.66226Q468.835 223.39664 469.5225 223.39664Q470.63187 223.39664 471.24124 223.94351Q471.86624 224.49039 471.8975 225.44351L471.8975 228.36539Q471.8975 229.24039 472.11624 229.75601L472.11624 229.84976L470.97562 229.84976ZM469.17874 229.02164Q469.69437 229.02164 470.1475 228.75601Q470.60062 228.49039 470.80374 228.06851L470.80374 226.77164L469.96 226.77164Q467.96 226.77164 467.96 227.94351Q467.96 228.44351 468.30374 228.74039Q468.6475 229.02164 469.17874 229.02164ZM477.13187 224.47476Q476.88187 224.44351 476.60062 224.44351Q475.5225 224.44351 475.1475 225.34976L475.1475 229.84976L474.06937 229.84976L474.06937 223.50601L475.11624 223.50601L475.13187 224.24039Q475.66312 223.39664 476.6475 223.39664Q476.96 223.39664 477.13187 223.47476L477.13187 224.47476ZM477.80374 226.63101Q477.80374 225.14664 478.49124 224.27164Q479.17874 223.39664 480.30374 223.39664Q481.46 223.39664 482.11624 224.20914L482.16312 223.50601L483.16312 223.50601L483.16312 229.69351Q483.16312 230.92789 482.42874 231.63101Q481.69437 232.34976 480.47562 232.34976Q479.78812 232.34976 479.13187 232.05289Q478.47562 231.75601 478.13187 231.25601L478.69437 230.59976Q479.38187 231.45914 480.3975 231.45914Q481.17874 231.45914 481.61624 231.00601Q482.06937 230.56851 482.06937 229.75601L482.06937 229.20914Q481.41312 229.97476 480.28812 229.97476Q479.17874 229.97476 478.49124 229.08414Q477.80374 228.17789 477.80374 226.63101ZM478.8975 226.75601Q478.8975 227.81851 479.335 228.44351Q479.7725 229.05289 480.56937 229.05289Q481.585 229.05289 482.06937 228.11539L482.06937 225.22476Q481.56937 224.31851 480.56937 224.31851Q479.78812 224.31851 479.335 224.92789Q478.8975 225.53726 478.8975 226.75601ZM487.69437 229.97476Q486.3975 229.97476 485.585 229.13101Q484.78812 228.27164 484.78812 226.84976L484.78812 226.66226Q484.78812 225.70914 485.1475 224.97476Q485.50687 224.22476 486.1475 223.81851Q486.80374 223.39664 487.55374 223.39664Q488.78812 223.39664 489.47562 224.20914Q490.16312 225.02164 490.16312 226.53726L490.16312 226.99039L485.86624 226.99039Q485.8975 227.92789 486.41312 228.50601Q486.94437 229.08414 487.75687 229.08414Q488.31937 229.08414 488.71 228.84976Q489.11624 228.61539 489.42874 228.22476L490.085 228.74039Q489.28812 229.97476 487.69437 229.97476ZM487.55374 224.28726Q486.8975 224.28726 486.44437 224.77164Q486.00687 225.24039 485.91312 226.09976L489.085 226.09976L489.085 226.02164Q489.03812 225.19351 488.63187 224.74039Q488.24124 224.28726 487.55374 224.28726ZM492.53812 221.97476L492.53812 223.50601L493.71 223.50601L493.71 224.34976L492.53812 224.34976L492.53812 228.27164Q492.53812 228.66226 492.69437 228.84976Q492.85062 229.03726 493.22562 229.03726Q493.41312 229.03726 493.74124 228.97476L493.74124 229.84976Q493.31937 229.97476 492.91312 229.97476Q492.19437 229.97476 491.81937 229.53726Q491.44437 229.08414 491.44437 228.27164L491.44437 224.34976L490.28812 224.34976L490.28812 223.50601L491.44437 223.50601L491.44437 221.97476L492.53812 221.97476ZM497.56937 226.44351Q497.56937 227.75601 497.22562 228.95914Q496.88187 230.14664 496.16312 231.16226Q495.46 232.17789 494.69437 232.59976L494.46 231.94351Q495.36624 231.25601 495.91312 229.80289Q496.46 228.33414 496.47562 226.56851L496.47562 226.38101Q496.47562 225.14664 496.21 224.08414Q495.96 223.02164 495.49124 222.19351Q495.03812 221.34976 494.46 220.88101L494.69437 220.22476Q495.46 220.64664 496.16312 221.64664Q496.86624 222.64664 497.21 223.86539Q497.56937 225.06851 497.56937 226.44351Z" fill-rule="nonzero"/><path fill="#ffffff" d="M4.36875 100.6713L4.4 101.37443Q5.0875 100.56193 6.275 100.56193Q7.603125 100.56193 8.0875 101.57755Q8.4 101.12443 8.9 100.84318Q9.415625 100.56193 10.103125 100.56193Q12.196875 100.56193 12.228125 102.76505L12.228125 107.01505L11.15 107.01505L11.15 102.82755Q11.15 102.15568 10.8375 101.82755Q10.525 101.4838 9.790625 101.4838Q9.18125 101.4838 8.775 101.84318Q8.384375 102.20255 8.321875 102.81193L8.321875 107.01505L7.24375 107.01505L7.24375 102.8588Q7.24375 101.4838 5.884375 101.4838Q4.821875 101.4838 4.43125 102.39005L4.43125 107.01505L3.3375 107.01505L3.3375 100.6713L4.36875 100.6713ZM16.978125 107.14005Q15.68125 107.14005 14.86875 106.2963Q14.071875 105.43693 14.071875 104.01505L14.071875 103.82755Q14.071875 102.87443 14.43125 102.14005Q14.790625 101.39005 15.43125 100.9838Q16.0875 100.56193 16.8375 100.56193Q18.071875 100.56193 18.759375 101.37443Q19.446875 102.18693 19.446875 103.70255L19.446875 104.15568L15.15 104.15568Q15.18125 105.09318 15.696875 105.6713Q16.228125 106.24943 17.040625 106.24943Q17.603125 106.24943 17.99375 106.01505Q18.4 105.78068 18.7125 105.39005L19.36875 105.90568Q18.571875 107.14005 16.978125 107.14005ZM16.8375 101.45255Q16.18125 101.45255 15.728125 101.93693Q15.290625 102.40568 15.196875 103.26505L18.36875 103.26505L18.36875 103.18693Q18.321875 102.3588 17.915625 101.90568Q17.525 101.45255 16.8375 101.45255ZM20.0875 103.7963Q20.0875 102.32755 20.775 101.45255Q21.4625 100.56193 22.5875 100.56193Q23.696875 100.56193 24.353125 101.31193L24.353125 98.01505L25.43125 98.01505L25.43125 107.01505L24.43125 107.01505L24.384375 106.32755Q23.728125 107.14005 22.571875 107.14005Q21.478125 107.14005 20.775 106.2338Q20.0875 105.32755 20.0875 103.87443L20.0875 103.7963ZM21.165625 103.9213Q21.165625 104.99943 21.603125 105.6088Q22.05625 106.21818 22.8375 106.21818Q23.86875 106.21818 24.353125 105.28068L24.353125 102.37443Q23.86875 101.4838 22.853125 101.4838Q22.05625 101.4838 21.603125 102.09318Q21.165625 102.70255 21.165625 103.9213ZM28.525 107.01505L27.446875 107.01505L27.446875 100.6713L28.525 100.6713L28.525 107.01505ZM27.353125 98.99943Q27.353125 98.7338 27.509375 98.5463Q27.68125 98.3588 27.99375 98.3588Q28.30625 98.3588 28.4625 98.5463Q28.634375 98.7338 28.634375 98.99943Q28.634375 99.24943 28.4625 99.43693Q28.30625 99.6088 27.99375 99.6088Q27.68125 99.6088 27.509375 99.43693Q27.353125 99.24943 27.353125 98.99943ZM34.259377 107.01505Q34.165627 106.82755 34.103127 106.34318Q33.353127 107.14005 32.30625 107.14005Q31.36875 107.14005 30.759375 106.6088Q30.165625 106.07755 30.165625 105.24943Q30.165625 104.26505 30.915625 103.71818Q31.665625 103.1713 33.040627 103.1713L34.0875 103.1713L34.0875 102.6713Q34.0875 102.1088 33.74375 101.78068Q33.415627 101.43693 32.74375 101.43693Q32.165627 101.43693 31.775 101.7338Q31.384375 102.01505 31.384375 102.43693L30.290625 102.43693Q30.290625 101.95255 30.61875 101.51505Q30.9625 101.07755 31.540625 100.82755Q32.11875 100.56193 32.80625 100.56193Q33.915627 100.56193 34.525 101.1088Q35.15 101.65568 35.18125 102.6088L35.18125 105.53068Q35.18125 106.40568 35.4 106.9213L35.4 107.01505L34.259377 107.01505ZM32.4625 106.18693Q32.978127 106.18693 33.43125 105.9213Q33.884377 105.65568 34.0875 105.2338L34.0875 103.93693L33.24375 103.93693Q31.24375 103.93693 31.24375 105.1088Q31.24375 105.6088 31.5875 105.90568Q31.93125 106.18693 32.4625 106.18693Z" fill-rule="nonzero"/><path fill="#ffffff" d="M31.36875 115.6713L31.4 116.46818Q32.134377 115.56193 33.30625 115.56193Q35.321877 115.56193 35.3375 117.82755L35.3375 122.01505L34.24375 122.01505L34.24375 117.81193Q34.24375 117.14005 33.93125 116.81193Q33.634377 116.4838 32.978127 116.4838Q32.446877 116.4838 32.040627 116.76505Q31.65 117.0463 31.43125 117.49943L31.43125 122.01505L30.353125 122.01505L30.353125 115.6713L31.36875 115.6713Z" fill-rule="nonzero"/><path fill="#757575" d="M26.24375 202.92381L22.7125 210.84569L21.571875 210.84569L25.0875 203.20506L20.478125 203.20506L20.478125 202.31444L26.24375 202.31444L26.24375 202.92381ZM28.228125 206.56444L28.665625 202.31444L33.040627 202.31444L33.040627 203.31444L29.5875 203.31444L29.321875 205.64256Q29.9625 205.26756 30.759375 205.26756Q31.915625 205.26756 32.603127 206.04881Q33.290627 206.81444 33.290627 208.12694Q33.290627 209.43944 32.571877 210.20506Q31.86875 210.97069 30.5875 210.97069Q29.4625 210.97069 28.74375 210.34569Q28.025 209.70506 27.93125 208.59569L28.946875 208.59569Q29.05625 209.33006 29.478125 209.70506Q29.9 210.08006 30.5875 210.08006Q31.3375 210.08006 31.775 209.56444Q32.2125 209.04881 32.2125 208.14256Q32.2125 207.28319 31.74375 206.76756Q31.275 206.25194 30.49375 206.25194Q29.790625 206.25194 29.384375 206.54881L29.103125 206.78319L28.228125 206.56444ZM40.0875 207.20506Q40.0875 209.11131 39.43125 210.04881Q38.790627 210.97069 37.4 210.97069Q36.040627 210.97069 35.384377 210.06444Q34.728127 209.15819 34.696877 207.34569L34.696877 205.90819Q34.696877 204.01756 35.3375 203.11131Q35.99375 202.18944 37.384377 202.18944Q38.759377 202.18944 39.415627 203.08006Q40.071877 203.95506 40.0875 205.79881L40.0875 207.20506ZM38.99375 205.72069Q38.99375 204.34569 38.603127 203.72069Q38.228127 203.08006 37.384377 203.08006Q36.55625 203.08006 36.165627 203.72069Q35.790627 204.34569 35.790627 205.64256L35.790627 207.37694Q35.790627 208.75194 36.18125 209.42381Q36.5875 210.08006 37.4 210.08006Q38.196877 210.08006 38.5875 209.45506Q38.978127 208.83006 38.99375 207.50194L38.99375 205.72069ZM46.61875 207.90819L45.93125 208.61131L45.93125 210.84569L44.853127 210.84569L44.853127 201.84569L45.93125 201.84569L45.93125 207.28319L46.509377 206.59569L48.49375 204.50194L49.80625 204.50194L47.3375 207.15819L50.103127 210.84569L48.821877 210.84569L46.61875 207.90819ZM57.571877 210.84569L56.446877 210.84569L56.446877 206.90819L52.134377 206.90819L52.134377 210.84569L51.009377 210.84569L51.009377 202.31444L52.134377 202.31444L52.134377 205.98631L56.446877 205.98631L56.446877 202.31444L57.571877 202.31444L57.571877 210.84569ZM60.86875 209.95506L64.57188 209.95506L64.57188 210.84569L59.540627 210.84569L59.540627 210.04881L63.040627 205.40819L59.5875 205.40819L59.5875 204.50194L64.4 204.50194L64.4 205.26756L60.86875 209.95506Z" fill-rule="nonzero"/><path fill="#757575" d="M211.85187 202.92381L208.32062 210.84569L207.18 210.84569L210.69562 203.20506L206.08624 203.20506L206.08624 202.31444L211.85187 202.31444L211.85187 202.92381ZM218.85187 202.92381L215.32062 210.84569L214.18 210.84569L217.69562 203.20506L213.08624 203.20506L213.08624 202.31444L218.85187 202.31444L218.85187 202.92381ZM220.83624 206.56444L221.27374 202.31444L225.64874 202.31444L225.64874 203.31444L222.19562 203.31444L221.93 205.64256Q222.57062 205.26756 223.3675 205.26756Q224.52374 205.26756 225.21124 206.04881Q225.89874 206.81444 225.89874 208.12694Q225.89874 209.43944 225.18 210.20506Q224.47687 210.97069 223.19562 210.97069Q222.07062 210.97069 221.35187 210.34569Q220.63312 209.70506 220.53937 208.59569L221.555 208.59569Q221.66437 209.33006 222.08624 209.70506Q222.50812 210.08006 223.19562 210.08006Q223.94562 210.08006 224.38312 209.56444Q224.82062 209.04881 224.82062 208.14256Q224.82062 207.28319 224.35187 206.76756Q223.88312 206.25194 223.10187 206.25194Q222.39874 206.25194 221.9925 206.54881L221.71124 206.78319L220.83624 206.56444ZM232.22687 207.90819L231.53937 208.61131L231.53937 210.84569L230.46124 210.84569L230.46124 201.84569L231.53937 201.84569L231.53937 207.28319L232.1175 206.59569L234.10187 204.50194L235.41437 204.50194L232.94562 207.15819L235.71124 210.84569L234.43 210.84569L232.22687 207.90819ZM243.18 210.84569L242.055 210.84569L242.055 206.90819L237.7425 206.90819L237.7425 210.84569L236.6175 210.84569L236.6175 202.31444L237.7425 202.31444L237.7425 205.98631L242.055 205.98631L242.055 202.31444L243.18 202.31444L243.18 210.84569ZM246.47687 209.95506L250.18 209.95506L250.18 210.84569L245.14874 210.84569L245.14874 210.04881L248.64874 205.40819L245.19562 205.40819L245.19562 204.50194L250.00812 204.50194L250.00812 205.26756L246.47687 209.95506Z" fill-rule="nonzero"/><path fill="#757575" d="M397.13187 204.53319Q397.13187 205.17381 396.78812 205.67381Q396.44437 206.17381 395.88187 206.45506Q396.53812 206.73631 396.92874 207.29881Q397.31937 207.84569 397.31937 208.54881Q397.31937 209.64256 396.56937 210.31444Q395.835 210.97069 394.61624 210.97069Q393.38187 210.97069 392.63187 210.31444Q391.8975 209.64256 391.8975 208.54881Q391.8975 207.84569 392.2725 207.29881Q392.6475 206.73631 393.31937 206.45506Q392.75687 206.17381 392.42874 205.67381Q392.10062 205.17381 392.10062 204.53319Q392.10062 203.45506 392.78812 202.83006Q393.47562 202.18944 394.61624 202.18944Q395.74124 202.18944 396.42874 202.83006Q397.13187 203.45506 397.13187 204.53319ZM396.24124 208.51756Q396.24124 207.79881 395.78812 207.36131Q395.335 206.90819 394.60062 206.90819Q393.86624 206.90819 393.41312 207.36131Q392.97562 207.79881 392.97562 208.53319Q392.97562 209.25194 393.41312 209.67381Q393.85062 210.08006 394.61624 210.08006Q395.36624 210.08006 395.80374 209.65819Q396.24124 209.23631 396.24124 208.51756ZM394.61624 203.08006Q393.97562 203.08006 393.56937 203.48631Q393.17874 203.87694 393.17874 204.56444Q393.17874 205.20506 393.56937 205.61131Q393.96 206.01756 394.60062 206.01756Q395.25687 206.01756 395.6475 205.61131Q396.03812 205.20506 396.03812 204.56444Q396.03812 203.90819 395.63187 203.50194Q395.22562 203.08006 394.61624 203.08006ZM404.30374 207.20506Q404.30374 209.11131 403.6475 210.04881Q403.00687 210.97069 401.61624 210.97069Q400.25687 210.97069 399.60062 210.06444Q398.94437 209.15819 398.91312 207.34569L398.91312 205.90819Q398.91312 204.01756 399.55374 203.11131Q400.21 202.18944 401.60062 202.18944Q402.97562 202.18944 403.63187 203.08006Q404.28812 203.95506 404.30374 205.79881L404.30374 207.20506ZM403.21 205.72069Q403.21 204.34569 402.81937 203.72069Q402.44437 203.08006 401.60062 203.08006Q400.7725 203.08006 400.38187 203.72069Q400.00687 204.34569 400.00687 205.64256L400.00687 207.37694Q400.00687 208.75194 400.3975 209.42381Q400.80374 210.08006 401.61624 210.08006Q402.41312 210.08006 402.80374 209.45506Q403.19437 208.83006 403.21 207.50194L403.21 205.72069ZM411.30374 207.20506Q411.30374 209.11131 410.6475 210.04881Q410.00687 210.97069 408.61624 210.97069Q407.25687 210.97069 406.60062 210.06444Q405.94437 209.15819 405.91312 207.34569L405.91312 205.90819Q405.91312 204.01756 406.55374 203.11131Q407.21 202.18944 408.60062 202.18944Q409.97562 202.18944 410.63187 203.08006Q411.28812 203.95506 411.30374 205.79881L411.30374 207.20506ZM410.21 205.72069Q410.21 204.34569 409.81937 203.72069Q409.44437 203.08006 408.60062 203.08006Q407.7725 203.08006 407.38187 203.72069Q407.00687 204.34569 407.00687 205.64256L407.00687 207.37694Q407.00687 208.75194 407.3975 209.42381Q407.80374 210.08006 408.61624 210.08006Q409.41312 210.08006 409.80374 209.45506Q410.19437 208.83006 410.21 207.50194L410.21 205.72069ZM417.835 207.90819L417.1475 208.61131L417.1475 210.84569L416.06937 210.84569L416.06937 201.84569L417.1475 201.84569L417.1475 207.28319L417.72562 206.59569L419.71 204.50194L421.0225 204.50194L418.55374 207.15819L421.31937 210.84569L420.03812 210.84569L417.835 207.90819ZM428.78812 210.84569L427.66312 210.84569L427.66312 206.90819L423.35062 206.90819L423.35062 210.84569L422.22562 210.84569L422.22562 202.31444L423.35062 202.31444L423.35062 205.98631L427.66312 205.98631L427.66312 202.31444L428.78812 202.31444L428.78812 210.84569ZM432.085 209.95506L435.78812 209.95506L435.78812 210.84569L430.75687 210.84569L430.75687 210.04881L434.25687 205.40819L430.80374 205.40819L430.80374 204.50194L435.61624 204.50194L435.61624 205.26756L432.085 209.95506Z" fill-rule="nonzero"/><path fill="#757575" d="M582.74 204.53319Q582.74 205.17381 582.39624 205.67381Q582.0525 206.17381 581.49 206.45506Q582.14624 206.73631 582.53687 207.29881Q582.9275 207.84569 582.9275 208.54881Q582.9275 209.64256 582.1775 210.31444Q581.4431 210.97069 580.22437 210.97069Q578.99 210.97069 578.24 210.31444Q577.5056 209.64256 577.5056 208.54881Q577.5056 207.84569 577.8806 207.29881Q578.2556 206.73631 578.9275 206.45506Q578.365 206.17381 578.03687 205.67381Q577.70874 205.17381 577.70874 204.53319Q577.70874 203.45506 578.39624 202.83006Q579.08374 202.18944 580.22437 202.18944Q581.34937 202.18944 582.03687 202.83006Q582.74 203.45506 582.74 204.53319ZM581.84937 208.51756Q581.84937 207.79881 581.39624 207.36131Q580.9431 206.90819 580.20874 206.90819Q579.47437 206.90819 579.02124 207.36131Q578.58374 207.79881 578.58374 208.53319Q578.58374 209.25194 579.02124 209.67381Q579.45874 210.08006 580.22437 210.08006Q580.97437 210.08006 581.41187 209.65819Q581.84937 209.23631 581.84937 208.51756ZM580.22437 203.08006Q579.58374 203.08006 579.1775 203.48631Q578.78687 203.87694 578.78687 204.56444Q578.78687 205.20506 579.1775 205.61131Q579.5681 206.01756 580.20874 206.01756Q580.865 206.01756 581.2556 205.61131Q581.64624 205.20506 581.64624 204.56444Q581.64624 203.90819 581.24 203.50194Q580.83374 203.08006 580.22437 203.08006ZM590.14624 210.84569L584.5525 210.84569L584.5525 210.06444L587.5056 206.78319Q588.16187 206.03319 588.41187 205.58006Q588.66187 205.11131 588.66187 204.61131Q588.66187 203.93944 588.2556 203.51756Q587.865 203.08006 587.1775 203.08006Q586.3806 203.08006 585.9275 203.54881Q585.47437 204.00194 585.47437 204.83006L584.39624 204.83006Q584.39624 203.64256 585.14624 202.92381Q585.91187 202.18944 587.1775 202.18944Q588.3806 202.18944 589.0681 202.81444Q589.7556 203.43944 589.7556 204.48631Q589.7556 205.73631 588.14624 207.48631L585.865 209.95506L590.14624 209.95506L590.14624 210.84569ZM592.0525 206.56444L592.49 202.31444L596.865 202.31444L596.865 203.31444L593.41187 203.31444L593.14624 205.64256Q593.78687 205.26756 594.58374 205.26756Q595.74 205.26756 596.4275 206.04881Q597.115 206.81444 597.115 208.12694Q597.115 209.43944 596.39624 210.20506Q595.6931 210.97069 594.41187 210.97069Q593.28687 210.97069 592.5681 210.34569Q591.84937 209.70506 591.7556 208.59569L592.77124 208.59569Q592.8806 209.33006 593.3025 209.70506Q593.72437 210.08006 594.41187 210.08006Q595.16187 210.08006 595.59937 209.56444Q596.03687 209.04881 596.03687 208.14256Q596.03687 207.28319 595.5681 206.76756Q595.09937 206.25194 594.3181 206.25194Q593.615 206.25194 593.20874 206.54881L592.9275 206.78319L592.0525 206.56444ZM603.4431 207.90819L602.7556 208.61131L602.7556 210.84569L601.6775 210.84569L601.6775 201.84569L602.7556 201.84569L602.7556 207.28319L603.33374 206.59569L605.3181 204.50194L606.6306 204.50194L604.16187 207.15819L606.9275 210.84569L605.64624 210.84569L603.4431 207.90819ZM614.39624 210.84569L613.27124 210.84569L613.27124 206.90819L608.95874 206.90819L608.95874 210.84569L607.83374 210.84569L607.83374 202.31444L608.95874 202.31444L608.95874 205.98631L613.27124 205.98631L613.27124 202.31444L614.39624 202.31444L614.39624 210.84569ZM617.6931 209.95506L621.39624 209.95506L621.39624 210.84569L616.365 210.84569L616.365 210.04881L619.865 205.40819L616.41187 205.40819L616.41187 204.50194L621.22437 204.50194L621.22437 205.26756L617.6931 209.95506Z" fill-rule="nonzero"/><path fill="#757575" d="M768.34814 204.53319Q768.34814 205.17381 768.0044 205.67381Q767.66064 206.17381 767.09814 206.45506Q767.7544 206.73631 768.145 207.29881Q768.53564 207.84569 768.53564 208.54881Q768.53564 209.64256 767.78564 210.31444Q767.0513 210.97069 765.8325 210.97069Q764.59814 210.97069 763.84814 210.31444Q763.1138 209.64256 763.1138 208.54881Q763.1138 207.84569 763.4888 207.29881Q763.8638 206.73631 764.53564 206.45506Q763.97314 206.17381 763.645 205.67381Q763.3169 205.17381 763.3169 204.53319Q763.3169 203.45506 764.0044 202.83006Q764.6919 202.18944 765.8325 202.18944Q766.9575 202.18944 767.645 202.83006Q768.34814 203.45506 768.34814 204.53319ZM767.4575 208.51756Q767.4575 207.79881 767.0044 207.36131Q766.5513 206.90819 765.8169 206.90819Q765.0825 206.90819 764.6294 207.36131Q764.1919 207.79881 764.1919 208.53319Q764.1919 209.25194 764.6294 209.67381Q765.0669 210.08006 765.8325 210.08006Q766.5825 210.08006 767.02 209.65819Q767.4575 209.23631 767.4575 208.51756ZM765.8325 203.08006Q765.1919 203.08006 764.78564 203.48631Q764.395 203.87694 764.395 204.56444Q764.395 205.20506 764.78564 205.61131Q765.1763 206.01756 765.8169 206.01756Q766.47314 206.01756 766.8638 205.61131Q767.2544 205.20506 767.2544 204.56444Q767.2544 203.90819 766.84814 203.50194Q766.4419 203.08006 765.8325 203.08006ZM770.66064 206.56444L771.09814 202.31444L775.47314 202.31444L775.47314 203.31444L772.02 203.31444L771.7544 205.64256Q772.395 205.26756 773.1919 205.26756Q774.34814 205.26756 775.03564 206.04881Q775.72314 206.81444 775.72314 208.12694Q775.72314 209.43944 775.0044 210.20506Q774.3013 210.97069 773.02 210.97069Q771.895 210.97069 771.1763 210.34569Q770.4575 209.70506 770.3638 208.59569L771.3794 208.59569Q771.4888 209.33006 771.91064 209.70506Q772.3325 210.08006 773.02 210.08006Q773.77 210.08006 774.2075 209.56444Q774.645 209.04881 774.645 208.14256Q774.645 207.28319 774.1763 206.76756Q773.7075 206.25194 772.9263 206.25194Q772.22314 206.25194 771.8169 206.54881L771.53564 206.78319L770.66064 206.56444ZM782.52 207.20506Q782.52 209.11131 781.8638 210.04881Q781.22314 210.97069 779.8325 210.97069Q778.47314 210.97069 777.8169 210.06444Q777.16064 209.15819 777.1294 207.34569L777.1294 205.90819Q777.1294 204.01756 777.77 203.11131Q778.4263 202.18944 779.8169 202.18944Q781.1919 202.18944 781.84814 203.08006Q782.5044 203.95506 782.52 205.79881L782.52 207.20506ZM781.4263 205.72069Q781.4263 204.34569 781.03564 203.72069Q780.66064 203.08006 779.8169 203.08006Q778.9888 203.08006 778.59814 203.72069Q778.22314 204.34569 778.22314 205.64256L778.22314 207.37694Q778.22314 208.75194 778.6138 209.42381Q779.02 210.08006 779.8325 210.08006Q780.6294 210.08006 781.02 209.45506Q781.41064 208.83006 781.4263 207.50194L781.4263 205.72069ZM789.0513 207.90819L788.3638 208.61131L788.3638 210.84569L787.28564 210.84569L787.28564 201.84569L788.3638 201.84569L788.3638 207.28319L788.9419 206.59569L790.9263 204.50194L792.2388 204.50194L789.77 207.15819L792.53564 210.84569L791.2544 210.84569L789.0513 207.90819ZM800.0044 210.84569L798.8794 210.84569L798.8794 206.90819L794.5669 206.90819L794.5669 210.84569L793.4419 210.84569L793.4419 202.31444L794.5669 202.31444L794.5669 205.98631L798.8794 205.98631L798.8794 202.31444L800.0044 202.31444L800.0044 210.84569ZM803.3013 209.95506L807.0044 209.95506L807.0044 210.84569L801.97314 210.84569L801.97314 210.04881L805.47314 205.40819L802.02 205.40819L802.02 204.50194L806.8325 204.50194L806.8325 205.26756L803.3013 209.95506Z" fill-rule="nonzero"/><path fill="#4285f4" d="M276.8775 11.73615C276.8775 11.183865 277.32523 10.73615 277.8775 10.73615L287.8775 10.73615C288.42978 10.73615 288.8775 11.183865 288.8775 11.73615L288.8775 21.736149C288.8775 22.288435 288.42978 22.736149 287.8775 22.736149L277.8775 22.736149C277.32523 22.736149 276.8775 22.288435 276.8775 21.736149Z" fill-rule="nonzero"/><path fill="#757575" d="M302.58063 17.470524L298.98688 17.470524L298.98688 21.236149L297.86188 21.236149L297.86188 12.704899L303.15875 12.704899L303.15875 13.626774L298.98688 13.626774L298.98688 16.548649L302.58063 16.548649L302.58063 17.470524ZM308.61188 21.236149Q308.51813 21.048649 308.45563 20.564274Q307.70563 21.361149 306.65875 21.361149Q305.72125 21.361149 305.11188 20.829899Q304.51813 20.298649 304.51813 19.470524Q304.51813 18.486149 305.26813 17.939274Q306.01813 17.392399 307.39313 17.392399L308.44 17.392399L308.44 16.892399Q308.44 16.329899 308.09625 16.001774Q307.76813 15.658024 307.09625 15.658024Q306.51813 15.658024 306.1275 15.954899Q305.73688 16.236149 305.73688 16.658024L304.64313 16.658024Q304.64313 16.173649 304.97125 15.736149Q305.315 15.298649 305.89313 15.048649Q306.47125 14.783024 307.15875 14.783024Q308.26813 14.783024 308.8775 15.329899Q309.5025 15.876774 309.53375 16.829899L309.53375 19.751774Q309.53375 20.626774 309.7525 21.142399L309.7525 21.236149L308.61188 21.236149ZM306.815 20.408024Q307.33063 20.408024 307.78375 20.142399Q308.23688 19.876774 308.44 19.454899L308.44 18.158024L307.59625 18.158024Q305.59625 18.158024 305.59625 19.329899Q305.59625 19.829899 305.94 20.126774Q306.28375 20.408024 306.815 20.408024ZM315.39313 19.548649Q315.39313 19.111149 315.04938 18.876774Q314.72125 18.626774 313.89313 18.454899Q313.08063 18.283024 312.59625 18.033024Q312.11188 17.783024 311.8775 17.454899Q311.65875 17.111149 311.65875 16.642399Q311.65875 15.861149 312.315 15.329899Q312.97125 14.783024 314.0025 14.783024Q315.08063 14.783024 315.73688 15.345524Q316.40875 15.892399 316.40875 16.751774L315.33063 16.751774Q315.33063 16.314274 314.94 16.001774Q314.565 15.673649 314.0025 15.673649Q313.40875 15.673649 313.065 15.939274Q312.73688 16.189274 312.73688 16.595524Q312.73688 16.986149 313.04938 17.189274Q313.36188 17.392399 314.17438 17.579899Q314.98688 17.751774 315.48688 18.001774Q315.98688 18.251774 316.22125 18.611149Q316.47125 18.970524 316.47125 19.470524Q316.47125 20.329899 315.78375 20.845524Q315.11188 21.361149 314.03375 21.361149Q313.26813 21.361149 312.67438 21.095524Q312.09625 20.814274 311.76813 20.329899Q311.44 19.845524 311.44 19.283024L312.51813 19.283024Q312.54938 19.829899 312.95563 20.158024Q313.36188 20.470524 314.03375 20.470524Q314.64313 20.470524 315.01813 20.220524Q315.39313 19.970524 315.39313 19.548649ZM319.17438 13.361149L319.17438 14.892399L320.34625 14.892399L320.34625 15.736149L319.17438 15.736149L319.17438 19.658024Q319.17438 20.048649 319.33063 20.236149Q319.48688 20.423649 319.86188 20.423649Q320.04938 20.423649 320.3775 20.361149L320.3775 21.236149Q319.95563 21.361149 319.54938 21.361149Q318.83063 21.361149 318.45563 20.923649Q318.08063 20.470524 318.08063 19.658024L318.08063 15.736149L316.92438 15.736149L316.92438 14.892399L318.08063 14.892399L318.08063 13.361149L319.17438 13.361149ZM323.0025 20.314274L327.04938 20.314274L327.04938 21.236149L321.86188 21.236149L321.86188 12.704899L323.0025 12.704899L323.0025 20.314274ZM332.69 17.298649L328.98688 17.298649L328.98688 20.314274L333.28375 20.314274L333.28375 21.236149L327.86188 21.236149L327.86188 12.704899L333.23688 12.704899L333.23688 13.626774L328.98688 13.626774L328.98688 16.376774L332.69 16.376774L332.69 17.298649ZM334.86188 21.236149L334.86188 12.704899L337.28375 12.704899Q338.39313 12.704899 339.23688 13.204899Q340.09625 13.689274 340.565 14.595524Q341.03375 15.501774 341.03375 16.689274L341.03375 17.220524Q341.03375 18.439274 340.565 19.345524Q340.11188 20.251774 339.23688 20.736149Q338.3775 21.220524 337.23688 21.236149L334.86188 21.236149ZM335.98688 13.626774L335.98688 20.314274L337.17438 20.314274Q338.47125 20.314274 339.19 19.517399Q339.92438 18.704899 339.92438 17.204899L339.92438 16.704899Q339.92438 15.251774 339.23688 14.454899Q338.565 13.642399 337.29938 13.626774L335.98688 13.626774Z" fill-rule="nonzero"/><path fill="#db4437" d="M357.8775 11.73615C357.8775 11.183865 358.32523 10.73615 358.8775 10.73615L368.8775 10.73615C369.42978 10.73615 369.8775 11.183865 369.8775 11.73615L369.8775 21.736149C369.8775 22.288435 369.42978 22.736149 368.8775 22.736149L358.8775 22.736149C358.32523 22.736149 357.8775 22.288435 357.8775 21.736149Z" fill-rule="nonzero"/><path fill="#757575" d="M385.42438 21.236149L384.29938 21.236149L380.0025 14.658024L380.0025 21.236149L378.86188 21.236149L378.86188 12.704899L380.0025 12.704899L384.29938 19.314274L384.29938 12.704899L385.42438 12.704899L385.42438 21.236149ZM390.33063 21.361149Q389.03375 21.361149 388.22125 20.517399Q387.42438 19.658024 387.42438 18.236149L387.42438 18.048649Q387.42438 17.095524 387.78375 16.361149Q388.14313 15.611149 388.78375 15.204899Q389.44 14.783024 390.19 14.783024Q391.42438 14.783024 392.11188 15.595524Q392.79938 16.408024 392.79938 17.923649L392.79938 18.376774L388.5025 18.376774Q388.53375 19.314274 389.04938 19.892399Q389.58063 20.470524 390.39313 20.470524Q390.95563 20.470524 391.34625 20.236149Q391.7525 20.001774 392.065 19.611149L392.72125 20.126774Q391.92438 21.361149 390.33063 21.361149ZM390.19 15.673649Q389.53375 15.673649 389.08063 16.158024Q388.64313 16.626774 388.54938 17.486149L391.72125 17.486149L391.72125 17.408024Q391.67438 16.579899 391.26813 16.126774Q390.8775 15.673649 390.19 15.673649ZM393.40875 18.001774Q393.40875 17.079899 393.76813 16.329899Q394.14313 15.579899 394.79938 15.189274Q395.45563 14.783024 396.28375 14.783024Q397.58063 14.783024 398.3775 15.673649Q399.19 16.564274 399.19 18.064274L399.19 18.142399Q399.19 19.064274 398.83063 19.798649Q398.47125 20.533024 397.815 20.954899Q397.15875 21.361149 396.29938 21.361149Q395.01813 21.361149 394.20563 20.470524Q393.40875 19.564274 393.40875 18.079899L393.40875 18.001774ZM394.5025 18.142399Q394.5025 19.189274 394.98688 19.829899Q395.48688 20.470524 396.29938 20.470524Q397.1275 20.470524 397.61188 19.829899Q398.09625 19.173649 398.09625 18.001774Q398.09625 16.970524 397.59625 16.329899Q397.11188 15.673649 396.28375 15.673649Q395.48688 15.673649 394.98688 16.314274Q394.5025 16.939274 394.5025 18.142399ZM401.98688 17.892399L401.98688 21.236149L400.86188 21.236149L400.86188 12.704899L404.01813 12.704899Q405.40875 12.704899 406.20563 13.423649Q407.0025 14.126774 407.0025 15.314274Q407.0025 16.548649 406.22125 17.220524Q405.45563 17.892399 404.0025 17.892399L401.98688 17.892399ZM401.98688 16.970524L404.01813 16.970524Q404.92438 16.970524 405.39313 16.548649Q405.8775 16.126774 405.8775 15.329899Q405.8775 14.564274 405.39313 14.111149Q404.92438 13.642399 404.08063 13.626774L401.98688 13.626774L401.98688 16.970524ZM409.8775 21.236149L408.79938 21.236149L408.79938 14.892399L409.8775 14.892399L409.8775 21.236149ZM408.70563 13.220524Q408.70563 12.954899 408.86188 12.767399Q409.03375 12.579899 409.34625 12.579899Q409.65875 12.579899 409.815 12.767399Q409.98688 12.954899 409.98688 13.220524Q409.98688 13.470524 409.815 13.658024Q409.65875 13.829899 409.34625 13.829899Q409.03375 13.829899 408.86188 13.658024Q408.70563 13.470524 408.70563 13.220524ZM413.83063 17.204899L415.23688 14.892399L416.5025 14.892399L414.42438 18.033024L416.565 21.236149L415.315 21.236149L413.84625 18.861149L412.3775 21.236149L411.11188 21.236149L413.2525 18.033024L411.19 14.892399L412.44 14.892399L413.83063 17.204899ZM420.33063 21.361149Q419.03375 21.361149 418.22125 20.517399Q417.42438 19.658024 417.42438 18.236149L417.42438 18.048649Q417.42438 17.095524 417.78375 16.361149Q418.14313 15.611149 418.78375 15.204899Q419.44 14.783024 420.19 14.783024Q421.42438 14.783024 422.11188 15.595524Q422.79938 16.408024 422.79938 17.923649L422.79938 18.376774L418.5025 18.376774Q418.53375 19.314274 419.04938 19.892399Q419.58063 20.470524 420.39313 20.470524Q420.95563 20.470524 421.34625 20.236149Q421.7525 20.001774 422.065 19.611149L422.72125 20.126774Q421.92438 21.361149 420.33063 21.361149ZM420.19 15.673649Q419.53375 15.673649 419.08063 16.158024Q418.64313 16.626774 418.54938 17.486149L421.72125 17.486149L421.72125 17.408024Q421.67438 16.579899 421.26813 16.126774Q420.8775 15.673649 420.19 15.673649ZM424.8775 21.236149L423.79938 21.236149L423.79938 12.236149L424.8775 12.236149L424.8775 21.236149ZM426.86188 21.236149L426.86188 12.704899L429.65875 12.704899Q431.04938 12.704899 431.73688 13.283024Q432.44 13.845524 432.44 14.970524Q432.44 15.579899 432.09625 16.048649Q431.76813 16.501774 431.17438 16.751774Q431.8775 16.939274 432.26813 17.486149Q432.67438 18.017399 432.67438 18.767399Q432.67438 19.923649 431.92438 20.579899Q431.19 21.236149 429.83063 21.236149L426.86188 21.236149ZM427.98688 17.251774L427.98688 20.314274L429.84625 20.314274Q430.64313 20.314274 431.09625 19.908024Q431.54938 19.501774 431.54938 18.783024Q431.54938 17.251774 429.86188 17.251774L427.98688 17.251774ZM427.98688 16.345524L429.69 16.345524Q430.42438 16.345524 430.86188 15.986149Q431.315 15.611149 431.315 14.970524Q431.315 14.267399 430.90875 13.954899Q430.5025 13.626774 429.65875 13.626774L427.98688 13.626774L427.98688 16.345524ZM437.61188 20.611149Q436.98688 21.361149 435.7525 21.361149Q434.73688 21.361149 434.20563 20.767399Q433.67438 20.173649 433.67438 19.017399L433.67438 14.892399L434.7525 14.892399L434.7525 18.986149Q434.7525 20.439274 435.92438 20.439274Q437.17438 20.439274 437.58063 19.501774L437.58063 14.892399L438.67438 14.892399L438.67438 21.236149L437.64313 21.236149L437.61188 20.611149ZM444.39313 19.548649Q444.39313 19.111149 444.04938 18.876774Q443.72125 18.626774 442.89313 18.454899Q442.08063 18.283024 441.59625 18.033024Q441.11188 17.783024 440.8775 17.454899Q440.65875 17.111149 440.65875 16.642399Q440.65875 15.861149 441.315 15.329899Q441.97125 14.783024 443.0025 14.783024Q444.08063 14.783024 444.73688 15.345524Q445.40875 15.892399 445.40875 16.751774L444.33063 16.751774Q444.33063 16.314274 443.94 16.001774Q443.565 15.673649 443.0025 15.673649Q442.40875 15.673649 442.065 15.939274Q441.73688 16.189274 441.73688 16.595524Q441.73688 16.986149 442.04938 17.189274Q442.36188 17.392399 443.17438 17.579899Q443.98688 17.751774 444.48688 18.001774Q444.98688 18.251774 445.22125 18.611149Q445.47125 18.970524 445.47125 19.470524Q445.47125 20.329899 444.78375 20.845524Q444.11188 21.361149 443.03375 21.361149Q442.26813 21.361149 441.67438 21.095524Q441.09625 20.814274 440.76813 20.329899Q440.44 19.845524 440.44 19.283024L441.51813 19.283024Q441.54938 19.829899 441.95563 20.158024Q442.36188 20.470524 443.03375 20.470524Q443.64313 20.470524 444.01813 20.220524Q444.39313 19.970524 444.39313 19.548649Z" fill-rule="nonzero"/><path fill="#38761d" d="M461.8775 11.73615C461.8775 11.183865 462.32523 10.73615 462.8775 10.73615L472.8775 10.73615C473.42978 10.73615 473.8775 11.183865 473.8775 11.73615L473.8775 21.736149C473.8775 22.288435 473.42978 22.736149 472.8775 22.736149L462.8775 22.736149C462.32523 22.736149 461.8775 22.288435 461.8775 21.736149Z" fill-rule="nonzero"/><path fill="#757575" d="M489.42438 21.236149L488.29938 21.236149L484.0025 14.658024L484.0025 21.236149L482.86188 21.236149L482.86188 12.704899L484.0025 12.704899L488.29938 19.314274L488.29938 12.704899L489.42438 12.704899L489.42438 21.236149ZM494.33063 21.361149Q493.03375 21.361149 492.22125 20.517399Q491.42438 19.658024 491.42438 18.236149L491.42438 18.048649Q491.42438 17.095524 491.78375 16.361149Q492.14313 15.611149 492.78375 15.204899Q493.44 14.783024 494.19 14.783024Q495.42438 14.783024 496.11188 15.595524Q496.79938 16.408024 496.79938 17.923649L496.79938 18.376774L492.5025 18.376774Q492.53375 19.314274 493.04938 19.892399Q493.58063 20.470524 494.39313 20.470524Q494.95563 20.470524 495.34625 20.236149Q495.7525 20.001774 496.065 19.611149L496.72125 20.126774Q495.92438 21.361149 494.33063 21.361149ZM494.19 15.673649Q493.53375 15.673649 493.08063 16.158024Q492.64313 16.626774 492.54938 17.486149L495.72125 17.486149L495.72125 17.408024Q495.67438 16.579899 495.26813 16.126774Q494.8775 15.673649 494.19 15.673649ZM497.40875 18.001774Q497.40875 17.079899 497.76813 16.329899Q498.14313 15.579899 498.79938 15.189274Q499.45563 14.783024 500.28375 14.783024Q501.58063 14.783024 502.3775 15.673649Q503.19 16.564274 503.19 18.064274L503.19 18.142399Q503.19 19.064274 502.83063 19.798649Q502.47125 20.533024 501.815 20.954899Q501.15875 21.361149 500.29938 21.361149Q499.01813 21.361149 498.20563 20.470524Q497.40875 19.564274 497.40875 18.079899L497.40875 18.001774ZM498.5025 18.142399Q498.5025 19.189274 498.98688 19.829899Q499.48688 20.470524 500.29938 20.470524Q501.1275 20.470524 501.61188 19.829899Q502.09625 19.173649 502.09625 18.001774Q502.09625 16.970524 501.59625 16.329899Q501.11188 15.673649 500.28375 15.673649Q499.48688 15.673649 498.98688 16.314274Q498.5025 16.939274 498.5025 18.142399ZM505.98688 17.892399L505.98688 21.236149L504.86188 21.236149L504.86188 12.704899L508.01813 12.704899Q509.40875 12.704899 510.20563 13.423649Q511.0025 14.126774 511.0025 15.314274Q511.0025 16.548649 510.22125 17.220524Q509.45563 17.892399 508.0025 17.892399L505.98688 17.892399ZM505.98688 16.970524L508.01813 16.970524Q508.92438 16.970524 509.39313 16.548649Q509.8775 16.126774 509.8775 15.329899Q509.8775 14.564274 509.39313 14.111149Q508.92438 13.642399 508.08063 13.626774L505.98688 13.626774L505.98688 16.970524ZM513.8775 21.236149L512.7994 21.236149L512.7994 14.892399L513.8775 14.892399L513.8775 21.236149ZM512.7056 13.220524Q512.7056 12.954899 512.8619 12.767399Q513.03375 12.579899 513.34625 12.579899Q513.65875 12.579899 513.815 12.767399Q513.9869 12.954899 513.9869 13.220524Q513.9869 13.470524 513.815 13.658024Q513.65875 13.829899 513.34625 13.829899Q513.03375 13.829899 512.8619 13.658024Q512.7056 13.470524 512.7056 13.220524ZM517.8306 17.204899L519.2369 14.892399L520.5025 14.892399L518.4244 18.033024L520.565 21.236149L519.315 21.236149L517.84625 18.861149L516.3775 21.236149L515.1119 21.236149L517.2525 18.033024L515.19 14.892399L516.44 14.892399L517.8306 17.204899ZM524.3306 21.361149Q523.03375 21.361149 522.22125 20.517399Q521.4244 19.658024 521.4244 18.236149L521.4244 18.048649Q521.4244 17.095524 521.78375 16.361149Q522.1431 15.611149 522.78375 15.204899Q523.44 14.783024 524.19 14.783024Q525.4244 14.783024 526.1119 15.595524Q526.7994 16.408024 526.7994 17.923649L526.7994 18.376774L522.5025 18.376774Q522.53375 19.314274 523.0494 19.892399Q523.5806 20.470524 524.3931 20.470524Q524.9556 20.470524 525.34625 20.236149Q525.7525 20.001774 526.065 19.611149L526.72125 20.126774Q525.9244 21.361149 524.3306 21.361149ZM524.19 15.673649Q523.53375 15.673649 523.0806 16.158024Q522.6431 16.626774 522.5494 17.486149L525.72125 17.486149L525.72125 17.408024Q525.6744 16.579899 525.2681 16.126774Q524.8775 15.673649 524.19 15.673649ZM528.8775 21.236149L527.7994 21.236149L527.7994 12.236149L528.8775 12.236149L528.8775 21.236149Z" fill-rule="nonzero"/></svg>